<?xml version="1.0" encoding="UTF-8" ?>
<!DOCTYPE svg PUBLIC "-//W3C//DTD SVG 1.1//EN" "http://www.w3.org/Graphics/SVG/1.1/DTD/svg11.dtd">
<svg width="2560pt" height="561pt" viewBox="0 0 2560 561" version="1.1" xmlns="http://www.w3.org/2000/svg">
<g id="#0069ffff">
<path fill="#0069ff" opacity="1.00" d=" M 272.44 0.00 L 286.12 0.00 C 319.44 1.24 352.66 7.79 383.56 20.45 C 438.28 42.43 485.56 82.35 516.49 132.55 C 539.81 170.01 553.90 213.11 557.48 257.08 C 561.38 303.29 553.52 350.43 534.82 392.87 C 518.81 429.44 494.87 462.52 465.11 489.12 C 437.95 513.47 405.97 532.38 371.58 544.51 C 326.12 560.68 276.43 564.66 228.96 556.07 C 188.99 548.93 150.59 532.99 117.41 509.56 C 67.50 474.65 29.58 422.98 11.38 364.84 C 5.83 347.43 2.12 329.46 0.00 311.32 L 0.00 249.39 C 4.86 204.92 20.67 161.73 45.52 124.55 C 71.03 86.23 106.20 54.40 146.88 32.84 C 185.38 12.22 228.80 1.05 272.44 0.00 M 262.48 131.81 C 229.12 135.39 197.15 150.66 173.45 174.42 C 152.30 195.34 137.70 222.75 132.12 251.96 C 126.57 280.33 129.52 310.30 140.53 337.03 C 151.19 363.18 169.44 386.21 192.55 402.44 C 218.71 421.05 251.00 430.83 283.09 429.81 C 318.57 428.90 353.52 414.77 379.62 390.70 C 406.62 366.15 424.02 331.38 427.45 295.05 C 430.49 264.94 424.03 233.99 409.25 207.59 C 393.53 179.22 368.28 156.27 338.51 143.38 C 314.76 132.97 288.26 128.94 262.48 131.81 Z" />
<path fill="#0069ff" opacity="1.00" d=" M 1529.04 1.13 C 1581.95 -2.04 1635.39 2.20 1686.95 14.60 C 1724.64 23.70 1761.37 37.11 1795.61 55.36 C 1828.27 72.81 1858.77 94.67 1884.49 121.40 C 1910.17 148.07 1931.03 179.84 1942.71 215.11 C 1955.20 252.27 1956.75 293.02 1946.94 330.99 C 1937.70 367.39 1918.53 400.78 1893.85 428.89 C 1870.18 455.96 1841.57 478.45 1810.67 496.70 C 1773.21 518.77 1732.27 534.67 1690.12 545.13 C 1641.80 557.09 1591.77 561.83 1542.05 560.03 C 1494.93 558.25 1447.96 550.48 1403.02 536.08 C 1363.67 523.45 1325.83 505.71 1291.74 482.26 C 1259.38 459.94 1230.30 432.31 1208.66 399.34 C 1187.41 367.17 1173.87 329.59 1171.97 290.95 C 1169.85 252.89 1179.03 214.53 1196.94 180.98 C 1214.91 147.00 1240.98 117.75 1270.86 93.78 C 1301.62 69.11 1336.46 49.75 1373.05 35.17 C 1422.73 15.42 1475.72 4.38 1529.04 1.13 M 1534.59 131.81 C 1503.83 133.92 1473.27 139.39 1443.88 148.73 C 1408.30 160.14 1373.95 176.98 1345.59 201.58 C 1330.12 215.20 1316.34 231.37 1308.30 250.52 C 1301.92 265.30 1300.05 282.13 1304.19 297.78 C 1309.32 317.60 1321.31 334.96 1335.53 349.41 C 1350.13 364.30 1367.29 376.49 1385.42 386.71 C 1419.78 405.87 1457.80 417.91 1496.53 424.33 C 1548.64 432.72 1602.41 431.21 1653.86 419.30 C 1693.04 410.04 1731.23 394.75 1764.05 371.17 C 1779.20 360.19 1793.16 347.34 1804.18 332.15 C 1813.92 318.58 1821.38 302.83 1822.83 286.01 C 1824.11 271.81 1820.45 257.56 1814.18 244.89 C 1805.80 227.94 1793.10 213.50 1778.94 201.13 C 1750.10 176.29 1715.19 159.38 1679.05 148.05 C 1632.47 133.62 1583.18 128.66 1534.59 131.81 Z" />
<path fill="#0069ff" opacity="1.00" d=" M 653.14 41.00 C 663.11 26.31 679.33 16.09 696.87 13.42 C 702.53 12.48 708.29 12.59 714.01 12.60 C 847.67 12.61 981.33 12.58 1114.99 12.61 C 1122.26 12.40 1129.42 16.73 1132.49 23.36 C 1135.60 29.70 1134.63 37.67 1130.26 43.19 C 1036.12 167.89 941.93 292.56 847.79 417.26 C 921.55 417.28 995.31 417.26 1069.07 417.27 C 1085.56 417.20 1101.97 423.69 1113.93 435.06 C 1128.78 448.86 1136.47 469.87 1134.06 490.01 C 1132.39 506.15 1124.20 521.42 1111.70 531.75 C 1099.07 542.44 1082.52 548.14 1066.01 548.05 C 918.67 548.09 771.33 548.06 623.98 548.06 C 616.99 548.32 609.98 544.54 606.69 538.31 C 603.00 531.82 603.89 523.25 608.60 517.51 C 702.77 392.81 796.95 268.12 891.11 143.41 C 834.09 143.39 777.07 143.41 720.06 143.40 C 712.99 143.37 705.88 143.64 698.87 142.56 C 680.03 139.80 662.33 129.02 651.89 112.99 C 637.77 91.64 638.43 61.89 653.14 41.00 Z" />
<path fill="#0069ff" opacity="1.00" d=" M 2046.57 32.00 C 2046.17 23.01 2053.04 14.44 2061.93 13.00 C 2068.03 11.72 2074.30 14.12 2078.84 18.19 C 2195.73 111.30 2312.65 204.37 2429.55 297.47 C 2429.58 224.30 2429.51 151.14 2429.59 77.98 C 2429.68 61.36 2436.39 44.91 2447.90 32.92 C 2460.20 19.92 2478.01 12.07 2495.98 12.62 C 2514.65 12.94 2532.94 21.79 2544.78 36.22 C 2553.95 47.04 2558.84 60.92 2560.00 74.95 L 2560.00 529.09 C 2559.59 533.02 2558.66 537.04 2556.22 540.23 C 2551.88 546.36 2543.65 549.32 2536.40 547.35 C 2531.36 546.15 2527.63 542.37 2523.67 539.32 C 2408.07 447.27 2292.49 355.20 2176.86 263.18 C 2176.84 331.81 2176.86 400.43 2176.85 469.05 C 2176.75 479.07 2177.50 489.28 2174.79 499.05 C 2169.47 520.62 2152.30 538.73 2131.04 545.17 C 2113.61 550.77 2093.87 548.42 2078.34 538.69 C 2060.94 528.18 2048.94 509.27 2046.96 489.03 C 2046.23 480.37 2046.70 471.67 2046.57 462.99 C 2046.57 319.32 2046.56 175.66 2046.57 32.00 Z" />
</g>
</svg>
