<?xml version="1.0" encoding="UTF-8" ?>
<!DOCTYPE svg PUBLIC "-//W3C//DTD SVG 1.1//EN" "http://www.w3.org/Graphics/SVG/1.1/DTD/svg11.dtd">
<svg width="1900pt" height="500pt" viewBox="0 0 1900 500" version="1.1" xmlns="http://www.w3.org/2000/svg">
<g id="#ffffffff">
</g>
<g id="#3f376aff">
<path fill="#3f376a" opacity="1.00" d=" M 245.61 10.83 C 277.57 7.63 310.17 10.52 340.97 19.72 C 373.68 29.56 404.23 46.56 429.86 69.15 C 465.59 100.62 492.05 142.76 503.84 188.97 C 515.68 233.58 513.94 281.56 499.58 325.38 C 477.67 393.03 423.78 449.16 357.40 474.45 C 315.13 490.70 268.25 494.54 223.86 485.65 C 174.60 475.97 128.83 450.07 94.80 413.22 C 68.83 385.25 49.64 350.99 39.53 314.18 C 29.06 275.81 28.20 234.89 36.90 196.09 C 46.47 153.55 68.02 113.73 98.54 82.58 C 137.29 42.67 190.10 16.19 245.61 10.83 M 185.65 159.69 C 166.75 168.33 151.99 185.54 146.34 205.54 C 143.49 214.78 143.94 224.53 144.05 234.07 C 144.78 246.44 148.88 258.41 154.67 269.30 C 164.30 287.76 179.23 302.60 194.06 316.89 C 216.45 338.22 240.70 357.54 262.42 379.57 C 265.92 383.59 272.86 387.01 277.05 382.02 C 293.36 367.00 309.07 351.31 326.21 337.22 C 337.29 327.01 348.59 317.02 359.14 306.25 C 375.06 290.38 389.44 271.86 395.80 249.97 C 398.31 237.22 399.27 223.96 397.31 211.06 C 395.23 196.74 387.10 184.04 377.08 173.91 C 364.78 161.56 347.61 153.14 329.89 154.29 C 320.00 154.54 310.18 157.41 301.95 162.94 C 288.92 171.41 279.41 184.10 271.19 197.06 C 260.80 180.59 247.80 163.92 228.83 157.14 C 214.83 152.38 199.03 153.45 185.65 159.69 Z" />
<path fill="#3f376a" opacity="1.00" d=" M 645.52 28.45 C 653.04 17.99 664.88 10.00 678.04 9.56 C 683.86 9.65 689.86 9.51 695.42 11.52 C 704.59 14.69 712.17 21.55 717.17 29.78 C 720.21 34.48 721.81 39.89 723.82 45.08 C 743.80 98.29 763.02 151.78 782.95 205.02 C 786.39 214.37 790.17 223.90 790.52 233.99 C 790.74 240.80 788.94 248.09 783.78 252.86 C 772.91 263.41 753.02 263.67 742.82 252.06 C 733.38 240.17 730.76 224.80 726.07 210.75 C 694.65 210.74 663.23 210.76 631.82 210.74 C 626.77 224.45 624.19 239.41 615.54 251.53 C 610.38 258.84 600.72 261.81 592.11 260.39 C 581.70 259.01 571.61 252.22 568.09 242.07 C 565.55 236.02 566.02 229.22 567.73 223.02 C 570.43 213.43 574.47 204.30 578.06 195.03 C 597.10 147.01 615.52 98.75 634.82 50.84 C 637.97 43.20 640.51 35.15 645.52 28.45 M 679.76 79.14 C 669.61 106.62 658.90 133.89 648.79 161.39 C 669.03 160.11 689.31 160.58 709.57 160.50 C 699.45 133.45 690.59 105.92 679.76 79.14 Z" />
<path fill="#3f376a" opacity="1.00" d=" M 1054.10 10.61 C 1095.40 9.87 1136.73 10.43 1178.05 10.24 C 1186.06 10.30 1195.11 10.81 1201.11 16.84 C 1210.85 26.75 1210.90 44.36 1201.67 54.62 C 1198.40 58.19 1193.80 60.35 1189.04 61.00 C 1175.38 63.30 1161.51 61.66 1147.75 62.00 C 1147.75 107.01 1147.75 152.02 1147.75 197.03 C 1147.62 208.29 1148.49 219.63 1146.87 230.82 C 1145.76 237.59 1143.65 244.68 1138.55 249.56 C 1130.94 256.51 1119.56 258.16 1109.87 255.27 C 1103.78 253.45 1098.16 249.41 1095.33 243.61 C 1091.52 235.98 1091.48 227.27 1091.41 218.95 C 1091.55 166.68 1091.54 114.36 1091.44 62.08 C 1076.24 61.36 1060.74 64.02 1045.81 60.15 C 1038.73 58.49 1033.34 52.49 1031.26 45.68 C 1028.25 35.82 1030.32 24.17 1037.58 16.64 C 1041.81 12.17 1048.06 10.36 1054.10 10.61 Z" />
<path fill="#3f376a" opacity="1.00" d=" M 1249.01 10.55 C 1291.99 10.23 1335.00 9.93 1377.98 10.63 C 1386.97 10.44 1394.85 16.94 1398.08 25.04 C 1402.86 36.42 1399.99 52.31 1388.43 58.45 C 1379.16 63.68 1368.16 61.56 1358.03 61.99 C 1346.35 62.53 1334.69 61.84 1323.01 62.00 C 1311.42 62.00 1299.83 61.99 1288.25 62.01 C 1288.25 76.83 1288.26 91.66 1288.24 106.49 C 1316.14 106.69 1344.06 105.56 1371.94 106.85 C 1383.27 107.51 1391.28 118.43 1392.31 129.09 C 1393.16 137.41 1390.82 146.68 1384.42 152.41 C 1379.90 156.33 1373.96 158.69 1367.94 158.51 C 1341.38 159.05 1314.81 158.60 1288.25 158.76 C 1288.25 173.92 1288.25 189.08 1288.25 204.24 C 1317.73 204.32 1347.20 204.06 1376.68 204.31 C 1384.40 204.68 1392.71 206.94 1397.86 213.09 C 1401.69 217.48 1402.38 223.54 1402.84 229.11 C 1403.38 237.47 1400.97 246.92 1393.63 251.80 C 1386.57 257.14 1377.26 255.97 1368.96 256.49 C 1338.64 255.99 1308.30 256.37 1277.97 256.24 C 1266.61 256.31 1255.07 257.16 1243.86 254.91 C 1240.69 254.37 1237.66 252.90 1235.91 250.11 C 1232.37 245.17 1232.18 238.83 1232.00 232.99 C 1231.99 173.31 1232.00 113.63 1232.00 53.95 C 1231.88 46.98 1232.43 40.03 1232.25 33.06 C 1232.37 29.14 1231.68 25.00 1233.28 21.27 C 1235.84 15.03 1242.35 10.91 1249.01 10.55 Z" />
<path fill="#3f376a" opacity="1.00" d=" M 1445.87 16.84 C 1457.73 5.76 1479.00 8.59 1488.13 21.83 C 1490.55 25.26 1491.85 29.37 1492.21 33.52 C 1494.54 56.34 1492.19 79.28 1493.33 102.13 C 1517.80 76.99 1542.63 52.21 1567.08 27.06 C 1572.59 21.44 1578.40 15.65 1585.96 12.92 C 1594.62 9.53 1604.93 11.97 1611.65 18.26 C 1617.15 23.20 1620.05 30.77 1619.75 38.11 C 1619.13 46.96 1613.98 54.76 1607.94 60.94 C 1583.71 84.35 1559.04 107.30 1534.12 129.98 C 1547.49 144.24 1562.01 157.35 1576.34 170.63 C 1589.82 182.82 1603.09 195.24 1616.27 207.76 C 1629.28 217.48 1630.31 238.69 1619.16 250.20 C 1613.14 256.31 1603.66 257.67 1595.61 255.65 C 1587.26 253.31 1580.87 247.08 1574.82 241.21 C 1547.75 213.98 1520.32 187.11 1493.25 159.88 C 1492.89 181.23 1493.62 202.59 1493.00 223.94 C 1493.44 234.39 1489.65 245.64 1481.00 252.02 C 1477.02 255.16 1471.82 255.91 1466.93 256.39 C 1459.07 257.02 1450.46 254.96 1445.02 248.92 C 1438.47 242.05 1436.96 232.09 1436.75 222.97 C 1436.74 163.31 1436.77 103.66 1436.74 44.00 C 1436.69 34.37 1438.70 23.82 1445.87 16.84 Z" />
<path fill="#3f376a" opacity="1.00" d=" M 1715.78 40.70 C 1721.94 25.52 1735.21 11.94 1752.05 9.84 C 1759.10 9.45 1766.49 9.27 1773.19 11.91 C 1784.36 16.14 1793.20 25.58 1797.50 36.64 C 1819.34 94.03 1840.01 151.86 1861.45 209.40 C 1864.30 218.05 1868.07 226.76 1867.78 236.05 C 1867.72 244.39 1862.86 252.46 1855.67 256.62 C 1846.96 261.76 1835.55 262.23 1826.60 257.42 C 1821.27 254.55 1817.58 249.50 1814.69 244.33 C 1809.00 233.92 1806.86 222.13 1803.18 210.98 C 1771.73 210.62 1740.28 210.79 1708.83 210.75 C 1704.61 222.00 1702.18 233.94 1696.67 244.69 C 1694.02 250.03 1690.53 255.39 1684.97 258.04 C 1670.58 265.14 1651.21 257.49 1645.22 242.69 C 1641.86 233.38 1643.96 223.15 1647.42 214.20 C 1670.37 156.43 1692.68 98.41 1715.78 40.70 M 1726.74 161.25 C 1746.59 161.25 1766.45 161.26 1786.30 161.24 C 1777.52 133.61 1766.35 106.80 1757.79 79.10 C 1746.22 106.00 1735.43 133.27 1726.74 161.25 Z" />
<path fill="#3f376a" opacity="1.00" d=" M 817.42 17.46 C 820.87 12.47 827.42 11.13 833.12 10.84 C 842.41 10.63 851.71 10.20 861.00 10.74 C 902.36 10.73 943.73 10.81 985.09 10.70 C 993.27 9.87 1001.18 12.58 1008.68 15.52 C 1010.17 23.28 1011.92 31.09 1011.76 39.03 C 1011.73 99.35 1011.76 159.67 1011.75 219.99 C 1011.46 229.71 1010.48 240.24 1004.15 248.10 C 999.43 254.14 991.39 256.30 984.04 256.53 C 975.13 256.83 965.40 253.27 960.65 245.34 C 955.68 237.90 955.48 228.61 955.49 219.98 C 955.65 167.66 955.20 115.32 955.75 63.01 C 945.83 62.86 935.91 62.73 925.99 62.49 C 907.40 62.37 888.83 62.92 870.25 62.76 C 870.21 89.51 870.67 116.25 870.51 143.00 C 869.70 169.65 870.87 196.30 870.43 222.95 C 870.16 231.25 869.22 240.15 864.04 246.99 C 859.28 253.59 850.91 256.44 843.03 256.49 C 835.53 256.33 827.14 254.95 822.16 248.75 C 813.75 238.94 813.82 225.22 814.00 213.03 C 813.99 154.02 814.02 95.02 813.99 36.02 C 814.05 29.73 814.31 23.09 817.42 17.46 Z" />
<path fill="#3f376a" opacity="1.00" d=" M 638.55 318.80 C 659.52 316.11 681.80 319.70 699.73 331.30 C 712.80 340.07 723.90 352.16 730.15 366.72 C 744.28 398.84 739.02 439.75 714.25 465.29 C 689.47 490.62 648.88 497.22 616.60 483.46 C 598.86 475.94 583.78 462.04 575.33 444.67 C 560.94 415.15 563.51 377.63 583.04 351.01 C 596.31 333.55 616.73 321.49 638.55 318.80 M 642.46 355.75 C 632.49 357.49 623.22 362.94 617.08 371.02 C 606.58 384.56 603.94 403.28 608.54 419.60 C 612.22 432.94 621.73 445.29 635.15 449.80 C 651.11 454.65 670.60 453.27 682.92 440.98 C 694.47 430.16 699.10 413.41 697.43 397.96 C 696.05 385.78 691.05 373.46 681.57 365.35 C 670.93 356.30 656.03 353.26 642.46 355.75 Z" />
<path fill="#3f376a" opacity="1.00" d=" M 944.33 332.33 C 959.33 321.19 978.60 316.98 997.03 318.16 C 1009.31 318.78 1021.55 322.32 1031.83 329.17 C 1038.34 333.53 1043.54 340.95 1042.76 349.09 C 1042.21 357.78 1034.79 364.20 1027.24 367.36 C 1017.84 362.94 1008.54 357.96 998.31 355.77 C 984.94 352.87 970.20 357.85 961.28 368.20 C 952.61 378.28 948.84 391.85 948.97 404.98 C 949.13 415.81 951.74 426.96 958.23 435.81 C 964.82 445.10 975.33 452.22 986.97 452.56 C 991.04 452.50 995.18 453.09 999.19 452.15 C 1008.64 450.24 1016.63 444.13 1026.12 442.35 C 1031.50 441.65 1036.77 444.95 1039.53 449.45 C 1043.41 455.86 1043.78 464.42 1040.11 471.00 C 1037.80 475.34 1033.35 477.83 1029.37 480.41 C 998.70 498.59 955.66 491.61 932.09 464.91 C 911.88 442.25 905.92 409.15 913.07 380.08 C 917.64 361.24 928.49 343.72 944.33 332.33 Z" />
<path fill="#3f376a" opacity="1.00" d=" M 781.08 321.73 C 791.38 321.07 801.69 321.96 812.00 321.75 C 821.04 321.61 830.08 322.12 839.13 322.03 C 844.80 321.89 849.95 325.82 851.99 331.01 C 854.82 337.95 854.11 347.09 848.28 352.32 C 845.61 354.97 841.68 355.25 838.16 355.75 C 829.80 356.84 821.39 355.81 813.00 356.01 C 812.77 370.66 812.49 385.33 813.01 399.98 C 812.95 423.33 813.24 446.68 812.41 470.01 C 812.15 475.16 809.23 479.98 805.02 482.90 C 797.68 488.51 786.46 487.53 780.11 480.89 C 776.37 476.52 775.74 470.50 775.51 464.98 C 775.47 428.73 775.52 392.49 775.49 356.24 C 765.06 356.02 754.47 357.00 744.18 354.85 C 736.37 352.56 733.07 343.35 734.25 335.92 C 734.99 329.38 739.82 322.74 746.81 322.31 C 758.22 321.76 769.65 321.73 781.08 321.73 Z" />
<path fill="#3f376a" opacity="1.00" d=" M 1258.63 335.87 C 1261.48 329.62 1266.10 323.20 1273.13 321.48 C 1278.51 320.77 1284.57 321.47 1288.77 325.24 C 1294.27 330.09 1296.66 337.26 1299.42 343.82 C 1313.30 376.81 1327.55 409.65 1341.52 442.60 C 1344.11 449.21 1347.49 455.56 1349.31 462.45 C 1350.64 468.88 1350.71 476.66 1345.69 481.59 C 1342.05 484.53 1337.77 487.15 1332.98 487.36 C 1325.85 487.87 1318.64 483.69 1315.70 477.15 C 1301.71 446.87 1291.19 415.11 1276.79 385.01 C 1264.60 415.06 1253.00 445.37 1240.23 475.19 C 1238.17 480.41 1233.79 484.66 1228.46 486.46 C 1218.44 490.16 1205.66 482.73 1204.69 471.91 C 1203.81 465.80 1205.76 459.75 1208.33 454.28 C 1224.93 414.74 1242.02 375.41 1258.63 335.87 Z" />
<path fill="#3f376a" opacity="1.00" d=" M 1412.21 336.14 C 1419.90 323.88 1436.89 316.95 1450.39 323.65 C 1460.08 328.18 1464.28 338.81 1467.81 348.19 C 1480.63 383.59 1493.80 418.86 1506.85 454.18 C 1509.49 462.01 1512.65 470.82 1509.15 478.90 C 1503.76 489.91 1486.42 491.66 1478.74 482.23 C 1472.61 474.34 1470.81 464.26 1467.67 455.01 C 1446.87 454.99 1426.08 455.00 1405.29 455.01 C 1401.61 464.99 1399.78 476.26 1392.32 484.32 C 1381.99 493.67 1363.02 485.48 1361.51 471.98 C 1360.94 463.71 1364.78 456.12 1367.58 448.58 C 1381.00 415.20 1393.92 381.62 1407.14 348.16 C 1408.67 344.09 1409.74 339.79 1412.21 336.14 M 1416.42 422.00 C 1429.94 422.00 1443.47 422.00 1456.99 422.00 C 1450.47 404.41 1444.26 386.71 1438.02 369.03 C 1428.39 385.63 1423.98 404.49 1416.42 422.00 Z" />
<path fill="#3f376a" opacity="1.00" d=" M 1607.02 323.01 C 1612.91 320.13 1620.68 320.84 1625.63 325.31 C 1630.26 329.35 1633.01 335.02 1635.41 340.57 C 1649.26 373.11 1663.09 405.65 1677.04 438.13 C 1679.00 442.15 1680.17 446.63 1682.65 450.36 C 1690.16 450.88 1698.32 450.90 1704.78 455.34 C 1708.63 457.91 1710.05 462.59 1710.69 466.95 C 1712.13 475.02 1707.27 483.60 1699.73 486.72 C 1696.38 488.30 1692.61 488.01 1689.03 488.01 C 1642.03 488.53 1595.01 488.11 1548.01 488.26 C 1540.71 488.09 1532.73 488.70 1526.26 484.74 C 1517.35 478.71 1517.11 465.12 1522.85 456.84 C 1529.38 450.64 1539.06 451.27 1547.39 450.30 C 1563.19 413.17 1579.00 376.04 1594.84 338.92 C 1597.58 332.81 1601.02 326.46 1607.02 323.01 M 1614.68 384.47 C 1605.42 406.46 1596.83 428.72 1587.66 450.74 C 1592.75 450.78 1597.85 450.70 1602.95 450.77 C 1615.95 451.45 1628.96 450.47 1641.97 450.76 C 1632.74 428.72 1623.87 406.53 1614.68 384.47 Z" />
<path fill="#3f376a" opacity="1.00" d=" M 1773.26 330.22 C 1781.73 321.21 1796.09 318.80 1807.30 323.76 C 1812.83 326.17 1817.40 330.72 1819.60 336.38 C 1835.22 376.22 1850.07 416.36 1864.14 456.77 C 1865.86 462.71 1869.64 468.71 1867.67 475.08 C 1864.44 486.89 1847.94 492.99 1838.36 484.83 C 1829.73 477.41 1828.25 465.47 1824.51 455.37 C 1818.49 454.48 1812.11 455.26 1805.97 455.00 C 1791.32 455.00 1776.68 455.01 1762.04 454.99 C 1758.32 464.68 1756.96 475.82 1749.55 483.63 C 1743.95 490.12 1733.64 489.25 1726.94 485.03 C 1719.61 480.44 1716.36 470.70 1719.32 462.59 C 1724.96 446.23 1731.91 430.37 1738.04 414.19 C 1747.17 390.67 1756.21 367.10 1765.96 343.83 C 1768.01 339.12 1769.60 334.02 1773.26 330.22 M 1793.88 368.42 C 1786.54 386.12 1780.15 404.20 1773.19 422.05 C 1786.73 421.93 1800.27 422.04 1813.81 421.99 C 1806.96 404.21 1801.41 385.93 1793.88 368.42 Z" />
<path fill="#3f376a" opacity="1.00" d=" M 1069.60 327.65 C 1076.86 318.48 1093.42 319.54 1099.60 329.45 C 1101.81 333.08 1101.75 337.47 1102.22 341.55 C 1103.39 354.83 1101.92 368.15 1102.70 381.45 C 1122.25 364.45 1138.71 344.26 1158.04 327.02 C 1163.02 322.62 1170.48 321.19 1176.71 323.52 C 1184.45 326.81 1188.68 336.08 1186.05 344.10 C 1184.65 351.04 1179.19 355.79 1174.19 360.29 C 1159.44 374.12 1144.65 387.90 1129.85 401.69 C 1145.10 415.91 1160.34 430.14 1175.52 444.43 C 1180.97 449.66 1186.91 454.66 1190.67 461.33 C 1193.62 466.39 1192.87 472.92 1189.81 477.76 C 1186.22 482.78 1180.11 484.84 1174.75 487.38 C 1168.79 484.22 1162.81 480.90 1157.89 476.22 C 1139.40 458.00 1121.37 439.30 1102.54 421.44 C 1101.48 438.60 1104.52 455.97 1101.07 472.99 C 1100.32 477.94 1096.64 482.17 1092.05 484.00 C 1084.89 486.88 1076.80 485.25 1070.08 481.97 C 1067.94 475.83 1065.28 469.64 1065.24 463.03 C 1065.26 425.02 1065.25 387.00 1065.24 348.99 C 1065.18 341.75 1065.09 333.74 1069.60 327.65 Z" />
</g>
<g id="#f56185ff">
<path fill="#f56185" opacity="1.00" d=" M 185.65 159.69 C 199.03 153.45 214.83 152.38 228.83 157.14 C 247.80 163.92 260.80 180.59 271.19 197.06 C 279.41 184.10 288.92 171.41 301.95 162.94 C 310.18 157.41 320.00 154.54 329.89 154.29 C 347.61 153.14 364.78 161.56 377.08 173.91 C 387.10 184.04 395.23 196.74 397.31 211.06 C 399.27 223.96 398.31 237.22 395.80 249.97 C 389.44 271.86 375.06 290.38 359.14 306.25 C 348.59 317.02 337.29 327.01 326.21 337.22 C 309.07 351.31 293.36 367.00 277.05 382.02 C 272.86 387.01 265.92 383.59 262.42 379.57 C 240.70 357.54 216.45 338.22 194.06 316.89 C 179.23 302.60 164.30 287.76 154.67 269.30 C 148.88 258.41 144.78 246.44 144.05 234.07 C 143.94 224.53 143.49 214.78 146.34 205.54 C 151.99 185.54 166.75 168.33 185.65 159.69 Z" />
<path fill="#f56185" opacity="1.00" d=" M 629.20 386.26 C 635.34 380.57 645.08 382.50 651.08 387.42 C 655.84 383.97 662.01 381.72 667.88 383.35 C 673.05 384.59 677.11 389.58 677.02 394.95 C 677.20 400.05 675.21 404.99 672.15 409.00 C 666.19 416.70 657.87 422.02 651.11 428.94 C 643.65 421.01 633.70 415.35 628.13 405.75 C 624.73 399.84 623.63 391.25 629.20 386.26 Z" />
</g>
</svg>
