<?xml version="1.0" encoding="UTF-8" ?>
<!DOCTYPE svg PUBLIC "-//W3C//DTD SVG 1.1//EN" "http://www.w3.org/Graphics/SVG/1.1/DTD/svg11.dtd">
<svg width="858pt" height="204pt" viewBox="0 0 858 204" version="1.1" xmlns="http://www.w3.org/2000/svg">
<g id="#2ad1c5ff">
<path fill="#2ad1c5" opacity="1.00" d=" M 20.97 39.00 C 36.88 18.40 61.10 4.37 86.95 1.13 C 108.44 -1.74 130.84 2.60 149.66 13.37 C 170.03 24.88 186.08 43.77 194.10 65.76 C 201.90 87.15 202.09 111.27 194.62 132.78 C 186.71 156.15 169.65 176.19 148.04 188.04 C 132.27 196.81 114.05 201.04 96.03 200.27 C 69.38 199.48 43.47 187.11 25.69 167.32 C 10.73 150.94 1.72 129.46 0.00 107.38 L 0.00 93.60 C 1.45 73.86 8.71 54.58 20.97 39.00 M 99.30 21.34 C 75.07 21.40 51.32 33.43 36.86 52.85 C 24.66 68.90 19.02 89.74 21.52 109.74 C 23.33 125.24 29.95 140.11 40.15 151.89 C 50.59 164.01 64.78 172.87 80.28 176.82 C 99.64 181.87 120.89 179.15 138.34 169.35 C 151.91 161.78 163.23 150.17 170.26 136.31 C 179.95 117.58 181.75 94.86 174.85 74.92 C 169.92 60.26 160.41 47.22 148.15 37.82 C 134.29 27.11 116.82 21.20 99.30 21.34 Z" />
<path fill="#2ad1c5" opacity="1.00" d=" M 240.25 15.25 C 262.65 15.24 285.05 15.29 307.45 15.22 C 307.55 40.15 307.49 65.07 307.48 90.00 C 300.48 89.98 293.47 90.04 286.47 89.96 C 286.54 71.15 286.50 52.33 286.48 33.51 C 278.06 33.51 269.64 33.45 261.22 33.54 C 261.28 52.36 261.24 71.18 261.24 90.00 C 254.24 89.99 247.24 90.02 240.23 89.98 C 240.27 65.07 240.25 40.16 240.25 15.25 Z" />
<path fill="#2ad1c5" opacity="1.00" d=" M 330.25 15.25 C 349.49 15.25 368.74 15.27 387.98 15.23 C 388.02 40.16 387.99 65.08 388.00 90.00 C 380.92 90.00 373.84 90.00 366.76 90.00 C 366.76 71.18 366.72 52.36 366.78 33.54 C 361.02 33.46 355.27 33.50 349.51 33.52 C 349.65 46.67 349.12 59.99 345.66 72.76 C 343.74 79.50 340.08 86.46 333.64 89.80 C 326.77 92.11 319.14 91.66 312.24 89.71 C 312.64 84.50 313.05 79.29 313.44 74.08 C 316.59 73.86 320.00 74.49 322.95 73.08 C 326.79 70.39 327.40 65.25 328.16 60.98 C 330.16 45.83 330.35 30.51 330.25 15.25 Z" />
<path fill="#2ad1c5" opacity="1.00" d=" M 426.28 14.81 C 433.04 14.09 439.92 14.65 446.72 14.56 C 457.15 39.75 467.85 64.81 478.32 89.98 C 470.86 90.03 463.40 89.98 455.95 90.00 C 454.13 85.73 452.52 81.37 450.64 77.12 C 441.19 76.24 431.56 76.99 422.05 76.76 C 420.27 81.16 418.39 85.51 416.73 89.95 C 409.38 90.05 402.03 90.00 394.68 89.98 C 405.18 64.91 415.65 39.82 426.28 14.81 M 428.34 60.77 C 433.78 60.74 439.22 60.74 444.66 60.77 C 441.96 53.93 439.28 47.07 436.57 40.23 C 433.59 46.98 431.10 53.93 428.34 60.77 Z" />
<path fill="#2ad1c5" opacity="1.00" d=" M 485.55 15.22 C 492.51 15.27 499.48 15.27 506.46 15.23 C 506.54 24.55 506.51 33.88 506.47 43.21 C 515.31 43.30 524.16 43.24 533.00 43.24 C 533.01 33.91 532.98 24.57 533.02 15.23 C 540.00 15.26 546.99 15.26 553.98 15.23 C 554.02 40.16 553.99 65.08 554.00 90.00 C 547.00 90.00 540.00 90.00 533.00 90.00 C 533.00 80.58 533.00 71.17 533.00 61.76 C 524.16 61.76 515.31 61.70 506.47 61.79 C 506.52 71.19 506.50 80.60 506.48 90.00 C 499.49 90.00 492.50 90.00 485.52 90.00 C 485.51 65.07 485.45 40.15 485.55 15.22 Z" />
<path fill="#2ad1c5" opacity="1.00" d=" M 567.25 15.25 C 587.32 15.24 607.39 15.29 627.46 15.23 C 627.53 21.15 627.50 27.07 627.48 33.00 C 614.24 33.00 601.00 33.00 587.75 33.00 C 587.74 36.84 587.72 40.68 587.79 44.53 C 599.79 44.49 611.78 44.46 623.77 44.54 C 623.73 50.02 623.74 55.50 623.77 60.98 C 611.76 61.02 599.76 60.99 587.76 61.00 C 587.74 64.74 587.73 68.49 587.77 72.23 C 601.09 72.27 614.42 72.25 627.75 72.25 C 627.75 78.16 627.73 84.07 627.77 89.98 C 607.58 90.02 587.39 90.00 567.21 89.99 C 567.31 65.08 567.23 40.16 567.25 15.25 Z" />
<path fill="#2ad1c5" opacity="1.00" d=" M 634.25 15.25 C 656.08 15.26 677.92 15.26 699.75 15.25 C 699.74 21.34 699.75 27.43 699.74 33.53 C 692.23 33.49 684.73 33.46 677.22 33.54 C 677.28 52.36 677.24 71.18 677.24 90.00 C 670.39 90.00 663.53 90.00 656.68 90.00 C 656.85 71.18 656.67 52.36 656.78 33.54 C 649.27 33.46 641.76 33.49 634.26 33.53 C 634.24 27.43 634.26 21.34 634.25 15.25 Z" />
<path fill="#2ad1c5" opacity="1.00" d=" M 694.93 90.00 C 705.55 64.84 716.04 39.62 726.70 14.48 C 733.45 14.53 740.20 14.48 746.95 14.51 C 757.48 39.68 768.13 64.79 778.60 89.98 C 771.13 90.02 763.65 90.01 756.18 89.98 C 754.46 85.56 752.62 81.17 750.87 76.76 C 741.33 76.76 731.78 76.70 722.24 76.79 C 720.55 81.22 718.76 85.62 716.94 90.00 C 709.60 90.00 702.26 90.00 694.93 90.00 M 728.71 60.74 C 734.11 60.77 739.52 60.73 744.93 60.77 C 742.21 53.95 739.73 47.03 736.78 40.30 C 733.89 47.03 731.36 53.91 728.71 60.74 Z" />
<path fill="#2ad1c5" opacity="1.00" d=" M 75.51 65.54 C 82.41 58.34 89.48 51.29 96.67 44.36 C 96.84 53.95 96.72 63.54 96.73 73.13 C 89.14 72.45 81.83 69.77 75.51 65.54 Z" />
<path fill="#2ad1c5" opacity="1.00" d=" M 103.60 44.43 C 110.83 51.25 117.70 58.44 124.77 65.43 C 118.46 69.73 111.06 72.09 103.54 73.12 C 103.50 63.56 103.40 53.99 103.60 44.43 Z" />
<path fill="#2ad1c5" opacity="1.00" d=" M 55.34 85.34 C 60.62 80.44 65.57 75.19 70.74 70.17 C 78.38 75.65 87.43 78.94 96.76 79.91 C 96.74 84.42 96.73 88.94 96.78 93.45 C 80.94 93.49 65.11 93.61 49.28 93.39 C 50.92 90.45 52.83 87.62 55.34 85.34 Z" />
<path fill="#2ad1c5" opacity="1.00" d=" M 103.56 80.26 C 113.04 79.56 121.75 75.50 129.83 70.78 C 132.19 72.88 134.31 75.23 136.56 77.44 C 141.55 82.57 147.24 87.24 150.59 93.69 C 134.91 93.83 119.23 93.68 103.55 93.78 C 103.48 89.27 103.46 84.77 103.56 80.26 Z" />
<path fill="#2ad1c5" opacity="1.00" d=" M 104.02 100.23 C 120.51 100.29 137.01 100.22 153.51 100.27 C 156.39 112.70 151.20 126.47 140.43 133.45 C 132.31 121.31 118.60 113.18 104.01 112.10 C 104.00 108.14 103.99 104.19 104.02 100.23 Z" />
<path fill="#2ad1c5" opacity="1.00" d=" M 46.82 100.76 C 63.47 100.76 80.12 100.73 96.76 100.77 C 96.74 104.67 96.75 108.56 96.75 112.46 C 82.01 113.27 68.40 121.75 60.25 133.91 C 53.44 129.08 48.12 121.90 46.63 113.58 C 45.75 109.34 46.13 104.99 46.82 100.76 Z" />
<path fill="#2ad1c5" opacity="1.00" d=" M 237.16 119.89 C 244.54 112.54 254.43 107.48 264.94 107.00 C 273.81 106.42 283.29 107.99 290.46 113.58 C 297.45 118.76 299.00 129.34 294.77 136.72 C 292.98 139.91 289.70 141.75 286.74 143.69 C 292.03 145.83 296.69 149.83 298.50 155.38 C 300.43 162.37 298.43 170.24 293.66 175.65 C 287.68 182.10 278.62 184.81 270.00 184.54 C 264.29 184.91 258.83 183.12 253.35 181.85 C 246.49 180.00 240.20 176.36 235.09 171.43 C 238.81 166.90 242.37 162.25 246.05 157.68 C 253.44 164.53 264.35 168.38 274.25 165.34 C 278.59 164.03 280.24 157.33 276.04 154.82 C 270.73 151.80 264.32 153.39 258.52 153.00 C 258.50 147.74 258.47 142.48 258.55 137.22 C 262.86 137.18 267.27 137.64 271.51 136.62 C 274.59 135.78 277.60 132.82 276.67 129.38 C 275.66 126.20 271.97 125.12 269.01 124.71 C 261.22 123.83 253.89 127.72 247.73 132.08 C 244.16 128.06 240.69 123.95 237.16 119.89 Z" />
<path fill="#2ad1c5" opacity="1.00" d=" M 418.43 107.70 C 430.78 104.68 444.67 107.36 454.67 115.32 C 470.68 127.46 473.63 152.66 461.70 168.62 C 451.39 182.24 432.26 187.60 416.07 182.94 C 406.29 180.09 397.43 173.28 393.00 164.00 C 387.60 153.64 387.02 140.93 391.18 130.05 C 395.68 118.55 406.68 110.59 418.43 107.70 M 423.33 126.27 C 417.74 128.02 412.99 132.53 411.38 138.21 C 409.23 145.84 410.52 154.90 416.43 160.56 C 424.48 168.81 440.01 166.53 445.51 156.45 C 449.89 147.97 448.79 136.13 441.12 129.88 C 436.32 125.70 429.37 124.36 423.33 126.27 Z" />
<path fill="#2ad1c5" opacity="1.00" d=" M 579.38 107.65 C 591.97 104.63 606.12 107.53 616.12 115.87 C 631.55 128.18 634.22 152.80 622.53 168.54 C 610.88 183.99 587.86 189.02 570.65 180.33 C 553.22 172.59 544.50 150.62 550.98 132.86 C 554.70 119.89 566.60 110.71 579.38 107.65 M 582.50 126.65 C 569.20 131.54 566.93 150.99 576.65 160.36 C 584.48 168.83 600.07 166.64 605.72 156.72 C 609.21 150.18 609.35 141.81 605.90 135.23 C 601.59 127.09 591.06 123.17 582.50 126.65 Z" />
<path fill="#2ad1c5" opacity="1.00" d=" M 317.23 108.02 C 336.31 107.97 355.40 108.01 374.48 108.00 C 374.50 127.07 374.52 146.14 374.47 165.21 C 377.28 165.26 380.10 165.26 382.91 165.24 C 382.09 176.23 381.18 187.21 380.45 198.21 C 374.56 198.28 368.66 198.25 362.77 198.23 C 362.73 193.23 362.75 188.24 362.76 183.25 C 349.61 183.24 336.47 183.28 323.32 183.22 C 322.96 188.22 322.46 193.21 322.12 198.22 C 315.67 198.28 309.22 198.25 302.77 198.23 C 302.74 187.08 302.74 175.94 302.77 164.79 C 305.01 164.76 307.26 164.74 309.50 164.68 C 312.86 155.78 315.14 146.46 316.07 136.99 C 316.69 127.34 317.56 117.70 317.23 108.02 M 337.48 126.26 C 337.86 134.66 336.56 143.00 335.43 151.30 C 334.82 155.74 333.28 159.97 331.91 164.22 C 339.10 164.28 346.29 164.25 353.48 164.25 C 353.50 151.57 353.54 138.90 353.46 126.22 C 348.13 126.27 342.80 126.24 337.48 126.26 Z" />
<path fill="#2ad1c5" opacity="1.00" d=" M 715.76 108.00 C 722.84 108.00 729.92 108.00 737.00 108.00 C 737.01 115.92 736.98 123.85 737.02 131.77 C 747.79 131.70 759.45 131.04 768.98 136.98 C 775.92 141.03 779.98 149.03 779.79 156.98 C 779.88 164.87 777.03 173.66 769.97 177.96 C 764.66 181.45 758.33 183.28 751.98 183.25 C 739.91 183.24 727.84 183.27 715.77 183.23 C 715.73 158.15 715.75 133.08 715.76 108.00 M 737.77 148.24 C 737.73 153.99 737.74 159.73 737.76 165.48 C 743.08 165.25 748.56 166.14 753.79 164.88 C 759.65 163.20 761.16 154.29 756.23 150.78 C 750.84 146.97 743.91 148.60 737.77 148.24 Z" />
<path fill="#2ad1c5" opacity="1.00" d=" M 790.86 119.96 C 797.13 110.56 809.37 108.02 819.97 108.02 C 831.31 107.97 842.65 108.02 854.00 108.00 C 854.00 133.08 854.00 158.16 854.00 183.24 C 847.00 183.25 840.00 183.25 833.00 183.24 C 833.00 175.75 833.00 168.25 833.00 160.76 C 829.99 160.74 826.99 160.74 823.99 160.75 C 819.00 168.25 814.00 175.74 809.01 183.24 C 800.97 183.24 792.93 183.29 784.89 183.22 C 790.56 174.39 796.52 165.74 802.10 156.85 C 797.99 154.09 793.35 151.67 790.73 147.27 C 785.86 139.06 785.72 128.09 790.86 119.96 M 808.96 134.97 C 808.66 139.89 813.10 144.08 817.89 144.16 C 823.01 143.98 828.12 143.97 833.24 144.00 C 833.26 137.84 833.25 131.68 833.25 125.52 C 827.83 125.61 822.39 125.22 816.99 125.71 C 812.48 126.23 808.65 130.33 808.96 134.97 Z" />
<path fill="#2ad1c5" opacity="1.00" d=" M 479.76 109.00 C 491.53 109.02 503.30 108.97 515.07 109.02 C 522.85 109.40 531.26 111.35 536.70 117.33 C 542.25 122.99 543.91 131.40 543.05 139.06 C 542.22 147.54 536.63 155.41 528.68 158.65 C 520.00 162.97 510.12 161.90 500.76 162.00 C 500.74 169.08 500.73 176.15 500.76 183.23 C 493.76 183.26 486.77 183.26 479.77 183.23 C 479.73 158.49 479.75 133.74 479.76 109.00 M 500.77 125.77 C 500.73 132.34 500.75 138.91 500.75 145.48 C 504.83 145.43 508.93 145.71 513.00 145.35 C 516.38 144.71 520.33 143.03 521.21 139.33 C 522.42 135.45 521.81 130.21 518.00 127.98 C 512.87 124.75 506.50 125.98 500.77 125.77 Z" />
<path fill="#2ad1c5" opacity="1.00" d=" M 641.22 108.55 C 654.47 108.46 667.72 108.50 680.98 108.51 C 687.57 108.51 694.44 110.09 699.53 114.50 C 704.85 119.54 706.15 127.89 703.50 134.58 C 701.67 138.96 697.95 142.12 693.99 144.54 C 699.63 146.30 705.09 150.13 706.93 155.98 C 708.77 162.66 707.86 170.68 702.71 175.70 C 697.40 181.25 689.39 182.94 682.00 183.23 C 668.41 183.29 654.82 183.22 641.23 183.26 C 641.26 158.35 641.28 133.45 641.22 108.55 M 660.76 125.00 C 660.74 129.26 660.74 133.51 660.77 137.76 C 667.25 137.27 674.19 138.95 680.35 136.35 C 684.90 134.37 683.95 127.10 679.33 125.82 C 673.29 124.21 666.93 125.32 660.76 125.00 M 660.76 153.00 C 660.74 157.49 660.74 161.99 660.76 166.48 C 667.72 166.23 674.82 167.20 681.69 165.75 C 686.18 164.78 687.80 158.54 684.69 155.32 C 682.32 153.33 679.03 153.00 676.06 152.98 C 670.96 152.98 665.85 153.01 660.76 153.00 Z" />
<path fill="#2ad1c5" opacity="1.00" d=" M 66.30 137.12 C 73.15 127.01 84.62 120.60 96.67 119.22 C 96.79 123.40 96.73 127.58 96.77 131.76 C 98.92 131.75 101.07 131.75 103.23 131.76 C 103.27 127.59 103.19 123.42 103.35 119.25 C 115.24 120.62 127.19 126.65 133.41 137.19 C 123.82 140.47 113.03 138.32 104.78 132.66 C 104.73 142.60 104.73 152.53 104.77 162.46 C 101.85 162.51 98.92 162.50 96.00 162.49 C 96.00 152.52 96.00 142.55 96.00 132.58 C 87.51 138.71 76.23 140.49 66.30 137.12 Z" />
</g>
</svg>
