<?xml version="1.0" encoding="UTF-8" ?>
<!DOCTYPE svg PUBLIC "-//W3C//DTD SVG 1.1//EN" "http://www.w3.org/Graphics/SVG/1.1/DTD/svg11.dtd">
<svg width="4450pt" height="1450pt" viewBox="0 0 4450 1450" version="1.1" xmlns="http://www.w3.org/2000/svg">
<g id="#fffffffe">
<path fill="#ffffff" opacity="1.00" d=" M 1906.25 20.75 C 1922.33 20.75 1938.41 20.75 1954.50 20.75 C 1954.50 71.58 1954.50 122.42 1954.50 173.25 C 1938.41 173.25 1922.33 173.25 1906.25 173.25 C 1906.25 155.58 1906.25 137.92 1906.25 120.25 C 1880.14 120.68 1853.72 118.69 1827.97 124.03 C 1791.70 131.27 1757.58 149.26 1731.42 175.44 C 1702.36 203.88 1683.22 242.05 1677.09 282.19 C 1670.08 327.97 1680.77 376.11 1706.12 414.83 C 1724.44 442.46 1749.86 465.45 1779.56 480.29 C 1799.90 490.55 1822.09 497.19 1844.76 499.57 C 1856.47 500.77 1868.26 500.81 1880.04 500.75 C 1888.78 500.93 1897.52 500.06 1906.26 500.77 C 1906.23 482.51 1906.26 464.26 1906.25 446.00 C 1922.34 446.03 1938.44 445.93 1954.54 446.05 C 1954.45 496.87 1954.53 547.69 1954.50 598.50 C 1938.41 598.49 1922.32 598.52 1906.24 598.48 C 1906.27 580.32 1906.24 562.16 1906.25 544.00 C 1882.79 543.80 1859.23 544.80 1835.87 542.08 C 1794.01 536.75 1753.81 519.58 1720.91 493.18 C 1690.12 468.75 1665.65 436.38 1650.88 399.94 C 1632.69 355.94 1628.61 306.31 1639.13 259.89 C 1648.07 220.23 1667.68 183.05 1695.27 153.20 C 1735.21 109.82 1792.21 82.76 1851.05 79.15 C 1858.47 76.98 1866.31 77.55 1873.96 77.04 C 1884.72 76.94 1895.48 77.03 1906.25 77.00 C 1906.25 58.25 1906.25 39.50 1906.25 20.75 Z" />
<path fill="#ffffff" opacity="1.00" d=" M 1967.50 173.25 C 1967.49 122.42 1967.49 71.58 1967.50 20.75 C 1984.08 20.75 2000.66 20.75 2017.25 20.75 C 2017.25 71.58 2017.25 122.42 2017.25 173.25 C 2000.66 173.25 1984.08 173.25 1967.50 173.25 Z" />
<path fill="#ffffff" opacity="1.00" d=" M 716.25 96.33 C 853.05 93.08 990.92 132.70 1104.00 210.03 C 1122.63 222.79 1140.58 236.54 1157.69 251.28 C 1170.83 262.44 1183.06 274.61 1195.77 286.25 C 1254.86 342.13 1302.20 410.09 1335.85 484.05 C 1374.34 568.56 1395.16 661.09 1396.41 753.96 C 1397.86 889.68 1358.42 1026.31 1281.30 1138.36 C 1259.98 1170.05 1236.18 1200.11 1209.58 1227.55 C 1154.94 1284.25 1089.89 1330.80 1018.91 1364.84 C 937.91 1403.70 848.88 1426.30 758.99 1428.75 C 744.00 1429.42 729.00 1428.61 714.01 1428.76 C 585.09 1426.08 457.46 1383.14 352.73 1308.01 C 323.61 1287.33 296.74 1263.68 271.23 1238.73 C 210.53 1179.06 161.51 1107.58 127.48 1029.57 C 95.35 956.04 76.59 876.50 74.13 796.23 C 73.68 781.84 73.82 767.44 73.49 753.05 C 73.45 608.36 124.90 464.85 214.40 351.44 C 231.76 329.29 249.93 307.71 269.96 287.91 C 349.26 208.49 449.93 151.31 557.78 120.89 C 609.37 106.46 662.66 97.61 716.25 96.33 M 488.56 185.57 C 392.20 227.69 306.21 293.48 240.89 375.94 C 233.75 385.14 226.43 394.26 220.24 404.15 C 201.94 432.34 185.48 461.72 171.10 492.10 C 133.13 572.40 109.88 660.75 111.25 749.95 C 111.42 760.96 110.83 771.96 111.00 782.97 C 111.45 847.34 123.42 911.47 144.88 972.10 C 175.73 1059.27 225.94 1139.39 290.19 1205.82 C 360.65 1276.30 447.68 1329.37 541.17 1363.36 C 547.06 1298.76 567.73 1235.31 602.73 1180.58 C 625.10 1145.45 653.33 1114.01 686.16 1088.36 C 690.13 1085.47 693.69 1081.75 698.56 1080.41 C 730.32 1068.68 764.84 1067.39 798.26 1070.23 C 834.03 1073.19 869.32 1080.24 905.10 1083.17 C 919.01 1084.10 932.97 1080.06 944.78 1072.79 C 960.25 1063.33 972.45 1049.32 981.96 1034.04 C 985.35 1028.19 989.27 1022.46 990.81 1015.79 C 996.27 996.65 995.97 976.22 991.59 956.90 C 986.75 935.03 977.50 914.45 967.39 894.58 C 957.46 876.02 947.98 857.18 936.68 839.40 C 926.52 822.81 916.33 806.22 906.30 789.54 C 856.87 707.51 809.98 623.15 778.31 532.46 C 765.86 495.94 754.52 458.92 747.55 420.92 C 729.52 326.01 732.35 228.19 747.08 133.04 C 658.44 131.20 569.70 150.08 488.56 185.57 M 761.93 133.66 C 772.55 242.21 788.78 350.87 821.62 455.15 C 839.98 513.36 863.64 570.03 894.04 623.01 C 914.54 658.98 938.84 692.54 962.31 726.58 C 986.28 761.23 1009.80 796.40 1028.60 834.20 C 1048.27 873.73 1062.21 916.70 1064.48 961.02 C 1064.78 970.67 1065.83 980.33 1065.25 989.99 C 1064.44 1012.67 1059.10 1035.18 1049.65 1055.82 C 1035.41 1087.10 1010.46 1114.22 978.46 1127.64 C 968.75 1131.32 959.32 1135.95 949.03 1137.86 C 925.83 1142.58 902.03 1138.92 879.02 1134.88 C 855.04 1130.75 830.53 1125.91 806.16 1129.64 C 787.34 1133.13 768.55 1137.45 750.84 1144.87 C 730.68 1153.03 711.78 1164.14 694.44 1177.23 C 663.37 1200.86 637.36 1230.61 615.58 1262.87 C 593.16 1295.96 575.04 1331.79 559.70 1368.64 C 686.39 1405.02 824.30 1398.79 948.04 1353.92 C 1026.46 1325.54 1099.43 1281.47 1159.70 1223.68 C 1173.73 1210.04 1187.72 1196.32 1200.73 1181.69 C 1213.48 1167.41 1225.55 1152.52 1236.85 1137.06 C 1344.71 989.81 1384.62 794.68 1342.12 617.05 C 1328.62 556.99 1304.85 499.40 1273.38 446.54 C 1232.29 377.49 1178.51 316.36 1117.15 264.64 C 1111.31 259.88 1105.74 254.76 1099.42 250.63 C 1064.82 227.26 1028.24 206.80 990.10 189.78 C 918.22 157.69 840.63 137.84 761.93 133.66 Z" />
<path fill="#ffffff" opacity="1.00" d=" M 3747.54 187.81 C 3790.56 183.08 3835.79 192.48 3871.45 217.58 C 3903.20 239.64 3926.14 273.61 3935.52 311.05 C 3947.16 356.45 3941.47 406.75 3917.34 447.22 C 3899.51 477.56 3871.22 501.42 3838.57 514.45 C 3796.70 531.11 3748.70 531.96 3706.25 516.83 C 3671.76 504.68 3641.64 480.56 3622.48 449.38 C 3600.36 413.42 3592.80 369.32 3599.54 327.81 C 3605.25 290.02 3624.04 254.06 3652.92 228.84 C 3679.00 205.45 3712.92 191.77 3747.54 187.81 M 3748.59 220.78 C 3718.99 224.61 3690.54 238.18 3669.70 259.66 C 3655.60 273.89 3645.10 291.54 3638.66 310.48 C 3626.02 348.84 3629.29 392.66 3649.44 427.90 C 3666.99 458.95 3697.88 481.98 3732.52 490.33 C 3772.51 500.31 3817.17 493.86 3851.10 469.87 C 3867.02 458.64 3880.38 443.78 3889.85 426.73 C 3909.55 391.13 3912.38 347.20 3899.33 308.86 C 3893.24 291.26 3883.40 274.97 3870.69 261.36 C 3856.50 246.30 3838.64 234.75 3819.14 227.86 C 3796.65 219.82 3772.21 217.50 3748.59 220.78 Z" />
<path fill="#ffffff" opacity="1.00" d=" M 4061.45 214.52 C 4097.81 190.23 4143.62 182.41 4186.52 188.74 C 4224.06 194.35 4259.90 213.32 4283.90 242.99 C 4297.45 259.57 4307.47 278.96 4313.44 299.50 C 4302.04 299.48 4290.65 299.56 4279.26 299.46 C 4272.58 281.84 4262.01 265.66 4248.31 252.70 C 4233.35 238.53 4214.48 228.73 4194.55 223.69 C 4155.89 214.08 4112.71 219.90 4079.61 242.68 C 4065.09 252.59 4052.81 265.70 4043.62 280.66 C 4032.20 299.45 4025.62 321.00 4023.75 342.86 C 4021.83 366.75 4024.65 391.21 4033.66 413.52 C 4045.49 443.67 4069.25 468.96 4098.90 482.13 C 4119.78 491.71 4143.08 495.37 4165.95 494.36 C 4189.59 493.17 4213.27 486.40 4232.97 473.03 C 4255.78 458.01 4272.32 434.61 4281.30 409.01 C 4292.64 408.99 4303.99 408.99 4315.34 409.01 C 4305.80 443.93 4285.18 476.31 4255.45 497.38 C 4219.60 523.37 4173.05 531.63 4129.75 525.10 C 4092.40 519.80 4056.59 501.89 4031.44 473.55 C 4006.52 446.10 3992.65 409.77 3989.81 373.03 C 3987.86 347.58 3990.59 321.66 3998.57 297.38 C 4009.65 263.84 4031.84 233.94 4061.45 214.52 Z" />
<path fill="#ffffff" opacity="1.00" d=" M 2080.29 191.27 C 2093.02 191.23 2105.77 191.24 2118.51 191.27 C 2154.25 257.91 2189.58 324.77 2225.16 391.49 C 2255.17 324.75 2285.08 257.97 2315.09 191.24 C 2327.03 191.27 2338.97 191.23 2350.92 191.26 C 2316.80 267.04 2282.50 342.75 2248.33 418.51 C 2240.57 435.67 2232.60 452.77 2222.96 468.97 C 2215.55 481.67 2206.66 493.68 2195.52 503.37 C 2186.17 511.52 2175.02 517.70 2162.88 520.47 C 2146.52 524.74 2129.49 523.97 2112.75 524.00 C 2112.74 513.58 2112.74 503.17 2112.75 492.75 C 2126.22 492.54 2139.90 493.63 2153.16 490.61 C 2162.03 488.66 2170.44 484.34 2176.82 477.81 C 2190.90 464.62 2198.94 446.73 2207.79 429.94 C 2165.31 350.37 2122.76 270.84 2080.29 191.27 Z" />
<path fill="#ffffff" opacity="1.00" d=" M 2401.25 191.25 C 2480.00 191.25 2558.75 191.25 2637.50 191.25 C 2637.50 301.67 2637.50 412.08 2637.50 522.50 C 2626.35 522.53 2615.20 522.44 2604.06 522.55 C 2603.92 422.62 2604.04 322.68 2604.00 222.75 C 2547.58 222.73 2491.16 222.86 2434.75 222.50 C 2434.75 322.50 2434.74 422.50 2434.75 522.50 C 2423.58 522.50 2412.41 522.50 2401.25 522.50 C 2401.66 462.67 2401.45 402.83 2401.50 343.00 C 2401.49 292.41 2401.60 241.83 2401.25 191.25 Z" />
<path fill="#ffffff" opacity="1.00" d=" M 2730.50 191.25 C 2791.91 191.25 2853.33 191.25 2914.75 191.25 C 2914.75 201.83 2914.74 212.41 2914.75 223.00 C 2864.42 223.00 2814.08 223.00 2763.75 223.00 C 2763.75 260.67 2763.75 298.33 2763.75 336.00 C 2810.00 336.01 2856.25 335.99 2902.51 336.01 C 2902.49 346.34 2902.49 356.66 2902.51 366.99 C 2856.25 367.01 2810.00 367.00 2763.75 367.00 C 2763.75 408.17 2763.75 449.33 2763.75 490.50 C 2815.83 490.50 2867.91 490.50 2920.00 490.49 C 2920.00 501.16 2920.00 511.84 2919.99 522.51 C 2856.83 522.49 2793.66 522.51 2730.50 522.50 C 2730.49 412.08 2730.50 301.67 2730.50 191.25 Z" />
<path fill="#ffffff" opacity="1.00" d=" M 2990.25 191.25 C 3030.66 191.35 3071.08 191.05 3111.48 191.40 C 3133.77 192.33 3156.06 199.45 3173.95 212.95 C 3188.09 223.49 3199.28 237.89 3206.11 254.15 C 3221.10 289.85 3215.04 334.07 3189.21 363.29 C 3169.07 386.29 3138.41 398.93 3108.04 398.92 C 3079.86 399.11 3051.68 398.94 3023.50 399.00 C 3023.50 440.17 3023.51 481.34 3023.50 522.50 C 3012.41 522.50 3001.33 522.50 2990.26 522.51 C 2990.24 412.09 2990.25 301.67 2990.25 191.25 M 3023.50 223.50 C 3023.48 271.24 3023.55 318.97 3023.47 366.70 C 3050.63 366.69 3077.81 366.98 3104.97 366.50 C 3124.92 367.00 3145.04 359.38 3159.52 345.59 C 3170.86 334.62 3177.83 319.50 3179.67 303.89 C 3182.28 283.13 3175.53 261.13 3160.89 246.04 C 3147.56 232.53 3128.90 224.78 3110.05 223.77 C 3081.21 223.38 3052.35 223.52 3023.50 223.50 Z" />
<path fill="#ffffff" opacity="1.00" d=" M 3276.25 191.25 C 3287.33 191.25 3298.41 191.25 3309.50 191.25 C 3309.50 239.25 3309.50 287.25 3309.50 335.25 C 3370.75 335.25 3432.00 335.25 3493.25 335.25 C 3493.25 287.25 3493.25 239.25 3493.25 191.25 C 3504.33 191.25 3515.41 191.25 3526.50 191.25 C 3526.50 301.67 3526.51 412.09 3526.50 522.50 C 3515.41 522.50 3504.32 522.51 3493.25 522.50 C 3493.25 470.75 3493.25 419.00 3493.25 367.25 C 3432.00 367.25 3370.75 367.25 3309.50 367.25 C 3309.50 419.00 3309.51 470.75 3309.50 522.50 C 3298.41 522.50 3287.33 522.50 3276.26 522.51 C 3276.24 412.09 3276.25 301.67 3276.25 191.25 Z" />
<path fill="#ffffff" opacity="1.00" d=" M 1967.50 598.50 C 1967.52 547.66 1967.46 496.82 1967.53 445.98 C 1984.10 446.03 2000.67 445.99 2017.25 446.00 C 2017.25 496.83 2017.25 547.67 2017.25 598.50 C 2000.66 598.50 1984.08 598.50 1967.50 598.50 Z" />
<path fill="#ffffff" opacity="1.00" d=" M 3510.51 713.70 C 3514.27 712.68 3518.11 714.21 3521.96 713.84 C 3525.42 713.17 3529.11 716.42 3528.22 720.03 C 3527.12 723.23 3523.51 723.95 3520.69 724.82 C 3499.87 731.22 3481.02 743.64 3466.59 759.91 C 3439.82 790.10 3428.19 831.23 3428.24 871.01 C 3428.06 912.64 3441.90 955.49 3471.30 985.69 C 3491.82 1007.25 3520.36 1021.06 3550.08 1023.26 C 3570.05 1024.43 3590.06 1018.96 3607.73 1009.84 C 3640.05 992.98 3663.24 961.67 3674.15 927.28 C 3681.73 904.09 3683.90 879.39 3682.32 855.13 C 3681.11 832.18 3676.92 809.03 3666.86 788.21 C 3655.52 764.61 3635.82 744.71 3611.48 734.70 C 3601.44 730.77 3590.61 727.81 3579.75 729.17 C 3563.29 731.55 3547.38 738.76 3535.43 750.42 C 3528.32 757.30 3522.77 765.94 3520.31 775.58 C 3519.12 779.65 3514.08 778.53 3510.92 778.54 C 3507.34 777.75 3502.69 780.30 3500.15 776.78 C 3498.49 774.85 3499.33 772.14 3499.96 769.97 C 3504.63 754.86 3515.66 742.41 3528.64 733.73 C 3539.80 726.29 3552.66 721.45 3565.94 719.52 C 3577.88 718.02 3590.04 717.71 3602.04 718.85 C 3639.72 722.25 3674.04 744.77 3695.50 775.43 C 3720.06 810.10 3728.12 854.57 3722.57 896.24 C 3718.01 931.50 3701.74 965.39 3675.75 989.84 C 3660.78 1004.09 3642.87 1015.18 3623.56 1022.51 C 3603.03 1030.43 3580.97 1033.68 3559.05 1033.94 C 3539.88 1033.99 3520.57 1032.70 3501.89 1028.21 C 3479.85 1022.88 3458.64 1013.30 3441.01 998.91 C 3415.77 978.74 3398.95 949.24 3391.87 917.92 C 3386.23 893.01 3385.18 867.02 3388.90 841.74 C 3392.26 819.42 3400.07 797.60 3412.93 778.96 C 3432.17 750.55 3461.93 730.58 3493.92 719.10 C 3499.38 717.12 3504.88 715.21 3510.51 713.70 Z" />
<path fill="#ffffff" opacity="1.00" d=" M 2107.22 728.29 C 2123.08 717.96 2142.23 713.66 2161.02 714.02 C 2176.30 713.51 2191.90 715.06 2206.16 720.92 C 2222.90 727.53 2237.74 739.94 2245.45 756.41 C 2251.45 769.43 2253.16 784.65 2249.28 798.53 C 2245.17 813.01 2233.22 824.68 2218.90 829.07 C 2208.86 832.34 2198.19 831.75 2187.81 831.39 C 2176.34 830.62 2165.08 826.27 2156.25 818.91 C 2150.01 813.69 2145.12 806.28 2144.54 798.00 C 2143.65 788.02 2148.85 778.53 2155.83 771.75 C 2157.33 769.95 2159.71 769.51 2161.77 768.58 C 2164.18 768.41 2166.63 768.48 2169.06 768.83 C 2170.87 769.39 2172.82 769.64 2174.61 770.41 C 2177.31 771.93 2177.50 776.11 2175.21 778.10 C 2171.04 782.41 2167.09 787.52 2166.40 793.68 C 2165.40 799.86 2168.84 805.70 2173.05 809.92 C 2178.87 815.65 2186.59 819.16 2194.55 820.72 C 2198.63 821.63 2202.71 820.06 2206.51 818.68 C 2217.66 814.33 2226.19 804.15 2228.65 792.45 C 2231.76 777.94 2227.35 762.39 2218.35 750.77 C 2208.34 738.05 2193.54 729.56 2177.83 726.11 C 2162.81 722.40 2147.14 727.58 2134.20 735.17 C 2115.16 746.62 2103.31 767.63 2100.59 789.38 C 2099.38 799.96 2098.64 811.15 2102.74 821.24 C 2107.64 833.89 2117.33 843.99 2127.93 852.16 C 2149.55 868.80 2174.55 880.14 2197.77 894.27 C 2210.83 902.12 2223.55 910.84 2234.09 921.95 C 2243.92 932.25 2251.38 945.51 2252.43 959.92 C 2254.08 978.73 2248.84 998.74 2235.68 1012.67 C 2220.82 1028.96 2198.60 1036.75 2177.00 1037.99 C 2165.28 1037.74 2153.43 1038.87 2141.87 1036.55 C 2132.40 1034.77 2122.98 1031.64 2115.16 1025.89 C 2113.05 1024.32 2110.19 1022.16 2111.18 1019.15 C 2111.64 1015.84 2115.30 1014.68 2118.20 1015.36 C 2121.44 1013.34 2125.34 1016.00 2128.90 1015.38 C 2131.79 1016.41 2133.82 1019.02 2136.57 1020.42 C 2145.37 1025.61 2155.71 1028.70 2165.98 1028.09 C 2183.75 1025.71 2200.38 1014.69 2208.79 998.74 C 2215.11 986.74 2217.15 972.17 2213.40 959.06 C 2208.74 944.14 2196.61 933.19 2184.13 924.57 C 2158.45 907.10 2129.27 895.34 2104.42 876.57 C 2090.88 866.53 2078.86 853.89 2071.64 838.51 C 2062.96 819.67 2062.13 797.46 2069.05 777.94 C 2075.88 757.82 2089.27 739.79 2107.22 728.29 Z" />
<path fill="#ffffff" opacity="1.00" d=" M 3782.66 732.49 C 3796.17 722.07 3812.81 715.91 3829.79 714.53 C 3850.76 713.13 3872.78 713.49 3892.06 722.89 C 3908.06 730.25 3921.78 743.28 3928.32 759.81 C 3933.28 772.78 3934.53 787.55 3929.93 800.81 C 3925.37 814.11 3914.08 824.64 3900.78 828.93 C 3892.78 831.52 3884.27 831.98 3875.95 831.54 C 3865.44 831.85 3854.78 829.63 3845.62 824.39 C 3837.26 819.71 3829.67 812.60 3826.88 803.19 C 3824.11 794.35 3826.96 784.69 3832.31 777.42 C 3835.62 773.15 3839.51 768.22 3845.52 768.36 L 3845.54 769.38 C 3848.36 769.75 3851.25 769.82 3854.16 769.83 C 3857.54 770.10 3859.56 774.68 3857.27 777.33 C 3854.98 780.07 3852.28 782.50 3850.60 785.68 C 3847.33 790.97 3846.47 798.06 3849.71 803.57 C 3854.97 813.19 3865.52 818.61 3875.94 820.73 C 3879.65 821.61 3883.40 820.29 3886.91 819.07 C 3896.77 815.50 3904.93 807.46 3908.50 797.59 C 3913.74 783.36 3910.48 767.08 3902.45 754.56 C 3891.90 738.54 3873.89 728.45 3855.21 725.33 C 3846.51 723.86 3837.68 725.77 3829.47 728.61 C 3815.05 733.59 3802.31 743.32 3794.04 756.17 C 3787.09 766.84 3783.02 779.28 3781.67 791.91 C 3780.74 801.12 3780.30 810.72 3783.55 819.56 C 3788.48 833.99 3799.81 845.10 3811.76 854.04 C 3831.23 868.42 3853.12 878.96 3873.95 891.16 C 3889.39 900.35 3904.90 910.12 3917.03 923.58 C 3927.22 934.84 3934.36 949.54 3934.02 964.97 C 3934.59 982.33 3928.90 1000.19 3916.88 1012.95 C 3901.88 1029.13 3879.65 1036.85 3858.02 1038.00 C 3845.30 1037.97 3832.39 1038.89 3819.92 1035.86 C 3810.41 1033.59 3800.74 1030.13 3793.55 1023.28 C 3790.85 1020.40 3793.31 1015.34 3797.10 1015.07 C 3800.70 1013.71 3804.36 1015.63 3808.06 1015.35 C 3812.16 1014.65 3814.52 1018.73 3817.82 1020.36 C 3826.84 1025.62 3837.44 1028.87 3847.96 1028.04 C 3865.37 1025.50 3881.54 1014.64 3889.99 999.13 C 3898.10 983.82 3899.66 963.92 3890.17 948.84 C 3880.86 933.83 3865.53 924.09 3850.71 915.22 C 3830.81 903.49 3809.81 893.58 3790.88 880.26 C 3777.66 871.01 3765.36 859.92 3757.01 845.96 C 3746.66 828.82 3743.34 807.69 3747.59 788.15 C 3752.45 766.33 3764.87 746.14 3782.66 732.49 Z" />
<path fill="#ffffff" opacity="1.00" d=" M 2308.03 718.10 C 2314.00 715.51 2320.67 716.38 2327.00 716.07 C 2332.95 716.23 2339.60 715.55 2344.76 719.13 C 2344.73 785.41 2344.76 851.69 2344.75 917.98 C 2344.55 926.66 2345.10 935.32 2345.00 944.01 C 2344.76 957.54 2346.51 971.14 2350.37 984.12 C 2353.87 995.25 2359.04 1006.24 2367.54 1014.44 C 2373.06 1020.06 2380.15 1024.28 2387.91 1025.89 C 2393.63 1027.17 2399.44 1025.47 2404.86 1023.67 C 2416.76 1019.53 2426.42 1010.40 2432.79 999.68 C 2445.79 977.57 2447.88 951.09 2447.50 926.00 C 2447.50 857.71 2447.49 789.42 2447.50 721.14 C 2447.39 718.52 2449.07 715.53 2451.91 715.32 C 2456.25 715.22 2460.61 715.36 2464.97 715.36 C 2467.29 715.39 2469.31 717.68 2469.24 719.99 C 2469.27 784.98 2469.24 849.97 2469.25 914.96 C 2469.15 928.97 2469.78 943.05 2467.87 956.98 C 2465.38 976.87 2459.41 996.99 2446.92 1012.98 C 2439.26 1022.73 2428.86 1030.46 2416.96 1034.16 C 2408.31 1036.91 2399.13 1037.67 2390.11 1037.08 C 2375.92 1037.78 2361.43 1034.97 2348.93 1028.11 C 2335.36 1020.81 2324.44 1009.00 2317.61 995.24 C 2311.67 983.70 2308.54 970.90 2307.20 958.05 C 2306.08 946.41 2306.62 934.71 2306.50 923.05 C 2306.50 855.74 2306.49 788.43 2306.50 721.13 C 2306.44 719.97 2306.77 718.50 2308.03 718.10 Z" />
<path fill="#ffffff" opacity="1.00" d=" M 2935.27 718.04 C 2939.85 715.85 2945.14 717.07 2950.06 716.65 C 2970.58 715.75 2991.17 721.63 3008.49 732.57 C 3042.40 753.65 3064.30 792.94 3063.76 832.94 C 3064.02 851.77 3059.54 870.76 3050.20 887.16 C 3040.02 905.33 3024.04 919.76 3006.07 930.03 C 2997.99 934.81 2989.27 938.32 2980.62 941.90 C 2988.70 943.12 2996.89 943.83 3004.89 945.71 C 3027.60 950.56 3048.87 960.40 3069.12 971.55 C 3085.76 980.84 3102.08 990.70 3118.04 1001.12 C 3135.27 1012.20 3152.97 1023.38 3173.00 1028.64 C 3172.97 925.98 3173.07 823.33 3172.95 720.67 C 3178.17 717.67 3184.32 719.20 3190.03 718.69 C 3194.36 718.61 3198.87 718.54 3203.03 720.00 C 3205.44 720.90 3204.13 724.07 3204.77 726.01 C 3206.80 744.97 3219.52 760.46 3232.61 773.39 C 3256.84 796.96 3285.97 815.02 3308.98 839.90 C 3309.02 801.96 3309.00 764.01 3308.99 726.07 C 3309.13 723.48 3308.35 720.36 3310.31 718.27 C 3312.19 716.05 3315.37 716.76 3317.98 716.62 C 3321.28 716.88 3324.62 716.63 3327.96 716.95 C 3329.82 717.77 3330.96 719.89 3330.76 721.92 C 3330.73 824.97 3330.76 928.01 3330.75 1031.05 C 3331.08 1033.81 3328.75 1036.69 3325.89 1036.41 C 3323.32 1036.63 3320.13 1035.52 3318.10 1037.42 C 3314.18 1037.90 3308.82 1035.60 3309.01 1031.04 C 3308.97 993.99 3309.04 956.94 3308.97 919.89 C 3306.88 898.38 3298.77 877.48 3285.79 860.21 C 3264.90 832.06 3234.22 813.86 3209.48 789.59 C 3209.52 867.79 3209.51 945.99 3209.49 1024.19 C 3214.14 1021.78 3218.73 1019.18 3222.98 1016.08 C 3225.57 1014.05 3228.76 1012.97 3231.94 1012.20 C 3234.97 1012.35 3237.89 1013.50 3240.94 1013.87 C 3244.56 1014.01 3246.73 1018.64 3244.71 1021.60 C 3242.73 1024.02 3239.86 1025.47 3237.39 1027.30 C 3221.99 1037.71 3203.62 1043.62 3185.02 1043.93 C 3173.12 1044.11 3161.12 1043.93 3149.46 1041.36 C 3129.10 1036.94 3110.05 1028.06 3091.87 1018.10 C 3074.39 1008.44 3057.36 998.01 3040.23 987.76 C 3018.50 974.90 2996.12 962.32 2971.49 956.03 C 2971.43 982.06 2971.67 1008.10 2971.37 1034.12 C 2965.62 1036.87 2959.10 1035.78 2952.98 1036.00 C 2947.22 1035.78 2941.11 1036.81 2935.74 1034.28 C 2934.40 1032.10 2935.17 1029.38 2934.99 1026.98 C 2935.00 1003.14 2935.00 979.31 2934.99 955.48 C 2925.09 957.85 2915.70 961.93 2906.81 966.81 L 2906.04 967.67 C 2905.69 967.61 2905.00 967.49 2904.66 967.44 L 2904.60 968.50 C 2901.22 968.18 2897.85 968.25 2894.51 968.46 L 2894.40 967.71 C 2890.07 966.02 2888.24 958.40 2892.96 955.85 C 2906.02 948.97 2920.39 944.63 2935.00 942.58 C 2935.00 886.04 2935.00 829.51 2935.00 772.97 C 2935.13 754.66 2934.70 736.34 2935.27 718.04 M 2971.49 732.68 C 2971.49 798.22 2971.55 863.76 2971.46 929.30 C 2989.22 920.14 3005.20 906.86 3015.52 889.56 C 3027.75 869.45 3032.02 845.19 3029.99 821.92 C 3028.27 800.51 3020.64 779.45 3007.55 762.36 C 2997.97 749.93 2985.67 739.49 2971.49 732.68 Z" />
<path fill="#ffffff" opacity="1.00" d=" M 2554.01 719.21 C 2561.08 717.01 2568.61 717.89 2575.92 717.53 C 2596.80 716.73 2617.16 724.83 2633.78 737.08 C 2663.35 759.11 2682.43 794.15 2686.10 830.73 C 2688.11 851.68 2685.80 873.29 2677.76 892.84 C 2670.23 911.32 2657.36 927.43 2641.55 939.52 C 2626.40 951.36 2608.71 959.56 2590.50 965.47 C 2590.50 988.15 2590.51 1010.83 2590.50 1033.51 C 2583.39 1036.65 2575.40 1035.63 2567.87 1035.62 C 2563.21 1035.19 2557.90 1036.17 2553.97 1033.08 C 2554.04 1013.30 2553.98 993.52 2554.00 973.74 C 2541.36 975.04 2528.62 975.18 2515.96 974.36 C 2512.89 974.10 2509.65 974.43 2506.77 973.26 C 2502.97 971.24 2504.67 964.52 2508.97 964.56 C 2514.63 965.26 2520.32 964.00 2526.00 964.90 C 2535.40 965.17 2544.78 963.66 2554.00 961.93 C 2554.01 881.02 2553.98 800.12 2554.01 719.21 M 2590.49 949.21 C 2612.15 937.97 2630.78 920.21 2641.02 897.87 C 2650.61 877.48 2653.72 854.47 2652.05 832.13 C 2650.45 811.04 2644.18 790.16 2632.80 772.25 C 2622.46 755.92 2607.94 742.03 2590.48 733.54 C 2590.52 805.43 2590.51 877.32 2590.49 949.21 Z" />
<path fill="#ffffff" opacity="1.00" d=" M 2741.28 723.09 C 2741.19 720.68 2743.88 719.65 2745.91 719.56 C 2767.93 718.61 2789.98 719.16 2812.02 719.01 C 2827.36 719.05 2842.72 718.93 2858.07 719.10 C 2860.64 719.18 2863.79 719.11 2865.53 721.42 C 2867.66 723.98 2865.98 728.16 2862.90 728.97 C 2860.61 729.40 2858.30 729.32 2856.04 729.42 C 2829.94 729.76 2803.84 729.49 2777.75 729.58 C 2777.73 779.58 2777.78 829.59 2777.73 879.59 C 2788.42 882.65 2799.15 885.81 2810.22 887.27 C 2819.52 889.09 2829.97 885.73 2836.09 878.35 C 2839.14 874.67 2844.55 875.26 2848.82 875.71 C 2851.25 876.13 2854.00 875.20 2856.24 876.63 C 2858.07 877.81 2858.69 880.63 2857.28 882.36 C 2850.07 892.77 2837.27 898.13 2824.86 898.32 C 2813.85 898.51 2802.72 898.71 2791.88 896.53 C 2787.11 895.67 2782.42 894.52 2777.74 893.38 C 2777.77 936.39 2777.74 979.41 2777.75 1022.42 C 2804.17 1022.51 2830.59 1022.23 2857.01 1022.59 C 2859.76 1022.88 2863.27 1022.08 2865.33 1024.50 C 2868.25 1027.65 2865.38 1033.40 2861.11 1032.99 C 2823.39 1033.01 2785.68 1033.01 2747.96 1032.99 C 2744.64 1033.17 2741.19 1030.50 2741.26 1027.05 C 2741.23 979.92 2741.26 932.79 2741.24 885.66 C 2734.54 886.05 2728.07 888.17 2722.10 891.14 C 2719.14 892.88 2715.61 891.80 2712.43 892.61 L 2712.54 893.43 C 2711.15 893.41 2709.80 893.41 2708.49 893.43 L 2708.54 892.69 C 2706.22 892.40 2703.35 892.17 2702.16 889.84 C 2700.69 887.78 2701.02 884.59 2703.39 883.36 C 2714.85 876.91 2728.25 874.98 2741.25 875.03 C 2741.27 824.38 2741.21 773.73 2741.28 723.09 Z" />
<path fill="#ffffff" opacity="1.00" d=" M 3997.79 723.04 C 3997.63 720.42 4000.77 719.73 4002.83 719.47 C 4012.19 718.83 4021.59 719.06 4030.99 719.01 C 4057.97 719.04 4084.96 718.96 4111.96 719.06 C 4115.39 719.34 4120.00 718.39 4122.27 721.76 C 4124.57 725.25 4120.94 729.91 4117.02 729.26 C 4089.44 729.94 4061.84 729.41 4034.25 729.58 C 4034.25 779.59 4034.26 829.61 4034.24 879.62 C 4044.88 882.63 4055.54 885.79 4066.55 887.23 C 4075.86 889.12 4086.39 885.82 4092.52 878.42 C 4095.16 875.01 4100.13 875.20 4104.04 875.58 C 4107.38 876.41 4111.96 874.61 4114.22 878.13 C 4115.47 880.94 4113.14 883.45 4111.41 885.39 C 4103.81 893.93 4092.32 898.19 4081.05 898.33 C 4070.29 898.51 4059.42 898.69 4048.82 896.61 C 4043.91 895.70 4039.05 894.62 4034.24 893.37 C 4034.27 936.39 4034.22 979.41 4034.27 1022.43 C 4060.89 1022.51 4087.52 1022.22 4114.14 1022.60 C 4116.81 1022.80 4120.33 1022.24 4122.12 1024.83 C 4124.46 1027.98 4121.91 1033.04 4118.00 1032.98 C 4080.31 1033.03 4042.61 1032.97 4004.92 1033.01 C 4001.50 1033.32 3997.51 1030.66 3997.76 1026.97 C 3997.72 979.86 3997.78 932.75 3997.73 885.65 C 3991.92 885.95 3986.29 887.66 3981.02 890.01 C 3978.69 890.94 3976.48 892.47 3973.91 892.22 C 3972.50 892.16 3971.26 892.54 3970.20 893.37 C 3968.10 893.57 3965.93 893.92 3964.07 892.93 C 3959.91 892.67 3955.54 887.73 3959.01 884.03 C 3970.47 876.85 3984.45 875.06 3997.75 875.03 C 3997.77 824.37 3997.69 773.70 3997.79 723.04 Z" />
<path fill="#ffffff" opacity="1.00" d=" M 586.46 837.36 C 612.75 813.64 648.64 801.26 683.94 802.62 C 706.18 803.40 728.22 810.00 747.01 821.97 C 767.00 831.46 781.33 849.33 792.04 868.19 C 800.90 883.20 807.80 899.29 816.89 914.15 C 824.56 915.96 832.07 918.39 839.77 920.11 C 843.47 921.10 847.31 921.66 850.86 923.19 C 856.04 924.43 861.09 926.14 866.28 927.38 C 865.25 928.57 863.89 929.46 862.26 929.41 C 851.85 932.97 841.19 935.72 830.64 938.82 L 830.44 939.18 C 809.49 945.73 788.46 952.01 767.55 958.69 C 763.80 959.92 760.03 961.25 756.14 961.93 C 763.02 953.62 770.63 945.95 777.83 937.91 C 783.15 932.45 787.98 926.53 793.44 921.22 C 790.86 913.49 786.49 906.55 782.69 899.39 C 771.84 880.09 759.18 861.24 741.73 847.27 C 730.64 838.38 717.49 832.12 703.54 829.36 C 675.94 821.23 645.56 827.31 621.34 842.20 C 605.08 852.11 591.06 865.76 580.95 881.91 C 575.41 890.43 571.52 899.95 569.38 909.88 C 564.54 931.57 566.50 953.93 566.99 975.93 C 566.79 979.01 567.33 982.06 568.13 985.03 C 586.04 990.14 604.14 994.56 622.04 999.71 C 620.72 1001.14 618.59 1001.00 616.89 1001.67 C 593.89 1007.53 571.09 1014.11 548.13 1020.11 C 539.43 1022.02 531.08 1025.27 522.41 1027.27 C 518.55 1028.36 514.70 1029.69 510.71 1030.13 C 521.29 1016.65 533.96 1005.01 545.00 991.94 C 544.97 968.05 542.36 944.01 544.94 920.13 C 546.78 901.06 552.11 881.95 562.98 865.98 C 569.36 855.37 577.23 845.63 586.46 837.36 Z" />
<path fill="#ffffff" opacity="1.00" d=" M 850.97 940.94 C 854.52 940.12 857.90 938.68 861.53 938.19 C 863.37 944.74 865.27 951.28 867.09 957.84 C 868.57 962.59 869.67 967.46 871.36 972.16 C 871.32 972.70 871.23 973.79 871.19 974.33 C 869.96 974.46 868.74 974.58 867.53 974.70 L 867.47 975.25 C 865.93 975.35 864.40 975.52 862.95 976.01 C 857.24 977.55 851.57 979.23 845.88 980.79 C 844.47 981.31 842.97 981.51 841.52 981.72 L 841.46 982.27 C 839.00 982.40 836.74 983.45 834.32 983.77 L 834.48 984.12 C 828.91 985.61 823.47 987.60 817.83 988.80 C 816.55 989.31 815.19 989.51 813.87 989.74 C 806.42 991.73 799.10 994.26 791.55 995.79 L 791.45 996.32 C 790.25 996.46 789.07 996.63 787.90 996.82 C 785.62 997.72 783.25 998.36 780.89 998.95 C 780.29 999.12 779.11 999.47 778.52 999.64 C 777.39 995.05 776.22 990.48 775.08 985.90 C 773.16 979.17 771.97 972.21 769.48 965.67 C 770.94 964.52 772.74 964.29 774.56 964.28 L 774.48 963.79 C 783.37 962.53 791.61 958.64 800.22 956.22 C 805.98 954.58 811.67 952.70 817.47 951.20 L 817.44 950.83 C 819.72 950.43 821.93 949.74 824.18 949.15 C 827.68 947.99 831.30 947.20 834.75 945.84 C 837.89 945.03 840.94 943.90 844.09 943.13 C 846.38 942.39 848.69 941.73 850.97 940.94 Z" />
<path fill="#ffffff" opacity="1.00" d=" M 606.90 1011.81 C 608.70 1011.02 610.56 1010.38 612.51 1010.05 C 614.37 1015.98 616.12 1021.96 618.26 1027.80 C 618.42 1028.38 618.74 1029.53 618.89 1030.10 C 620.53 1034.62 621.86 1039.24 623.34 1043.81 C 618.81 1045.08 614.31 1046.48 609.79 1047.81 C 601.98 1050.47 593.85 1052.19 586.16 1055.21 C 585.58 1055.34 584.42 1055.61 583.84 1055.74 C 576.79 1058.38 569.35 1059.76 562.21 1062.12 C 553.53 1064.82 544.70 1067.07 536.12 1070.08 C 534.39 1070.86 532.64 1071.77 530.68 1071.39 C 529.50 1066.98 528.28 1062.59 526.87 1058.26 C 526.71 1057.65 526.40 1056.44 526.24 1055.84 C 525.80 1054.54 525.41 1053.22 525.03 1051.95 C 523.37 1046.72 521.96 1041.42 520.37 1036.17 C 523.79 1034.81 527.41 1034.06 530.91 1032.93 C 532.24 1032.61 533.55 1032.22 534.85 1031.76 C 535.89 1031.51 536.94 1031.27 537.99 1031.05 C 543.93 1029.10 550.09 1027.86 556.02 1025.88 C 556.79 1025.70 558.32 1025.33 559.09 1025.15 C 567.58 1022.40 576.32 1020.45 584.82 1017.73 C 585.90 1017.49 587.00 1017.26 588.10 1017.05 C 594.39 1015.42 600.79 1014.09 606.90 1011.81 Z" />
<path fill="#ffffff" opacity="1.00" d=" M 1828.00 1168.25 C 1833.83 1168.25 1839.66 1168.24 1845.50 1168.25 C 1845.49 1175.23 1845.50 1182.22 1845.50 1189.20 C 1863.49 1190.10 1881.57 1195.20 1896.23 1205.94 C 1919.80 1222.53 1932.86 1251.55 1932.52 1280.05 C 1932.75 1307.81 1920.38 1335.99 1897.92 1352.76 C 1882.95 1364.23 1864.20 1369.93 1845.50 1370.75 C 1845.50 1379.74 1845.49 1388.74 1845.51 1397.74 C 1839.66 1397.75 1833.83 1397.74 1828.00 1397.75 C 1827.99 1388.75 1827.99 1379.75 1828.00 1370.76 C 1810.17 1369.96 1792.39 1364.58 1777.77 1354.23 C 1762.40 1343.40 1751.04 1327.29 1745.37 1309.43 C 1738.92 1288.85 1739.48 1266.08 1747.12 1245.90 C 1753.70 1228.34 1766.03 1212.98 1781.98 1203.06 C 1795.67 1194.26 1811.85 1190.06 1828.00 1189.20 C 1828.00 1182.21 1827.99 1175.23 1828.00 1168.25 M 1773.82 1234.82 C 1761.65 1250.94 1756.99 1272.13 1760.01 1291.99 C 1762.67 1310.04 1772.08 1327.21 1786.58 1338.43 C 1798.36 1347.65 1813.10 1352.74 1827.99 1353.57 C 1828.01 1304.61 1828.00 1255.64 1827.99 1206.68 C 1807.00 1207.49 1786.33 1217.81 1773.82 1234.82 M 1845.49 1206.64 C 1845.52 1255.62 1845.48 1304.60 1845.52 1353.58 C 1866.67 1352.59 1887.56 1342.37 1900.00 1325.00 C 1920.40 1297.44 1918.93 1255.71 1895.90 1230.12 C 1883.29 1215.76 1864.48 1207.42 1845.49 1206.64 Z" />
<path fill="#ffffff" opacity="1.00" d=" M 3895.53 1190.77 C 3917.46 1187.22 3940.68 1191.00 3959.99 1202.14 C 3973.82 1210.21 3985.32 1222.23 3992.65 1236.49 C 4002.16 1254.54 4004.94 1275.76 4001.86 1295.83 C 3998.46 1317.81 3986.79 1338.64 3968.93 1352.09 C 3938.84 1375.03 3894.78 1376.80 3862.37 1357.63 C 3845.57 1347.65 3832.40 1331.71 3825.82 1313.30 C 3817.57 1290.84 3818.11 1265.28 3827.32 1243.20 C 3838.55 1215.16 3865.77 1194.89 3895.53 1190.77 M 3899.56 1207.79 C 3880.38 1210.54 3862.23 1221.15 3851.26 1237.24 C 3838.74 1254.96 3835.38 1278.22 3840.42 1299.13 C 3844.35 1315.18 3853.94 1329.89 3867.44 1339.52 C 3886.77 1353.48 3912.86 1356.85 3935.44 1349.66 C 3949.88 1345.17 3962.87 1335.98 3971.60 1323.59 C 3982.80 1307.63 3987.10 1287.18 3984.02 1267.99 C 3981.29 1248.45 3970.07 1230.18 3953.62 1219.23 C 3937.91 1208.66 3918.15 1205.10 3899.56 1207.79 Z" />
<path fill="#ffffff" opacity="1.00" d=" M 4076.18 1198.95 C 4094.92 1189.86 4116.66 1187.35 4137.08 1191.29 C 4156.24 1194.87 4174.26 1205.25 4186.27 1220.71 C 4193.06 1229.19 4197.77 1239.15 4201.02 1249.48 C 4194.93 1249.52 4188.85 1249.49 4182.78 1249.50 C 4177.24 1235.05 4166.76 1222.31 4152.94 1215.10 C 4134.20 1205.19 4111.20 1204.43 4091.41 1211.62 C 4075.63 1217.46 4062.13 1229.38 4054.72 1244.52 C 4045.50 1262.80 4044.33 1284.62 4050.05 1304.14 C 4055.54 1322.57 4069.00 1338.55 4086.62 1346.43 C 4108.04 1355.99 4134.22 1355.62 4154.72 1343.83 C 4168.58 1336.02 4178.52 1322.56 4183.86 1307.75 C 4189.89 1307.74 4195.93 1307.75 4201.98 1307.74 C 4197.13 1324.97 4187.48 1341.16 4173.29 1352.28 C 4156.26 1365.98 4133.77 1371.75 4112.16 1370.32 C 4094.85 1369.32 4077.57 1363.85 4063.59 1353.44 C 4047.67 1341.96 4036.44 1324.50 4031.64 1305.55 C 4026.21 1283.64 4027.62 1259.78 4037.14 1239.19 C 4044.98 1221.78 4059.08 1207.39 4076.18 1198.95 Z" />
<path fill="#ffffff" opacity="1.00" d=" M 1969.49 1192.01 C 1975.49 1191.99 1981.49 1192.00 1987.50 1192.00 C 1987.51 1238.90 1987.48 1285.81 1987.52 1332.71 C 2022.27 1285.79 2057.07 1238.92 2091.82 1192.00 C 2096.12 1192.00 2100.43 1191.99 2104.75 1192.00 C 2104.75 1250.67 2104.75 1309.33 2104.75 1368.00 C 2098.83 1368.00 2092.91 1367.99 2087.00 1368.00 C 2087.00 1320.80 2087.00 1273.60 2087.00 1226.40 C 2051.96 1273.57 2017.03 1320.82 1982.01 1368.00 C 1977.82 1367.99 1973.65 1368.00 1969.49 1367.99 C 1969.50 1309.33 1969.50 1250.67 1969.49 1192.01 Z" />
<path fill="#ffffff" opacity="1.00" d=" M 2182.13 1192.03 C 2217.59 1191.96 2253.05 1192.01 2288.51 1192.00 C 2288.50 1250.59 2288.50 1309.17 2288.50 1367.75 C 2282.58 1367.75 2276.66 1367.74 2270.75 1367.75 C 2270.75 1314.75 2270.75 1261.75 2270.75 1208.75 C 2246.71 1208.74 2222.67 1208.76 2198.63 1208.74 C 2196.02 1241.16 2193.49 1273.59 2190.88 1306.01 C 2190.07 1317.69 2189.04 1329.63 2184.38 1340.52 C 2180.44 1350.04 2173.43 1358.51 2164.01 1362.96 C 2154.53 1367.76 2143.66 1368.27 2133.25 1367.99 C 2133.25 1362.16 2133.24 1356.33 2133.25 1350.50 C 2142.42 1350.60 2152.63 1350.18 2159.91 1343.86 C 2168.24 1336.85 2171.06 1325.60 2171.97 1315.20 C 2175.37 1274.15 2178.82 1233.09 2182.13 1192.03 Z" />
<path fill="#ffffff" opacity="1.00" d=" M 2338.00 1192.00 C 2343.99 1192.00 2349.99 1192.00 2356.00 1192.00 C 2356.00 1213.67 2356.00 1235.33 2356.00 1257.00 C 2371.66 1257.00 2387.33 1257.00 2403.00 1257.00 C 2419.50 1257.30 2436.37 1264.05 2446.97 1277.01 C 2461.98 1295.13 2463.37 1322.95 2450.76 1342.71 C 2441.59 1357.27 2425.07 1366.17 2408.13 1367.69 C 2399.78 1368.34 2391.39 1367.85 2383.03 1368.00 C 2368.01 1368.00 2353.01 1368.00 2338.00 1368.00 C 2338.00 1309.33 2338.00 1250.67 2338.00 1192.00 M 2356.00 1273.50 C 2355.89 1284.33 2356.24 1295.18 2355.75 1306.01 C 2355.55 1321.09 2356.13 1336.16 2356.00 1351.25 C 2366.99 1351.25 2377.99 1351.25 2388.99 1351.25 C 2397.06 1351.13 2405.36 1351.91 2413.19 1349.41 C 2422.59 1346.69 2431.09 1340.49 2435.98 1331.93 C 2443.76 1318.48 2442.62 1300.28 2432.78 1288.17 C 2425.98 1279.81 2415.54 1274.85 2404.92 1273.83 C 2388.62 1273.20 2372.30 1273.62 2356.00 1273.50 Z" />
<path fill="#ffffff" opacity="1.00" d=" M 2454.75 1192.00 C 2497.16 1192.00 2539.58 1192.00 2582.00 1192.00 C 2581.99 1197.58 2581.99 1203.16 2582.00 1208.75 C 2563.75 1208.75 2545.50 1208.75 2527.25 1208.75 C 2527.25 1261.83 2527.25 1314.92 2527.25 1368.00 C 2521.32 1367.99 2515.40 1368.00 2509.49 1367.99 C 2509.50 1314.91 2509.50 1261.83 2509.50 1208.75 C 2491.24 1208.75 2473.00 1208.75 2454.75 1208.75 C 2454.74 1203.16 2454.74 1197.58 2454.75 1192.00 Z" />
<path fill="#ffffff" opacity="1.00" d=" M 2612.49 1192.01 C 2628.66 1191.99 2644.83 1192.00 2661.00 1192.00 C 2670.30 1192.19 2679.78 1191.22 2688.90 1193.59 C 2703.35 1196.90 2716.61 1205.91 2724.12 1218.81 C 2735.14 1237.43 2734.08 1262.54 2721.20 1280.00 C 2710.24 1295.01 2691.35 1302.91 2673.02 1302.51 C 2658.76 1302.48 2644.51 1302.52 2630.26 1302.50 C 2630.24 1324.33 2630.25 1346.16 2630.25 1368.00 C 2624.32 1367.98 2618.40 1368.02 2612.48 1367.98 C 2612.51 1309.32 2612.49 1250.66 2612.49 1192.01 M 2630.25 1209.25 C 2630.24 1234.49 2630.26 1259.73 2630.24 1284.97 C 2639.49 1285.29 2648.75 1285.43 2658.01 1284.99 C 2665.13 1284.93 2672.26 1285.59 2679.37 1284.71 C 2691.90 1283.35 2703.84 1275.76 2709.48 1264.35 C 2716.95 1249.76 2713.82 1230.38 2701.45 1219.43 C 2693.96 1212.79 2683.94 1209.29 2673.98 1209.24 C 2659.40 1209.26 2644.82 1209.25 2630.25 1209.25 Z" />
<path fill="#ffffff" opacity="1.00" d=" M 2764.49 1192.01 C 2770.49 1191.99 2776.49 1191.99 2782.51 1192.01 C 2782.49 1213.67 2782.50 1235.33 2782.50 1257.00 C 2798.34 1257.02 2814.18 1256.95 2830.03 1257.04 C 2846.10 1257.36 2862.36 1263.93 2872.91 1276.30 C 2887.30 1292.94 2889.66 1318.28 2880.08 1337.86 C 2872.75 1352.63 2858.19 1363.25 2842.11 1366.51 C 2833.55 1368.55 2824.71 1367.90 2816.01 1368.00 C 2798.84 1367.99 2781.66 1368.01 2764.49 1367.99 C 2764.50 1309.33 2764.50 1250.67 2764.49 1192.01 M 2782.50 1273.50 C 2782.50 1299.42 2782.50 1325.33 2782.50 1351.25 C 2793.98 1351.25 2805.46 1351.25 2816.95 1351.25 C 2824.13 1351.17 2831.48 1351.75 2838.50 1349.75 C 2848.07 1347.29 2856.84 1341.29 2862.01 1332.79 C 2870.71 1318.78 2869.27 1299.13 2858.18 1286.83 C 2850.37 1278.12 2838.59 1273.66 2827.04 1273.55 C 2812.19 1273.44 2797.34 1273.53 2782.50 1273.50 Z" />
<path fill="#ffffff" opacity="1.00" d=" M 2914.00 1192.00 C 2919.99 1192.00 2925.99 1192.00 2932.00 1192.00 C 2932.00 1250.67 2932.00 1309.33 2932.00 1368.00 C 2925.99 1367.99 2919.99 1368.00 2914.00 1368.00 C 2914.00 1309.33 2914.00 1250.67 2914.00 1192.00 Z" />
<path fill="#ffffff" opacity="1.00" d=" M 3074.91 1192.00 C 3110.86 1192.00 3146.80 1192.00 3182.75 1192.00 C 3182.75 1245.08 3182.75 1298.17 3182.75 1351.25 C 3188.99 1351.25 3195.24 1351.25 3201.50 1351.25 C 3201.50 1369.00 3201.50 1386.75 3201.50 1404.50 C 3195.99 1404.50 3190.49 1404.50 3185.00 1404.50 C 3184.99 1392.33 3184.99 1380.16 3185.00 1368.00 C 3138.41 1368.00 3091.83 1368.00 3045.25 1368.00 C 3045.12 1380.17 3045.55 1392.35 3044.94 1404.51 C 3039.45 1404.49 3033.97 1404.50 3028.50 1404.50 C 3028.49 1386.75 3028.49 1369.00 3028.50 1351.25 C 3032.97 1351.16 3037.47 1351.41 3041.97 1351.15 C 3048.54 1347.84 3052.86 1341.31 3055.51 1334.63 C 3059.62 1324.13 3061.52 1312.93 3063.33 1301.85 C 3068.76 1265.42 3071.61 1228.67 3074.91 1192.00 M 3086.72 1260.15 C 3084.42 1281.36 3082.52 1302.74 3077.25 1323.47 C 3074.70 1333.63 3070.75 1343.97 3062.91 1351.27 C 3096.94 1351.23 3130.97 1351.26 3165.00 1351.25 C 3165.00 1303.75 3165.00 1256.25 3165.00 1208.75 C 3140.44 1208.73 3115.89 1208.79 3091.34 1208.72 C 3089.72 1225.85 3088.51 1243.03 3086.72 1260.15 Z" />
<path fill="#ffffff" opacity="1.00" d=" M 3254.69 1314.90 C 3258.06 1273.93 3261.54 1232.97 3264.80 1192.00 C 3300.20 1192.00 3335.60 1192.00 3371.00 1192.00 C 3371.00 1250.58 3371.00 1309.17 3371.00 1367.75 C 3365.07 1367.74 3359.15 1367.75 3353.25 1367.75 C 3353.25 1314.75 3353.25 1261.75 3353.25 1208.75 C 3329.25 1208.74 3305.24 1208.77 3281.25 1208.74 C 3278.21 1245.19 3275.54 1281.68 3272.42 1318.13 C 3271.13 1329.26 3268.32 1340.59 3261.81 1349.89 C 3256.46 1357.72 3248.14 1363.31 3239.04 1365.81 C 3231.56 1367.94 3223.71 1368.12 3216.00 1368.00 C 3215.99 1362.16 3215.98 1356.32 3216.01 1350.49 C 3224.99 1350.68 3234.89 1350.21 3242.18 1344.25 C 3250.93 1337.23 3253.77 1325.57 3254.69 1314.90 Z" />
<path fill="#ffffff" opacity="1.00" d=" M 3421.91 1210.90 C 3432.71 1198.24 3449.57 1191.90 3465.99 1191.99 C 3488.16 1192.02 3510.33 1191.98 3532.51 1192.01 C 3532.50 1250.67 3532.50 1309.33 3532.51 1367.99 C 3526.57 1368.00 3520.66 1367.99 3514.75 1368.00 C 3514.75 1344.43 3514.74 1320.86 3514.75 1297.30 C 3500.45 1296.64 3486.12 1297.16 3471.81 1297.00 C 3457.36 1320.62 3443.23 1344.43 3428.71 1368.00 C 3421.74 1367.99 3414.77 1368.00 3407.82 1368.00 C 3422.64 1343.73 3437.48 1319.48 3452.29 1295.20 C 3437.32 1292.02 3423.08 1283.09 3415.81 1269.33 C 3405.85 1251.03 3408.15 1226.67 3421.91 1210.90 M 3433.30 1225.41 C 3424.46 1238.94 3426.32 1258.64 3438.31 1269.71 C 3445.84 1277.13 3456.57 1280.32 3466.96 1280.46 C 3482.88 1280.55 3498.81 1280.46 3514.75 1280.50 C 3514.75 1256.58 3514.74 1232.67 3514.75 1208.75 C 3497.15 1208.78 3479.54 1208.58 3461.96 1209.09 C 3450.71 1210.11 3439.45 1215.70 3433.30 1225.41 Z" />
<path fill="#ffffff" opacity="1.00" d=" M 3649.49 1192.01 C 3655.31 1191.99 3661.15 1192.00 3667.00 1192.00 C 3667.00 1217.50 3667.00 1243.00 3667.00 1268.50 C 3699.58 1268.50 3732.16 1268.49 3764.74 1268.50 C 3764.75 1243.00 3764.74 1217.50 3764.75 1192.00 C 3770.65 1192.00 3776.57 1191.99 3782.51 1192.01 C 3782.50 1250.67 3782.50 1309.33 3782.51 1367.99 C 3776.57 1368.00 3770.65 1367.99 3764.75 1368.00 C 3764.75 1340.50 3764.74 1313.00 3764.75 1285.50 C 3732.26 1285.50 3699.76 1285.51 3667.27 1285.49 C 3666.54 1312.99 3667.32 1340.50 3667.25 1368.00 C 3661.32 1367.99 3655.40 1368.00 3649.49 1367.99 C 3649.50 1309.33 3649.50 1250.67 3649.49 1192.01 Z" />
<path fill="#ffffff" opacity="1.00" d=" M 4284.25 1192.00 C 4289.73 1192.00 4295.23 1191.99 4300.75 1192.00 C 4325.54 1250.70 4350.61 1309.29 4375.42 1367.98 C 4368.98 1368.02 4362.57 1367.99 4356.17 1368.00 C 4349.97 1353.07 4343.45 1338.28 4337.46 1323.26 C 4307.97 1323.24 4278.48 1323.26 4249.00 1323.25 C 4242.90 1338.17 4236.56 1352.99 4230.56 1367.94 C 4224.19 1368.06 4217.82 1367.97 4211.48 1368.00 C 4235.76 1309.35 4260.02 1250.68 4284.25 1192.00 M 4292.69 1216.79 C 4280.47 1246.81 4268.05 1276.75 4255.83 1306.78 C 4280.71 1306.72 4305.59 1306.76 4330.48 1306.75 C 4317.80 1276.80 4305.43 1246.71 4292.69 1216.79 Z" />
</g>
</svg>
