<?xml version="1.0" encoding="UTF-8" ?>
<!DOCTYPE svg PUBLIC "-//W3C//DTD SVG 1.1//EN" "http://www.w3.org/Graphics/SVG/1.1/DTD/svg11.dtd">
<svg width="650pt" height="650pt" viewBox="0 0 650 650" version="1.1" xmlns="http://www.w3.org/2000/svg">
<g id="#548e3bff">
<path fill="#548e3b" opacity="1.00" d=" M 80.51 47.93 C 85.29 36.48 89.43 24.57 96.65 14.35 C 100.19 15.26 103.59 17.27 105.22 20.68 C 108.78 27.22 108.38 35.28 112.61 41.53 C 114.47 44.35 117.73 45.73 120.96 46.23 C 127.87 41.33 134.88 36.56 141.85 31.73 C 143.02 30.45 144.12 32.28 144.97 32.93 C 148.48 36.23 149.95 41.28 149.12 45.98 C 147.59 55.79 141.26 64.07 139.63 73.87 C 146.85 73.46 154.60 74.05 160.73 78.26 C 166.26 81.98 169.37 88.34 170.58 94.75 C 160.31 96.21 150.06 97.78 139.80 99.30 C 143.46 112.87 147.53 126.33 150.97 139.97 C 139.12 137.74 127.91 132.58 118.37 125.23 C 111.08 138.01 104.61 151.24 97.75 164.26 C 92.29 152.14 87.95 139.55 82.50 127.43 C 70.98 129.53 61.68 138.03 49.89 139.13 C 45.84 130.99 48.75 121.79 51.99 113.93 C 53.74 109.57 55.46 105.18 56.51 100.59 C 49.20 98.56 41.47 98.25 34.35 95.54 C 31.40 94.38 28.27 92.31 27.70 88.95 C 27.06 85.02 29.03 81.35 30.95 78.09 C 39.52 76.58 48.07 74.99 56.62 73.36 C 53.22 60.85 46.32 48.64 48.22 35.27 C 52.89 33.54 58.14 34.08 62.41 36.62 C 68.70 39.99 73.91 45.10 80.51 47.93 M 84.98 67.88 C 79.50 72.23 75.15 78.19 73.03 84.88 C 73.36 97.85 85.67 105.00 93.97 113.10 C 101.98 109.76 110.48 107.24 118.19 103.38 C 120.88 93.76 122.94 82.79 118.50 73.37 C 115.81 67.56 109.52 65.01 103.80 63.21 C 97.22 61.39 90.18 63.75 84.98 67.88 Z" />
<path fill="#548e3b" opacity="1.00" d=" M 335.81 47.84 C 339.50 38.74 354.21 37.03 359.28 45.75 C 363.34 53.31 361.17 62.22 361.52 70.40 C 352.82 70.41 344.12 70.82 335.42 70.92 C 334.37 63.32 332.83 55.19 335.81 47.84 Z" />
<path fill="#548e3b" opacity="1.00" d=" M 527.97 52.03 C 533.89 53.55 539.77 56.43 543.38 61.55 C 546.34 65.52 547.59 70.43 548.26 75.26 C 554.92 72.78 561.67 69.83 568.91 69.78 C 573.75 69.72 578.45 71.63 582.08 74.80 C 577.65 82.46 573.40 90.23 569.09 97.96 C 576.60 99.62 584.12 101.29 591.65 102.94 C 591.41 108.76 591.25 114.59 590.94 120.41 C 584.21 121.24 577.49 122.20 570.76 123.09 C 574.05 133.67 578.38 144.59 576.42 155.89 C 566.85 153.60 557.57 150.28 548.24 147.16 C 548.62 152.94 548.07 159.47 543.80 163.82 C 540.01 167.84 533.46 168.06 528.95 165.16 C 523.12 161.65 520.43 154.78 519.86 148.27 C 510.53 150.81 501.17 153.22 491.83 155.70 C 493.02 145.99 494.29 136.29 495.51 126.59 C 489.84 123.52 483.35 121.04 479.50 115.60 C 476.78 111.75 477.60 106.71 479.44 102.69 C 486.21 101.18 492.97 99.58 499.72 97.96 C 496.68 89.02 493.37 80.14 491.35 70.90 C 495.33 68.55 500.17 68.17 504.56 69.53 C 510.49 71.18 515.94 74.24 521.99 75.54 C 523.93 67.69 525.99 59.87 527.97 52.03 M 529.38 95.49 C 520.41 100.17 516.33 113.09 522.43 121.54 C 526.19 125.36 531.16 129.41 536.92 128.35 C 545.70 126.83 553.43 118.23 552.42 109.08 C 551.86 103.78 547.26 100.39 543.08 97.81 C 539.03 95.46 533.97 93.64 529.38 95.49 Z" />
<path fill="#548e3b" opacity="1.00" d=" M 288.75 143.83 C 292.01 140.47 296.80 139.32 301.35 139.31 C 303.08 146.78 304.76 154.26 306.50 161.74 C 316.30 158.52 326.32 153.92 336.89 155.79 C 333.71 164.07 330.38 172.28 327.08 180.50 C 334.98 183.57 342.84 186.75 350.75 189.80 C 348.80 193.48 346.85 197.16 344.86 200.82 C 339.13 203.23 333.42 205.71 327.71 208.19 C 330.80 216.90 334.01 225.58 337.11 234.29 C 327.51 233.29 317.93 232.18 308.33 231.19 C 307.26 236.84 304.46 242.46 299.42 245.55 C 295.59 248.04 290.08 248.60 286.40 245.51 C 282.44 242.25 281.50 236.83 281.15 231.99 C 271.26 232.75 261.35 233.35 251.44 233.64 C 253.95 225.23 256.51 216.83 259.10 208.44 C 253.12 207.34 246.98 204.65 243.70 199.27 C 241.32 195.64 240.51 191.28 240.16 187.02 C 246.27 185.37 252.38 183.68 258.50 182.01 C 257.30 171.89 256.00 161.79 254.83 151.67 C 263.53 155.26 272.17 159.00 280.79 162.78 C 282.37 156.13 283.79 148.89 288.75 143.83 M 289.40 181.51 C 284.34 182.46 280.50 186.87 279.94 191.93 C 278.76 198.54 282.70 207.05 290.10 207.50 C 295.20 207.23 301.51 208.71 305.26 204.22 C 310.49 197.72 307.92 187.19 301.45 182.47 C 297.97 179.87 293.30 180.06 289.40 181.51 Z" />
<path fill="#548e3b" opacity="1.00" d=" M 154.39 183.53 C 157.28 182.74 160.49 182.43 163.27 183.74 C 169.89 186.71 172.76 195.84 169.04 202.06 C 166.53 206.08 161.49 207.60 157.00 207.75 C 147.78 207.33 142.53 194.95 147.64 187.62 C 149.21 185.37 151.81 184.17 154.39 183.53 Z" />
<path fill="#548e3b" opacity="1.00" d=" M 457.33 206.61 C 461.45 205.50 467.05 203.99 470.34 207.66 C 472.91 211.51 471.54 216.55 470.39 220.67 C 466.60 222.45 461.56 223.43 457.69 221.31 C 454.12 218.54 455.06 213.38 455.81 209.52 C 456.21 208.56 456.06 206.86 457.33 206.61 Z" />
<path fill="#548e3b" opacity="1.00" d=" M 264.85 273.84 C 287.71 264.87 312.50 260.57 337.05 262.19 C 355.96 263.42 374.76 268.34 391.41 277.50 C 396.80 280.13 401.48 284.27 404.37 289.57 C 410.77 301.15 410.81 314.75 413.10 327.47 C 449.21 313.44 487.98 304.03 526.96 306.83 C 546.97 308.23 566.71 313.51 584.72 322.35 C 597.25 329.49 604.35 342.63 611.21 354.76 C 605.67 367.73 595.39 378.27 583.21 385.21 C 567.66 394.24 550.01 398.60 532.58 402.35 C 562.74 408.73 593.33 416.62 619.67 433.25 C 627.84 438.12 635.28 444.58 639.89 453.01 C 644.72 461.40 646.52 472.17 642.16 481.13 C 636.78 491.82 627.98 500.57 617.79 506.74 C 605.23 514.34 590.63 518.33 576.01 518.93 C 566.34 519.04 556.69 520.02 547.03 519.48 C 503.99 518.07 462.46 504.13 423.68 486.19 C 429.16 500.65 433.05 516.16 431.60 531.74 C 430.65 541.49 427.07 551.12 420.67 558.62 C 417.26 562.54 414.28 566.87 410.38 570.35 C 400.50 579.59 387.86 585.27 374.97 588.93 C 362.83 592.41 350.31 594.32 337.85 596.29 C 336.40 606.64 338.15 617.78 333.39 627.43 C 330.38 633.57 323.09 635.59 316.75 635.28 C 314.38 622.50 318.52 608.67 312.43 596.61 C 291.33 592.81 269.57 589.06 250.71 578.28 C 238.77 571.57 228.88 561.09 223.69 548.33 C 217.33 536.24 217.59 521.96 220.21 508.88 C 221.68 501.14 223.78 493.53 225.66 485.88 C 185.92 506.17 141.88 519.08 97.06 519.38 C 83.94 519.58 70.82 518.53 57.84 516.66 C 35.52 512.86 15.39 497.85 5.53 477.44 C 4.08 474.78 5.01 471.68 5.25 468.86 C 6.88 456.74 14.11 446.03 23.36 438.32 C 37.60 426.32 55.27 419.61 72.53 413.26 C 85.15 407.21 99.73 412.21 112.70 407.72 C 118.14 405.86 121.88 400.93 123.46 395.56 C 114.02 399.90 103.09 399.94 93.27 396.89 C 81.03 393.24 70.11 386.38 59.38 379.64 C 54.64 376.91 50.04 373.54 47.37 368.64 C 40.12 355.67 44.27 337.94 55.83 328.86 C 79.54 312.80 108.46 305.60 136.92 305.80 C 171.78 305.93 205.98 315.17 238.11 328.18 C 237.29 314.66 239.62 300.52 247.06 289.00 C 251.34 282.36 257.52 276.87 264.85 273.84 M 259.31 303.83 C 260.66 313.57 262.16 323.30 263.61 333.03 C 303.89 320.56 347.87 320.88 388.09 333.44 C 388.98 324.08 390.96 314.24 387.59 305.15 C 385.60 299.63 380.71 295.70 375.32 293.75 C 338.11 278.59 292.80 280.56 259.31 303.83 M 66.49 348.56 C 64.98 352.75 65.97 357.63 69.35 360.62 C 74.49 365.30 81.19 367.66 87.30 370.75 C 123.54 385.11 162.87 387.44 201.08 392.77 C 211.71 377.96 222.98 363.62 234.91 349.84 C 203.36 337.59 170.12 327.80 136.00 327.86 C 111.50 327.82 86.63 334.28 66.49 348.56 M 415.24 350.00 C 426.89 362.76 437.58 376.46 446.30 391.40 C 475.40 388.91 504.77 387.17 533.23 380.16 C 551.66 375.63 569.62 368.59 585.48 358.06 C 584.95 353.35 582.92 348.79 579.34 345.62 C 572.42 339.27 563.08 336.85 554.60 333.38 C 549.06 330.77 542.84 330.53 536.89 329.63 C 495.40 324.77 453.45 334.06 415.24 350.00 M 301.13 346.58 C 275.70 351.07 251.42 363.77 234.64 383.62 C 228.50 389.80 223.93 398.05 223.97 406.95 C 223.87 412.40 226.13 417.94 230.42 421.41 C 240.55 429.76 252.36 435.94 264.74 440.25 C 289.50 448.75 316.14 450.36 342.11 448.62 C 362.89 446.00 384.29 442.98 402.97 432.89 C 415.11 426.40 425.17 415.87 430.16 402.95 C 420.70 385.45 406.03 370.96 388.76 361.16 C 362.48 346.17 330.83 341.25 301.13 346.58 M 453.24 413.06 C 442.53 430.70 426.81 444.96 409.02 455.26 C 424.55 463.08 440.43 470.24 456.64 476.53 C 492.98 490.59 531.86 499.98 571.04 498.00 C 583.31 496.03 595.91 493.89 606.94 487.86 C 614.49 483.81 620.69 476.79 622.41 468.25 C 616.83 459.16 608.90 451.48 599.37 446.62 C 590.23 442.10 580.76 438.27 571.10 435.01 C 533.02 422.25 492.81 418.54 453.24 413.06 M 56.93 442.93 C 46.42 447.99 35.33 454.47 30.24 465.52 C 27.97 469.55 29.77 474.38 31.90 478.07 C 36.60 485.49 45.13 489.07 53.12 491.78 C 74.21 499.07 97.05 499.54 119.04 497.07 C 162.08 491.77 202.00 473.66 241.25 456.24 C 238.42 453.81 235.05 452.13 232.11 449.86 C 218.59 440.26 206.94 428.02 198.30 413.85 C 150.54 419.30 101.54 423.59 56.93 442.93 M 266.78 465.66 C 254.19 480.08 244.55 497.65 241.91 516.80 C 240.64 526.58 241.05 536.72 243.90 546.19 C 253.39 554.98 264.95 561.42 277.02 566.00 C 300.88 574.86 327.07 575.86 352.04 571.89 C 362.62 570.09 373.40 568.10 382.95 562.94 C 394.64 556.91 405.14 547.01 408.79 534.05 C 411.43 525.54 409.86 516.47 407.60 508.07 C 402.97 491.88 393.18 477.80 382.58 464.95 C 344.37 471.96 305.16 470.50 266.78 465.66 Z" />
<path fill="#548e3b" opacity="1.00" d=" M 341.24 376.30 C 347.68 374.06 355.62 377.39 358.45 383.61 C 361.01 389.57 356.15 396.76 349.95 397.57 C 343.86 398.47 337.00 395.17 334.66 389.32 C 332.70 384.13 336.28 378.15 341.24 376.30 Z" />
<path fill="#548e3b" opacity="1.00" d=" M 394.57 388.29 C 398.93 387.23 404.44 385.38 408.21 388.78 C 411.13 392.77 409.13 398.02 407.94 402.29 C 403.56 403.29 397.91 405.17 394.23 401.60 C 391.45 397.63 393.38 392.50 394.57 388.29 Z" />
<path fill="#548e3b" opacity="1.00" d=" M 258.50 417.46 C 259.62 410.26 260.55 403.03 261.80 395.84 C 265.41 395.18 269.56 394.91 272.55 397.46 C 277.68 401.72 279.44 408.46 282.42 414.16 C 274.45 415.27 266.47 416.36 258.50 417.46 Z" />
<path fill="#548e3b" opacity="1.00" d=" M 370.14 403.12 C 378.57 401.16 385.47 410.25 384.04 418.09 C 383.32 427.55 369.42 431.64 363.39 424.59 C 359.40 420.10 358.30 412.80 361.70 407.69 C 363.57 404.86 366.95 403.66 370.14 403.12 Z" />
<path fill="#548e3b" opacity="1.00" d=" M 311.09 416.08 C 314.17 411.04 321.17 410.12 326.50 411.33 C 329.38 411.97 332.35 414.59 331.57 417.81 C 330.73 423.09 331.23 428.45 331.31 433.76 C 325.22 430.02 317.36 430.73 311.55 426.47 C 308.47 423.83 310.09 419.35 311.09 416.08 Z" />
</g>
</svg>
