<?xml version="1.0" encoding="UTF-8" ?>
<!DOCTYPE svg PUBLIC "-//W3C//DTD SVG 1.1//EN" "http://www.w3.org/Graphics/SVG/1.1/DTD/svg11.dtd">
<svg width="650pt" height="650pt" viewBox="0 0 650 650" version="1.1" xmlns="http://www.w3.org/2000/svg">
<g id="#548e3bff">
<path fill="#548e3b" opacity="1.00" d=" M 263.06 12.79 C 289.34 11.07 315.69 10.06 342.03 10.77 C 341.80 17.69 341.60 24.61 341.47 31.54 C 316.59 29.74 291.73 32.65 266.93 34.29 C 264.87 34.34 262.47 34.67 260.78 33.20 C 259.15 31.64 259.24 29.14 259.55 27.09 C 260.34 22.23 262.33 17.66 263.06 12.79 Z" />
<path fill="#548e3b" opacity="1.00" d=" M 386.08 31.10 C 389.80 26.47 396.63 25.40 402.08 27.11 C 426.32 34.57 447.41 49.61 465.92 66.61 C 462.92 72.12 459.73 77.51 456.64 82.97 C 435.47 67.92 412.36 55.98 389.80 43.23 C 385.78 40.98 382.96 35.16 386.08 31.10 Z" />
<path fill="#548e3b" opacity="1.00" d=" M 520.90 51.17 C 519.07 42.27 521.39 32.39 527.58 25.63 C 536.18 26.42 544.79 27.05 553.40 27.74 C 555.89 36.16 558.29 45.09 556.54 53.89 C 555.64 58.49 552.05 62.60 547.28 63.25 C 541.96 63.78 536.44 65.64 531.17 63.81 C 525.61 62.07 522.00 56.68 520.90 51.17 Z" />
<path fill="#548e3b" opacity="1.00" d=" M 156.96 65.91 C 172.19 51.73 192.43 44.87 208.75 32.20 C 212.37 37.78 216.00 43.36 219.58 48.96 C 201.42 59.05 187.74 75.36 169.82 85.81 C 162.05 90.37 153.24 93.32 144.18 93.46 C 143.92 82.87 149.31 72.95 156.96 65.91 Z" />
<path fill="#548e3b" opacity="1.00" d=" M 42.32 81.33 C 46.47 70.17 51.49 59.37 56.47 48.56 C 69.04 50.20 81.62 51.76 94.23 53.07 C 95.95 66.37 97.90 79.64 99.78 92.92 C 87.26 97.14 74.82 101.55 62.37 105.97 C 61.93 102.48 61.19 98.90 59.04 96.02 C 54.67 89.88 47.68 86.47 42.32 81.33 Z" />
<path fill="#548e3b" opacity="1.00" d=" M 222.42 90.47 C 241.90 71.48 269.44 63.65 295.94 61.46 C 319.69 59.97 343.94 60.38 367.02 66.80 C 384.21 71.52 400.79 79.83 413.30 92.74 C 418.34 97.76 422.09 103.87 426.92 109.07 C 439.18 122.86 454.22 134.63 462.85 151.29 C 467.95 161.83 471.45 173.16 473.17 184.76 C 476.06 203.71 474.99 222.94 474.90 242.03 C 475.70 257.05 479.90 271.89 478.46 287.01 C 477.79 294.16 475.50 301.30 471.01 306.98 C 467.43 311.76 462.10 314.75 458.24 319.25 C 445.45 333.18 439.94 351.69 431.09 368.03 C 423.32 382.72 411.93 394.97 402.60 408.61 C 394.76 419.91 389.46 433.71 391.62 447.64 C 425.03 453.91 459.14 461.57 488.41 479.63 C 502.72 488.50 515.50 500.05 524.94 514.04 C 535.31 529.73 540.76 548.29 542.24 566.94 C 544.17 590.83 540.43 614.79 534.73 637.94 C 529.30 637.33 523.71 634.96 520.93 629.99 C 516.50 622.16 516.95 612.83 515.88 604.17 C 498.10 603.53 480.29 603.91 462.53 605.01 C 460.64 616.25 458.63 627.47 456.56 638.68 C 451.85 637.46 447.14 636.26 442.44 635.03 C 437.29 612.32 438.44 588.81 440.77 565.82 C 451.25 576.23 465.64 581.92 480.20 583.35 C 494.69 585.00 509.25 583.56 523.74 582.83 C 519.54 563.20 516.47 542.63 505.71 525.28 C 499.15 514.39 488.90 506.49 478.53 499.48 C 452.77 482.51 422.21 474.02 391.67 471.49 C 391.01 485.92 385.65 500.12 376.26 511.13 C 353.47 538.16 311.65 546.80 280.05 530.91 C 274.35 527.79 268.37 524.94 263.59 520.44 C 249.50 507.36 244.56 488.05 238.70 470.45 C 215.28 474.82 191.58 479.57 169.92 489.86 C 150.77 499.03 133.00 512.94 122.98 532.01 C 114.67 547.66 110.89 565.31 109.43 582.86 C 128.65 583.46 147.88 583.84 167.11 584.05 C 173.18 577.69 178.28 570.26 184.08 563.58 C 191.84 573.57 193.59 586.65 193.50 598.94 C 193.42 610.43 192.25 621.95 193.47 633.42 C 187.41 634.69 179.57 635.14 175.55 629.45 C 170.75 622.10 171.90 612.83 171.75 604.50 C 152.99 604.31 134.23 604.32 115.48 604.77 C 113.82 615.93 112.20 627.10 110.47 638.25 C 104.28 636.89 98.50 633.15 95.58 627.40 C 90.91 618.41 91.10 607.98 90.27 598.14 C 87.59 574.05 90.61 549.01 100.88 526.92 C 110.93 505.04 129.10 487.67 149.82 475.84 C 177.18 460.38 208.35 453.73 239.03 448.53 C 239.59 439.68 239.68 430.80 240.13 421.95 C 219.75 398.26 201.41 372.28 189.94 343.04 C 182.33 325.99 165.42 315.32 157.81 298.27 C 154.92 291.23 153.09 283.60 153.53 275.95 C 153.94 267.20 155.89 258.62 156.53 249.89 C 159.92 221.29 155.15 191.57 164.59 163.82 C 167.58 156.31 169.97 148.39 174.83 141.81 C 183.24 130.02 195.33 121.68 205.18 111.23 C 211.56 104.83 215.70 96.57 222.42 90.47 M 301.08 82.11 C 284.83 83.71 268.57 87.45 254.01 95.03 C 241.76 101.40 230.91 110.79 223.78 122.70 C 222.16 125.74 218.98 127.34 216.50 129.58 C 198.64 144.75 185.90 165.87 180.85 188.76 C 176.80 206.81 178.03 226.17 185.34 243.24 C 192.94 225.17 196.33 205.35 206.52 188.40 C 212.11 178.96 220.65 171.01 231.13 167.41 C 235.33 166.41 239.71 166.84 244.00 166.75 C 283.06 167.57 320.00 183.64 359.06 184.42 C 377.32 184.89 395.80 180.83 411.72 171.73 C 430.44 192.67 436.65 220.94 450.89 244.60 C 451.40 232.08 452.43 219.58 452.62 207.05 C 452.82 189.25 450.31 170.29 439.33 155.68 C 427.33 141.09 412.64 128.92 401.17 113.87 C 397.65 109.13 393.53 104.82 388.81 101.26 C 372.26 88.73 351.23 84.63 331.08 82.19 C 321.14 80.66 311.05 81.22 301.08 82.11 M 236.72 188.83 C 232.95 191.26 230.14 194.93 227.44 198.46 C 213.05 218.74 211.97 245.63 196.12 265.10 C 207.46 281.60 218.61 298.26 228.62 315.61 C 259.00 305.75 289.47 292.95 321.99 293.52 C 347.88 294.48 370.86 307.66 395.06 315.32 C 412.24 300.98 420.11 279.16 434.66 262.60 C 423.76 243.28 415.03 222.77 408.24 201.67 C 371.29 206.17 333.16 207.05 296.99 197.04 C 287.68 195.35 278.57 192.80 269.43 190.38 C 258.83 187.74 247.44 185.66 236.72 188.83 M 212.71 342.49 C 219.22 354.04 224.67 366.40 233.61 376.37 C 235.56 378.77 238.68 379.57 241.39 380.81 C 270.45 393.12 302.67 397.00 333.98 394.10 C 356.80 392.05 379.22 386.47 400.63 378.40 C 406.98 366.23 413.40 354.10 420.06 342.11 C 400.40 341.72 382.01 334.02 363.96 327.02 C 345.91 319.97 326.66 313.40 307.00 315.91 C 274.40 320.26 244.74 335.79 212.71 342.49 M 266.09 413.00 C 282.34 426.44 304.08 432.99 325.06 430.70 C 341.67 429.03 357.64 421.65 369.56 409.93 C 335.74 418.72 300.49 415.60 266.09 413.00 M 326.96 453.08 C 304.35 455.43 281.27 450.02 261.47 439.01 C 261.86 457.77 261.16 478.05 271.46 494.61 C 281.33 509.43 299.57 517.05 317.00 517.15 C 332.34 517.33 348.38 511.18 357.69 498.60 C 361.69 492.79 365.67 486.77 367.55 479.89 C 371.51 466.29 370.22 451.98 371.21 438.03 C 357.84 446.30 342.61 451.55 326.96 453.08 Z" />
<path fill="#548e3b" opacity="1.00" d=" M 487.83 106.35 C 494.03 104.92 501.09 104.61 506.60 108.30 C 510.42 110.67 511.90 115.11 514.43 118.60 C 527.26 137.63 537.50 159.12 539.71 182.23 C 533.70 182.41 527.69 182.43 521.68 182.52 C 516.69 165.67 506.13 151.37 497.94 136.03 C 492.96 126.80 488.97 116.86 487.83 106.35 Z" />
<path fill="#548e3b" opacity="1.00" d=" M 108.31 126.92 C 114.50 126.20 120.91 126.83 127.19 126.63 C 118.09 153.48 106.18 179.29 97.31 206.23 C 90.94 205.33 84.58 204.41 78.23 203.44 C 84.31 176.73 90.95 148.83 108.31 126.92 Z" />
<path fill="#548e3b" opacity="1.00" d=" M 587.44 149.45 C 595.49 149.00 603.52 148.20 611.58 148.04 C 614.12 155.86 615.98 164.77 612.47 172.58 C 609.38 179.35 600.61 180.72 594.13 178.81 C 590.07 177.35 587.98 173.08 587.31 169.08 C 586.17 162.58 586.93 155.97 587.44 149.45 Z" />
<path fill="#548e3b" opacity="1.00" d=" M 360.23 222.22 C 363.71 217.23 370.22 215.60 375.99 215.76 C 385.72 216.16 395.71 220.43 401.54 228.44 C 404.78 232.81 405.51 238.48 404.50 243.73 C 389.03 241.41 373.61 238.79 358.16 236.35 C 357.46 231.61 357.31 226.30 360.23 222.22 Z" />
<path fill="#548e3b" opacity="1.00" d=" M 245.24 219.13 C 254.96 216.42 265.18 216.21 275.21 216.49 C 275.77 220.99 276.14 225.84 273.95 229.99 C 271.57 234.63 266.69 237.27 261.88 238.73 C 251.44 241.90 240.33 241.54 229.81 244.36 C 228.78 239.51 228.26 234.19 230.60 229.63 C 233.38 223.94 239.42 220.84 245.24 219.13 Z" />
<path fill="#548e3b" opacity="1.00" d=" M 533.79 224.78 C 539.34 226.09 544.88 227.41 550.44 228.72 C 553.37 257.31 554.34 287.70 541.98 314.40 C 536.99 314.28 532.00 314.14 527.02 314.09 C 524.56 284.07 533.57 254.71 533.79 224.78 Z" />
<path fill="#548e3b" opacity="1.00" d=" M 77.09 253.23 C 81.76 251.91 86.44 250.58 91.12 249.28 C 96.55 278.17 103.55 306.79 107.42 335.96 C 100.69 334.62 93.98 333.19 87.26 331.80 C 82.90 318.12 78.54 304.36 76.28 290.15 C 74.34 277.94 74.12 265.30 77.09 253.23 Z" />
<path fill="#548e3b" opacity="1.00" d=" M 256.48 252.80 C 261.31 251.19 266.88 253.11 269.80 257.25 C 274.46 263.43 275.14 273.54 269.10 279.06 C 265.26 282.63 259.74 281.83 254.96 282.42 C 251.14 283.07 247.46 280.55 245.95 277.14 C 243.45 271.63 243.77 264.93 246.63 259.62 C 248.58 255.89 252.71 254.12 256.48 252.80 Z" />
<path fill="#548e3b" opacity="1.00" d=" M 358.97 255.90 C 366.11 256.33 372.86 252.82 379.99 253.61 C 383.55 254.04 387.36 256.98 386.97 260.89 C 387.19 267.58 387.37 274.26 387.66 280.95 C 379.60 281.44 371.54 281.91 363.48 282.44 C 361.95 273.59 360.52 264.74 358.97 255.90 Z" />
<path fill="#548e3b" opacity="1.00" d=" M 459.63 414.25 C 472.81 391.68 491.49 372.99 505.83 351.20 C 511.74 353.73 518.57 356.27 521.84 362.23 C 523.94 366.32 520.78 370.24 518.20 373.17 C 508.32 386.94 500.80 402.58 488.47 414.47 C 481.82 421.01 473.34 425.81 464.09 427.36 C 462.70 422.97 460.37 418.73 459.63 414.25 Z" />
<path fill="#548e3b" opacity="1.00" d=" M 114.09 381.64 C 116.47 378.66 117.76 373.97 121.97 373.15 C 126.71 371.62 131.85 373.34 135.56 376.42 C 144.09 383.32 149.10 393.45 157.05 400.90 C 161.08 404.20 164.38 408.26 168.21 411.78 C 172.53 416.17 177.04 420.55 180.10 425.96 C 181.64 428.72 182.76 432.22 181.30 435.26 C 179.96 438.08 176.99 439.47 174.32 440.73 C 164.80 437.45 155.99 432.24 148.46 425.57 C 134.33 413.24 124.05 397.34 114.09 381.64 Z" />
<path fill="#548e3b" opacity="1.00" d=" M 541.39 438.47 C 554.04 436.38 566.62 433.93 579.09 430.92 C 584.29 442.27 590.88 453.00 599.07 462.45 C 590.67 470.71 584.80 481.59 574.55 487.88 C 563.15 484.44 551.78 480.80 540.07 478.55 C 541.39 472.07 543.22 465.68 544.28 459.16 C 543.43 452.25 542.20 445.39 541.39 438.47 Z" />
<path fill="#548e3b" opacity="1.00" d=" M 36.21 463.41 C 46.79 462.74 57.41 462.96 68.00 463.34 C 66.68 472.90 65.11 482.43 63.69 491.98 C 56.58 493.03 48.41 492.35 43.12 486.95 C 37.28 480.82 35.36 471.49 36.21 463.41 Z" />
</g>
</svg>
