<?xml version="1.0" encoding="UTF-8" ?>
<!DOCTYPE svg PUBLIC "-//W3C//DTD SVG 1.1//EN" "http://www.w3.org/Graphics/SVG/1.1/DTD/svg11.dtd">
<svg width="650pt" height="650pt" viewBox="0 0 650 650" version="1.1" xmlns="http://www.w3.org/2000/svg">
<g id="#548e3bff">
<path fill="#548e3b" opacity="1.00" d=" M 305.15 38.19 C 313.92 28.49 322.78 18.78 330.10 7.91 C 340.86 17.66 352.56 26.47 362.00 37.59 C 351.80 48.03 341.79 58.69 332.72 70.15 C 325.42 58.00 315.09 48.14 305.15 38.19 Z" />
<path fill="#548e3b" opacity="1.00" d=" M 256.38 59.55 C 260.66 57.50 266.86 58.17 269.48 62.52 C 271.97 66.79 271.44 72.55 268.54 76.50 C 264.76 81.78 255.39 81.60 252.06 75.93 C 249.03 70.50 250.87 62.66 256.38 59.55 Z" />
<path fill="#548e3b" opacity="1.00" d=" M 116.49 113.54 C 130.46 102.56 143.79 90.79 156.68 78.56 C 160.14 90.62 169.15 101.46 181.61 104.67 C 181.68 113.40 174.69 119.49 168.62 124.68 C 163.80 128.82 159.18 133.69 157.54 140.03 C 154.15 138.61 150.76 137.16 147.40 135.67 C 145.81 131.59 143.41 127.77 140.00 124.98 C 133.22 119.29 124.56 116.79 116.49 113.54 Z" />
<path fill="#548e3b" opacity="1.00" d=" M 359.93 122.98 C 378.02 104.57 403.37 94.29 428.93 92.49 C 457.03 90.40 486.20 98.14 508.48 115.68 C 517.64 122.76 524.99 131.81 531.97 140.97 C 555.23 173.54 556.95 218.52 540.50 254.41 C 530.82 275.81 514.08 294.28 492.80 304.54 C 509.48 305.52 527.21 307.82 540.95 318.15 C 554.06 328.48 562.74 343.44 568.14 359.03 C 574.77 378.16 577.47 398.32 581.39 418.11 C 591.58 488.47 597.11 559.62 595.50 630.73 C 588.85 628.66 582.21 626.57 575.54 624.57 C 573.03 572.85 571.62 521.03 566.24 469.51 C 562.63 434.97 557.14 400.58 548.41 366.95 C 541.81 343.89 519.88 326.49 496.16 324.35 C 477.66 326.64 460.42 335.35 446.17 347.15 C 427.98 362.20 413.99 381.60 402.04 401.79 C 396.23 402.32 390.42 402.90 384.62 403.42 C 379.67 355.02 385.49 306.24 380.67 257.84 C 379.03 249.44 372.66 242.25 364.69 239.22 C 352.80 234.60 338.48 237.43 328.97 245.86 C 323.49 250.67 319.97 257.70 319.68 265.01 C 318.19 337.98 319.15 410.97 319.42 483.94 C 320.48 499.87 334.25 513.73 350.06 515.32 C 369.23 512.62 386.81 503.37 402.57 492.49 C 416.79 482.61 429.90 471.27 443.29 460.33 C 445.90 457.66 448.66 453.81 452.98 454.76 C 459.24 456.36 463.05 462.15 467.22 466.64 C 453.45 479.83 439.08 492.39 424.07 504.15 C 416.33 510.42 407.99 515.98 400.19 522.10 C 398.85 561.76 399.82 601.51 396.93 641.11 C 389.94 641.13 382.95 641.12 375.96 641.12 C 374.09 604.73 377.06 568.33 379.72 532.06 C 362.67 538.51 342.93 538.54 326.34 530.68 C 314.73 525.26 305.07 515.23 301.12 502.95 C 295.50 476.05 299.23 448.49 298.88 421.29 C 290.42 413.01 278.88 407.89 266.99 407.86 C 248.99 407.61 232.14 415.40 216.81 424.10 C 212.95 422.10 209.10 420.07 205.23 418.10 C 210.72 402.42 222.19 389.44 226.32 373.21 C 228.44 364.59 228.14 354.72 222.54 347.43 C 210.31 330.29 186.28 327.43 174.24 310.05 C 195.92 289.07 221.02 271.90 247.45 257.47 C 271.99 244.03 297.68 232.84 323.62 222.40 C 323.31 194.27 328.02 164.78 344.22 141.14 C 348.69 134.46 354.45 128.81 359.93 122.98 M 407.67 118.77 C 397.29 123.56 386.68 128.38 378.15 136.19 C 356.46 155.13 345.91 184.15 344.78 212.41 C 354.21 214.88 364.02 216.00 373.15 219.55 C 386.05 224.26 396.37 235.12 400.98 248.00 C 406.10 262.05 406.25 277.17 407.86 291.87 C 415.24 294.88 423.07 296.74 431.02 297.39 C 461.60 299.79 492.06 284.71 511.00 261.01 C 522.74 246.38 530.04 227.89 529.90 209.02 C 529.53 199.15 529.45 189.12 526.59 179.57 C 518.43 150.54 494.36 127.41 466.14 117.72 C 447.36 111.17 426.11 110.94 407.67 118.77 M 212.51 305.14 C 218.90 318.43 234.23 323.88 241.64 336.37 C 244.44 341.95 247.13 347.73 247.99 353.98 C 249.65 365.16 247.83 376.42 247.15 387.60 C 264.22 386.57 281.62 387.38 298.10 392.28 C 298.96 345.99 298.39 299.68 298.91 253.39 C 270.26 270.88 240.32 286.27 212.51 305.14 M 406.03 315.51 C 405.88 328.61 405.63 341.71 405.81 354.81 C 417.60 343.57 429.55 332.48 442.22 322.22 C 443.65 321.13 445.07 320.00 446.19 318.57 C 432.80 317.55 419.42 316.45 406.03 315.51 Z" />
<path fill="#548e3b" opacity="1.00" d=" M 246.49 165.61 C 248.75 162.86 251.60 160.40 255.09 159.42 C 259.37 158.15 263.93 159.29 267.86 161.13 C 277.48 165.61 285.10 173.45 294.89 177.62 C 293.28 184.15 291.68 190.69 290.03 197.22 C 278.83 191.69 266.25 188.62 256.37 180.68 C 251.53 176.89 248.20 171.48 246.49 165.61 Z" />
<path fill="#548e3b" opacity="1.00" d=" M 147.02 185.89 C 151.67 183.53 158.23 181.31 162.55 185.45 C 167.42 190.99 165.73 200.71 160.01 205.05 C 155.40 208.23 149.54 205.28 146.14 201.69 C 145.83 196.45 146.81 191.15 147.02 185.89 Z" />
<path fill="#548e3b" opacity="1.00" d=" M 205.45 187.35 C 232.31 192.56 259.49 198.05 284.41 209.74 C 285.42 216.16 286.39 222.59 287.39 229.01 C 260.06 224.27 232.33 218.65 207.56 205.63 C 206.85 199.54 206.16 193.44 205.45 187.35 Z" />
<path fill="#548e3b" opacity="1.00" d=" M 80.47 241.16 C 92.38 250.65 101.87 262.64 111.75 274.12 C 99.52 281.37 88.39 290.74 80.25 302.48 C 71.64 292.80 62.47 283.64 53.74 274.07 C 54.64 268.70 57.14 263.71 60.60 259.53 C 66.40 252.57 73.79 247.23 80.47 241.16 Z" />
<path fill="#548e3b" opacity="1.00" d=" M 92.48 363.71 C 99.91 361.37 106.56 369.00 106.86 375.96 C 107.79 383.34 99.41 390.15 92.44 387.38 C 86.80 384.98 83.49 378.31 84.57 372.35 C 85.30 368.27 88.70 365.09 92.48 363.71 Z" />
<path fill="#548e3b" opacity="1.00" d=" M 243.24 438.40 C 249.46 438.02 255.68 437.52 261.91 437.11 C 253.56 455.21 250.00 475.71 237.79 491.89 C 231.35 500.70 220.55 506.12 209.57 505.27 C 216.88 481.36 226.16 457.15 243.24 438.40 Z" />
<path fill="#548e3b" opacity="1.00" d=" M 278.40 446.65 C 282.70 445.18 287.08 447.19 290.82 449.22 C 293.70 464.96 284.98 479.28 278.23 492.77 C 273.65 489.18 269.18 485.45 264.58 481.88 C 266.09 473.55 267.06 465.03 269.92 457.01 C 271.51 452.82 273.91 448.24 278.40 446.65 Z" />
</g>
</svg>
