<?xml version="1.0" encoding="UTF-8" ?>
<!DOCTYPE svg PUBLIC "-//W3C//DTD SVG 1.1//EN" "http://www.w3.org/Graphics/SVG/1.1/DTD/svg11.dtd">
<svg width="2001pt" height="384pt" viewBox="0 0 2001 384" version="1.1" xmlns="http://www.w3.org/2000/svg">
<g id="#fc3f1dff">
<path fill="#fc3f1d" opacity="1.00" d=" M 126.28 20.17 C 158.44 10.06 193.45 9.34 226.02 17.94 C 260.07 26.86 291.28 46.13 314.58 72.49 C 335.10 95.48 349.53 123.84 355.97 153.98 C 363.42 188.43 360.52 225.06 347.57 257.85 C 336.94 284.95 319.58 309.36 297.51 328.34 C 270.30 351.94 235.83 367.02 200.02 370.89 C 167.34 374.56 133.65 369.15 103.87 355.14 C 75.20 341.81 50.23 320.69 32.19 294.74 C 11.97 265.90 0.72 230.98 0.00 195.78 L 0.00 187.17 C 1.12 142.08 19.89 97.70 51.75 65.74 C 72.34 44.72 98.19 28.89 126.28 20.17 M 128.49 101.53 C 112.62 113.77 104.46 134.25 105.00 154.00 C 104.59 165.21 106.66 176.54 111.23 186.80 C 119.10 203.99 134.08 216.45 149.06 227.33 C 132.63 251.58 116.03 275.74 99.78 300.12 C 113.79 300.22 127.81 300.27 141.82 300.09 C 158.98 273.24 176.37 246.54 193.59 219.72 C 179.51 207.76 161.73 199.73 150.72 184.36 C 144.00 175.06 141.49 163.35 141.77 152.03 C 141.42 142.85 144.30 133.46 150.40 126.51 C 158.55 117.32 171.16 113.99 182.98 113.03 C 190.71 112.96 198.44 113.02 206.17 113.00 C 206.30 175.33 206.24 237.67 206.20 300.00 C 218.46 300.42 230.74 300.10 243.00 300.17 C 243.00 228.11 243.00 156.05 243.00 84.00 C 223.32 83.99 203.63 84.01 183.94 83.99 C 164.43 84.72 144.04 89.05 128.49 101.53 Z" />
</g>
<g id="#fede5bff">
<path fill="#fede5b" opacity="1.00" d=" M 483.28 31.13 C 525.74 9.50 576.98 6.11 622.01 21.60 C 657.25 33.46 688.45 56.74 710.13 86.93 C 725.17 107.85 735.87 132.04 740.55 157.41 C 730.61 172.25 720.07 186.77 707.99 199.96 C 701.47 206.57 694.85 213.58 686.20 217.38 C 682.10 219.33 676.58 219.28 673.45 215.60 C 668.49 210.03 668.17 202.06 667.93 194.98 C 668.17 176.73 672.03 158.78 676.10 141.06 C 679.91 124.41 684.76 108.01 689.04 91.48 C 664.65 83.47 640.34 75.21 616.05 66.88 C 586.81 114.23 558.33 162.07 529.07 209.40 C 532.82 183.78 536.79 158.20 540.64 132.60 C 518.84 125.10 497.08 117.50 475.25 110.10 C 446.15 148.53 416.90 186.85 387.70 225.19 L 387.19 225.84 C 381.36 195.05 383.57 162.71 393.89 133.11 C 408.90 89.22 441.73 51.76 483.28 31.13 Z" />
<path fill="#fede5b" opacity="1.00" d=" M 128.49 101.53 C 144.04 89.05 164.43 84.72 183.94 83.99 C 203.63 84.01 223.32 83.99 243.00 84.00 C 243.00 156.05 243.00 228.11 243.00 300.17 C 230.74 300.10 218.46 300.42 206.20 300.00 C 206.24 237.67 206.30 175.33 206.17 113.00 C 198.44 113.02 190.71 112.96 182.98 113.03 C 171.16 113.99 158.55 117.32 150.40 126.51 C 144.30 133.46 141.42 142.85 141.77 152.03 C 141.49 163.35 144.00 175.06 150.72 184.36 C 161.73 199.73 179.51 207.76 193.59 219.72 C 176.37 246.54 158.98 273.24 141.82 300.09 C 127.81 300.27 113.79 300.22 99.78 300.12 C 116.03 275.74 132.63 251.58 149.06 227.33 C 134.08 216.45 119.10 203.99 111.23 186.80 C 106.66 176.54 104.59 165.21 105.00 154.00 C 104.46 134.25 112.62 113.77 128.49 101.53 Z" />
<path fill="#fede5b" opacity="1.00" d=" M 532.32 317.68 C 558.75 275.18 584.43 232.19 610.90 189.72 C 608.05 209.29 606.85 230.00 614.16 248.78 C 619.55 263.38 631.34 275.23 645.61 281.29 C 657.58 286.67 671.09 288.81 684.08 286.56 C 700.85 283.70 716.07 274.92 728.97 264.10 C 713.80 298.85 687.34 328.53 654.54 347.57 C 616.88 369.74 570.96 377.17 528.18 368.40 C 486.28 360.12 447.87 336.06 421.77 302.32 C 419.58 299.28 416.98 296.43 415.39 293.04 L 415.70 292.28 C 436.51 264.88 457.44 237.56 477.94 209.94 C 474.26 238.34 470.14 266.69 466.34 295.08 C 488.30 302.70 510.43 309.86 532.32 317.68 Z" />
</g>
<g id="#000000ff">
<path fill="#000000" opacity="1.00" d=" M 841.41 56.16 C 862.23 55.80 883.08 56.09 903.92 56.01 C 920.19 115.96 936.47 175.92 952.74 235.87 C 954.68 242.20 955.84 248.86 958.27 254.98 C 976.57 188.67 994.82 122.33 1013.08 56.01 C 1033.50 55.99 1053.93 56.01 1074.36 56.00 C 1074.40 146.33 1074.38 236.67 1074.37 327.00 C 1059.54 327.00 1044.71 327.01 1029.88 326.99 C 1029.86 262.65 1029.88 198.30 1029.87 133.96 C 1029.83 130.29 1030.05 126.61 1029.60 122.96 C 1011.44 190.97 992.76 258.84 974.62 326.86 C 961.54 327.09 948.44 327.10 935.36 326.86 C 917.22 258.86 898.57 191.00 880.37 123.02 C 879.80 139.00 880.28 155.01 880.12 171.00 C 880.12 223.00 880.13 275.00 880.12 326.99 C 867.21 326.90 854.30 327.21 841.40 326.83 C 841.62 273.89 841.43 220.95 841.50 168.01 C 841.44 130.73 841.62 93.44 841.41 56.16 Z" />
<path fill="#000000" opacity="1.00" d=" M 616.05 66.88 C 640.34 75.21 664.65 83.47 689.04 91.48 C 684.76 108.01 679.91 124.41 676.10 141.06 C 672.03 158.78 668.17 176.73 667.93 194.98 C 668.17 202.06 668.49 210.03 673.45 215.60 C 676.58 219.28 682.10 219.33 686.20 217.38 C 694.85 213.58 701.47 206.57 707.99 199.96 C 720.07 186.77 730.61 172.25 740.55 157.41 C 747.82 193.01 743.55 230.84 728.97 264.10 C 716.07 274.92 700.85 283.70 684.08 286.56 C 671.09 288.81 657.58 286.67 645.61 281.29 C 631.34 275.23 619.55 263.38 614.16 248.78 C 606.85 230.00 608.05 209.29 610.90 189.72 C 584.43 232.19 558.75 275.18 532.32 317.68 C 510.43 309.86 488.30 302.70 466.34 295.08 C 470.14 266.69 474.26 238.34 477.94 209.94 C 457.44 237.56 436.51 264.88 415.70 292.28 L 415.03 292.57 L 414.41 292.26 C 401.22 272.22 391.43 249.63 387.37 225.95 L 387.70 225.19 C 416.90 186.85 446.15 148.53 475.25 110.10 C 497.08 117.50 518.84 125.10 540.64 132.60 C 536.79 158.20 532.82 183.78 529.07 209.40 C 558.33 162.07 586.81 114.23 616.05 66.88 Z" />
<path fill="#000000" opacity="1.00" d=" M 1360.51 137.39 C 1377.88 125.07 1401.53 124.11 1420.97 131.85 C 1436.80 138.11 1448.97 151.36 1456.46 166.39 C 1465.61 185.18 1468.79 206.30 1469.00 227.03 C 1469.07 248.44 1466.27 270.39 1456.81 289.82 C 1449.49 305.22 1437.10 318.56 1421.26 325.28 C 1402.46 333.06 1379.46 333.51 1361.97 322.16 C 1354.64 317.78 1349.20 311.11 1343.83 304.66 C 1343.68 330.90 1343.72 357.14 1343.81 383.38 C 1328.37 383.71 1312.92 383.35 1297.48 383.56 C 1297.18 299.40 1297.53 215.23 1297.31 131.07 C 1311.55 130.76 1325.87 130.71 1340.10 131.09 C 1341.38 139.21 1341.67 147.70 1342.62 155.95 C 1347.61 148.92 1353.26 142.20 1360.51 137.39 M 1373.46 164.67 C 1366.96 166.22 1360.88 169.80 1356.68 175.03 C 1352.41 180.23 1349.67 186.50 1347.89 192.95 C 1344.58 204.67 1343.89 216.92 1343.77 229.04 C 1343.88 241.18 1344.53 253.47 1347.70 265.25 C 1350.00 273.54 1353.68 281.89 1360.47 287.49 C 1367.43 293.49 1377.18 295.00 1386.07 293.97 C 1394.60 293.17 1402.99 289.20 1408.33 282.38 C 1413.33 276.23 1416.11 268.62 1417.92 260.99 C 1420.84 248.23 1421.22 235.04 1420.93 222.00 C 1420.46 209.84 1419.32 197.46 1414.90 186.02 C 1412.29 179.30 1408.22 172.86 1402.11 168.84 C 1393.80 163.24 1383.02 162.58 1373.46 164.67 Z" />
<path fill="#000000" opacity="1.00" d=" M 1692.73 148.74 C 1705.67 135.09 1724.39 128.09 1742.94 127.12 C 1760.57 126.19 1779.29 128.68 1794.16 138.84 C 1807.31 147.65 1815.86 161.94 1820.19 176.93 C 1827.04 199.13 1825.68 222.61 1825.71 245.52 C 1788.41 245.49 1751.11 245.47 1713.81 245.53 C 1714.66 257.01 1716.46 269.07 1723.34 278.65 C 1729.09 287.07 1739.03 291.59 1748.85 293.19 C 1765.63 295.87 1782.87 293.24 1798.88 287.89 C 1807.64 284.90 1816.11 280.98 1823.89 275.92 C 1823.84 288.52 1823.91 301.12 1823.86 313.73 C 1806.64 325.36 1785.60 329.86 1765.11 330.79 C 1743.37 331.63 1720.47 328.39 1702.07 316.04 C 1687.71 306.47 1677.66 291.45 1672.38 275.19 C 1665.75 254.73 1664.83 232.81 1666.76 211.52 C 1669.07 188.79 1676.27 165.30 1692.73 148.74 M 1723.43 175.53 C 1716.13 185.81 1714.45 198.83 1713.83 211.11 C 1735.45 211.02 1757.08 211.37 1778.69 210.93 C 1778.59 203.59 1778.46 196.20 1776.91 189.00 C 1775.39 181.94 1772.61 174.76 1767.03 169.91 C 1760.96 164.21 1752.06 162.99 1744.08 163.83 C 1735.94 164.59 1728.13 168.77 1723.43 175.53 Z" />
<path fill="#000000" opacity="1.00" d=" M 1117.68 145.85 C 1139.92 132.61 1166.30 127.01 1192.04 127.78 C 1204.36 128.20 1216.91 129.63 1228.37 134.44 C 1237.28 138.15 1245.34 144.29 1250.47 152.56 C 1258.15 164.50 1259.94 179.11 1260.10 193.02 C 1260.15 222.03 1260.11 251.04 1260.12 280.05 C 1260.01 295.73 1260.98 311.39 1262.38 327.00 C 1247.26 326.96 1232.15 327.08 1217.04 326.94 C 1215.13 321.89 1214.59 316.42 1213.23 311.30 L 1211.91 311.34 C 1208.32 314.64 1204.92 318.22 1200.72 320.76 C 1188.40 328.64 1173.23 330.22 1158.93 329.60 C 1143.37 328.83 1127.43 322.76 1117.37 310.48 C 1106.96 298.29 1103.39 281.73 1103.70 266.04 C 1103.84 254.90 1107.03 243.65 1113.75 234.67 C 1121.69 223.75 1133.98 216.99 1146.49 212.59 C 1168.06 205.42 1191.05 204.34 1213.61 204.50 C 1213.43 195.03 1214.85 184.75 1209.83 176.18 C 1205.93 169.13 1197.73 166.08 1190.13 165.26 C 1175.59 163.61 1160.92 166.23 1147.02 170.43 C 1136.75 173.66 1126.73 177.93 1117.83 184.06 C 1117.59 171.33 1117.89 158.59 1117.68 145.85 M 1183.07 236.77 C 1174.56 238.03 1165.65 240.16 1159.03 245.99 C 1152.85 251.38 1150.94 260.06 1151.27 267.94 C 1151.50 275.66 1153.89 283.81 1159.91 289.02 C 1166.95 295.38 1177.07 296.44 1186.14 295.50 C 1196.78 294.56 1207.32 289.39 1213.45 280.47 C 1213.85 265.47 1213.51 250.42 1213.62 235.40 C 1203.42 235.29 1193.18 235.31 1183.07 236.77 Z" />
<path fill="#000000" opacity="1.00" d=" M 1500.01 130.88 C 1515.46 130.87 1530.91 130.87 1546.37 130.88 C 1546.37 160.95 1546.40 191.01 1546.35 221.08 C 1568.53 191.34 1589.80 160.88 1611.91 131.09 C 1627.43 130.62 1643.03 130.95 1658.59 130.93 C 1636.94 161.16 1614.90 191.12 1593.27 221.36 C 1618.03 256.59 1642.92 291.74 1667.65 326.99 C 1650.13 327.01 1632.61 327.00 1615.09 326.99 C 1592.52 295.49 1570.14 263.86 1547.59 232.36 C 1547.28 231.99 1546.65 231.25 1546.34 230.88 C 1546.42 262.92 1546.36 294.96 1546.37 327.00 C 1530.91 327.00 1515.46 327.00 1500.00 327.00 C 1500.00 261.62 1499.99 196.25 1500.01 130.88 Z" />
<path fill="#000000" opacity="1.00" d=" M 1835.21 130.99 C 1887.09 130.73 1938.99 130.93 1990.88 130.90 C 1990.80 143.12 1991.01 155.35 1990.77 167.56 C 1972.69 167.33 1954.60 167.72 1936.53 167.37 C 1935.87 176.20 1936.43 185.10 1936.25 193.96 C 1936.24 238.31 1936.26 282.65 1936.24 327.00 C 1920.78 327.00 1905.33 327.01 1889.88 326.99 C 1889.88 273.84 1889.85 220.69 1889.89 167.53 C 1871.69 167.47 1853.49 167.49 1835.29 167.53 C 1835.16 155.35 1835.33 143.17 1835.21 130.99 Z" />
</g>
</svg>
