<?xml version="1.0" encoding="UTF-8" ?>
<!DOCTYPE svg PUBLIC "-//W3C//DTD SVG 1.1//EN" "http://www.w3.org/Graphics/SVG/1.1/DTD/svg11.dtd">
<svg width="650pt" height="650pt" viewBox="0 0 650 650" version="1.1" xmlns="http://www.w3.org/2000/svg">
<g id="#548e3bff">
<path fill="#548e3b" opacity="1.00" d=" M 332.75 23.67 C 336.78 28.25 341.04 32.64 344.85 37.40 C 347.28 50.33 349.91 63.27 351.85 76.29 C 345.27 76.93 338.70 77.63 332.12 78.15 C 329.41 82.16 327.96 87.03 324.45 90.46 C 322.27 92.40 318.11 93.56 316.16 90.76 C 307.68 81.44 297.61 73.34 285.96 68.35 C 294.72 56.97 302.31 43.22 300.68 28.36 C 310.90 31.16 321.13 33.92 331.35 36.70 C 331.85 32.36 332.29 28.01 332.75 23.67 Z" />
<path fill="#548e3b" opacity="1.00" d=" M 95.45 59.62 C 102.80 56.80 111.10 62.80 112.59 70.11 C 114.20 77.67 106.37 85.19 98.89 83.79 C 92.06 82.81 85.80 76.06 87.31 68.91 C 88.36 64.79 91.68 61.41 95.45 59.62 Z" />
<path fill="#548e3b" opacity="1.00" d=" M 344.71 98.70 C 376.86 86.05 416.44 97.03 437.90 124.01 C 443.22 130.64 447.13 138.30 449.84 146.33 C 462.93 178.73 455.43 218.80 430.38 243.43 C 421.96 251.87 411.27 257.46 400.50 262.29 C 373.64 273.84 343.85 275.12 315.02 275.00 C 245.69 275.11 176.16 275.10 107.15 267.46 C 82.69 264.80 58.31 261.24 34.15 256.54 C 36.75 250.74 39.26 244.90 41.81 239.08 C 135.84 248.02 230.20 257.86 324.79 254.23 C 337.13 253.94 349.39 252.33 361.55 250.33 C 379.90 247.07 398.67 241.40 412.94 228.89 C 424.08 218.90 432.34 205.17 434.17 190.17 C 436.76 169.97 429.82 148.87 416.16 133.84 C 407.09 123.83 394.46 116.82 380.90 115.67 C 367.08 114.87 352.37 116.58 340.83 124.86 C 322.15 137.88 312.44 160.22 308.65 182.04 C 301.96 180.77 295.27 179.49 288.57 178.27 C 290.82 155.19 299.49 131.82 316.66 115.68 C 324.58 107.95 334.66 103.05 344.71 98.70 Z" />
<path fill="#548e3b" opacity="1.00" d=" M 550.87 101.84 C 556.64 97.02 564.98 98.90 571.02 102.17 C 580.70 108.68 582.73 123.71 576.05 133.02 C 571.98 138.66 564.26 139.41 557.88 138.87 C 549.09 137.02 543.66 129.19 536.91 123.97 C 541.23 116.43 544.00 107.57 550.87 101.84 Z" />
<path fill="#548e3b" opacity="1.00" d=" M 179.86 165.40 C 187.22 164.09 194.50 162.34 201.84 160.90 C 200.13 175.23 207.84 188.04 213.72 200.47 C 206.16 205.19 197.71 208.91 191.66 215.66 C 188.60 218.96 186.78 223.16 185.56 227.44 C 178.73 223.28 173.04 217.29 169.54 210.08 C 162.13 208.88 154.67 208.00 147.23 206.94 C 151.65 192.42 154.46 177.47 158.86 162.94 C 165.90 163.45 172.85 164.76 179.86 165.40 Z" />
<path fill="#548e3b" opacity="1.00" d=" M 533.77 227.71 C 538.82 217.76 549.32 209.56 560.95 210.78 C 566.58 211.84 572.48 211.38 577.90 213.44 C 587.13 216.58 594.17 224.42 597.56 233.41 C 604.24 250.90 600.35 273.26 585.23 285.20 C 571.18 296.39 552.82 299.62 535.39 301.12 C 520.97 302.54 506.49 302.92 492.02 303.22 C 463.05 303.95 434.04 304.13 405.12 302.06 C 403.36 295.35 401.67 288.62 399.94 281.90 C 442.93 280.81 485.98 283.21 528.94 280.54 C 536.30 280.01 543.81 279.84 550.92 277.61 C 562.41 274.15 573.22 267.03 579.44 256.58 C 583.19 248.07 577.93 237.73 569.69 234.19 C 564.40 231.56 558.07 232.27 553.04 235.15 C 552.25 245.34 551.54 255.54 550.70 265.73 C 543.72 265.37 536.19 262.72 532.52 256.37 C 527.41 247.56 529.25 236.37 533.77 227.71 Z" />
<path fill="#548e3b" opacity="1.00" d=" M 260.53 215.47 C 302.36 216.16 344.08 211.84 385.90 212.01 C 384.41 217.64 382.86 223.26 381.41 228.91 C 343.75 239.13 304.45 233.57 266.02 234.18 C 263.56 234.12 261.97 231.77 261.62 229.55 C 260.85 224.89 261.50 220.11 260.53 215.47 Z" />
<path fill="#548e3b" opacity="1.00" d=" M 75.67 298.36 C 174.59 295.01 273.55 298.60 372.49 297.12 C 371.72 303.80 370.87 310.46 370.11 317.14 C 270.78 318.69 171.43 318.75 72.10 316.70 C 73.24 310.58 74.53 304.48 75.67 298.36 Z" />
<path fill="#548e3b" opacity="1.00" d=" M 544.80 330.72 C 544.39 325.43 544.50 320.09 543.45 314.87 C 544.39 318.40 544.39 322.35 546.61 325.42 C 548.60 328.37 551.74 330.32 555.03 331.53 C 565.53 335.36 577.13 334.36 587.55 338.45 C 591.43 339.94 595.62 340.55 599.35 342.47 C 621.47 352.99 631.40 384.01 617.87 404.85 C 610.84 414.76 599.55 422.49 587.08 422.69 C 566.94 423.48 546.07 407.84 544.87 386.99 C 544.97 382.15 544.33 375.90 548.87 372.77 C 551.08 370.79 554.36 369.36 557.25 370.77 C 560.97 372.74 562.90 376.74 564.83 380.29 C 568.45 387.31 571.07 395.52 577.95 400.14 C 581.51 402.73 586.46 402.39 590.05 400.03 C 597.07 395.57 601.52 388.23 605.58 381.18 C 600.56 374.99 595.66 368.60 589.86 363.12 C 574.23 356.21 557.00 353.75 540.05 352.69 C 509.88 350.97 479.34 354.18 449.46 348.55 C 450.41 343.17 451.28 337.78 452.18 332.39 C 482.90 328.18 513.93 330.96 544.80 330.72 Z" />
<path fill="#548e3b" opacity="1.00" d=" M 180.99 338.62 C 247.67 336.68 314.98 335.29 380.93 347.00 C 401.76 350.71 422.37 355.71 442.46 362.35 C 472.86 372.88 500.46 393.18 517.08 421.00 C 526.72 436.97 531.69 455.48 532.58 474.04 C 533.30 509.38 509.54 543.02 477.00 556.03 C 466.27 560.59 454.56 561.71 443.05 562.40 C 422.58 563.00 402.16 554.67 387.52 540.43 C 376.64 529.84 369.17 515.39 368.39 500.08 C 368.22 492.02 367.60 483.86 369.35 475.91 C 372.62 459.36 382.32 443.76 396.84 434.83 C 403.28 430.81 410.65 428.49 418.16 427.55 C 427.98 425.44 438.48 425.54 447.93 429.17 C 453.50 431.33 458.79 435.31 460.88 441.10 C 462.59 445.43 462.02 450.19 461.18 454.65 C 447.81 451.85 434.23 448.05 420.45 449.75 C 414.18 450.57 407.96 452.94 403.30 457.33 C 399.30 460.89 397.04 465.83 394.35 470.35 C 388.60 480.54 387.88 493.14 391.64 504.14 C 398.39 524.39 417.53 540.51 439.04 542.14 C 446.00 542.79 452.81 540.93 459.49 539.26 C 476.60 534.58 491.91 523.34 501.19 508.19 C 508.17 496.90 511.28 483.28 509.57 470.09 C 508.79 451.85 501.49 434.19 489.80 420.25 C 470.76 397.53 443.20 383.31 414.76 376.23 C 362.07 364.13 307.94 358.99 253.93 358.62 C 203.42 358.28 152.96 362.09 102.86 368.38 C 77.01 371.89 52.13 382.32 25.72 381.37 C 25.81 375.98 26.05 370.60 26.28 365.22 C 66.88 350.14 110.25 345.32 153.06 340.95 C 162.36 340.13 171.63 338.66 180.99 338.62 Z" />
<path fill="#548e3b" opacity="1.00" d=" M 209.57 387.82 C 214.69 387.25 219.85 387.21 225.00 387.25 C 250.67 387.07 276.35 386.96 302.00 387.95 C 328.02 389.10 354.20 392.12 379.08 400.14 C 382.03 401.07 384.31 403.82 384.68 406.89 C 385.55 413.47 378.51 419.72 372.08 417.70 C 366.86 416.33 361.46 416.07 356.14 415.35 C 307.66 409.81 258.78 408.65 210.03 409.74 C 206.15 409.79 201.88 410.91 198.37 408.66 C 192.96 405.44 191.48 398.06 193.64 392.45 C 198.42 389.56 204.10 388.56 209.57 387.82 Z" />
<path fill="#548e3b" opacity="1.00" d=" M 182.25 456.06 C 190.63 454.38 199.01 452.71 207.40 451.10 C 210.86 463.03 210.66 475.94 206.74 487.73 C 198.97 488.30 190.76 486.40 184.75 481.25 C 180.87 478.00 178.11 473.15 178.22 468.00 C 178.11 463.67 180.04 459.66 182.25 456.06 Z" />
<path fill="#548e3b" opacity="1.00" d=" M 302.50 498.66 C 308.40 497.38 314.86 499.62 318.50 504.48 C 325.16 513.03 325.28 527.26 316.55 534.48 C 309.72 539.49 299.07 540.42 292.54 534.39 C 284.82 527.36 282.48 514.30 288.67 505.59 C 291.82 501.09 297.33 499.43 302.50 498.66 Z" />
<path fill="#548e3b" opacity="1.00" d=" M 556.90 513.00 C 558.77 509.89 562.23 507.26 566.05 508.01 C 570.78 508.79 574.05 512.62 577.09 515.99 C 583.64 513.64 590.21 511.35 596.79 509.08 C 598.96 525.16 603.15 540.91 608.53 556.20 C 601.64 556.69 594.75 557.05 587.86 557.56 C 583.40 563.49 578.84 569.35 574.31 575.23 C 567.59 561.50 555.03 550.39 539.81 547.40 C 544.21 541.88 548.73 536.47 553.16 530.98 C 552.95 524.83 553.62 518.35 556.90 513.00 Z" />
<path fill="#548e3b" opacity="1.00" d=" M 212.22 555.65 C 219.56 558.91 226.97 562.01 234.24 565.44 C 240.54 563.53 246.76 561.36 253.01 559.32 C 255.84 574.67 259.29 589.93 263.76 604.89 C 249.15 605.00 236.56 614.55 228.84 626.36 C 224.88 619.49 221.02 612.55 217.03 605.70 C 211.50 605.88 205.57 604.46 201.68 600.29 C 198.62 597.27 197.33 592.30 199.47 588.41 C 201.64 584.16 206.23 582.10 210.51 580.59 C 211.06 572.27 211.67 563.96 212.22 555.65 Z" />
<path fill="#548e3b" opacity="1.00" d=" M 86.60 567.58 C 91.26 560.14 100.28 556.96 108.72 556.85 C 113.86 564.17 119.92 571.66 120.84 580.89 C 121.27 586.43 119.39 593.43 113.64 595.54 C 105.19 599.24 95.75 597.40 86.83 598.26 C 82.30 588.81 80.72 576.81 86.60 567.58 Z" />
<path fill="#548e3b" opacity="1.00" d=" M 480.36 585.45 C 487.74 582.00 496.73 588.17 497.69 595.88 C 498.52 601.39 494.59 606.59 489.92 609.04 C 481.18 612.53 471.10 603.32 472.53 594.36 C 473.28 590.22 476.80 587.27 480.36 585.45 Z" />
</g>
</svg>
