<?xml version="1.0" encoding="UTF-8" ?>
<!DOCTYPE svg PUBLIC "-//W3C//DTD SVG 1.1//EN" "http://www.w3.org/Graphics/SVG/1.1/DTD/svg11.dtd">
<svg width="400pt" height="120pt" viewBox="0 0 400 120" version="1.1" xmlns="http://www.w3.org/2000/svg">
<g id="#ffffffff">
</g>
<g id="#1c2776ff">
<path fill="#1c2776" opacity="1.00" d=" M 188.99 25.72 C 193.04 25.71 197.08 25.71 201.13 25.72 C 201.07 37.18 201.14 48.63 201.09 60.09 C 205.65 54.51 210.09 48.84 214.56 43.20 C 219.12 43.06 223.67 43.14 228.23 43.12 C 223.33 48.90 218.34 54.61 213.53 60.47 C 218.80 68.64 224.12 76.78 229.25 85.04 C 224.80 85.08 220.34 85.06 215.89 85.06 C 212.70 79.65 209.59 74.18 206.43 68.75 C 204.72 70.83 202.48 72.57 201.23 74.98 C 200.93 78.33 201.16 81.70 201.11 85.06 C 197.07 85.06 193.03 85.06 188.99 85.06 C 188.98 65.28 188.98 45.50 188.99 25.72 Z" />
<path fill="#1c2776" opacity="1.00" d=" M 118.01 31.88 C 121.44 31.89 124.88 31.89 128.32 31.90 C 128.31 35.65 128.30 39.40 128.37 43.15 C 131.70 43.12 135.03 43.12 138.37 43.13 C 138.37 46.36 138.38 49.59 138.36 52.81 C 135.01 52.82 131.66 52.81 128.32 52.81 C 128.49 59.34 127.95 65.91 128.55 72.41 C 129.20 76.66 134.40 76.96 137.63 75.66 C 138.39 78.64 139.07 81.63 139.75 84.63 C 134.21 86.15 127.91 87.23 122.61 84.38 C 118.14 82.05 116.07 76.89 115.97 72.07 C 115.77 65.66 115.95 59.24 115.89 52.82 C 113.97 52.81 112.05 52.81 110.14 52.80 C 110.13 49.72 110.16 46.65 110.13 43.58 C 112.26 43.43 114.38 43.27 116.50 43.12 C 117.04 39.38 117.53 35.63 118.01 31.88 Z" />
<path fill="#1c2776" opacity="1.00" d=" M 22.66 47.60 C 27.68 44.79 33.11 42.30 38.95 42.09 C 44.03 41.77 49.68 42.93 53.17 46.92 C 56.64 50.72 57.25 56.15 57.31 61.08 C 57.34 69.07 57.31 77.06 57.31 85.05 C 53.93 85.06 50.54 85.06 47.16 85.07 C 46.85 83.57 46.55 82.07 46.26 80.57 C 42.98 83.14 39.42 85.78 35.11 86.13 C 30.89 86.42 26.17 84.92 23.71 81.27 C 19.98 76.29 20.32 68.33 25.29 64.28 C 30.78 59.67 38.25 58.96 45.06 57.98 C 44.46 55.59 43.47 52.90 40.79 52.25 C 35.96 51.16 31.26 53.43 27.17 55.74 C 25.64 53.05 24.14 50.33 22.66 47.60 M 34.40 69.38 C 32.73 71.15 32.53 74.81 35.07 75.88 C 38.65 77.66 42.37 75.47 44.91 72.97 C 44.88 70.48 44.89 67.98 44.86 65.49 C 41.24 66.23 37.14 66.61 34.40 69.38 Z" />
<path fill="#1c2776" opacity="1.00" d=" M 78.90 47.33 C 82.69 44.46 87.09 41.69 92.05 42.06 C 98.50 42.23 104.07 47.11 105.92 53.15 C 108.57 61.36 108.30 71.04 103.39 78.38 C 100.45 82.87 95.38 86.07 89.96 86.19 C 86.15 86.17 82.72 84.22 79.88 81.83 C 80.43 88.10 80.29 94.39 80.26 100.68 C 76.13 100.68 71.99 100.67 67.86 100.67 C 67.88 81.49 67.85 62.31 67.87 43.13 C 71.26 43.12 74.64 43.12 78.03 43.13 C 78.32 44.53 78.61 45.93 78.90 47.33 M 80.23 56.04 C 80.34 61.86 80.26 67.69 80.28 73.52 C 83.39 75.74 88.04 77.14 91.25 74.37 C 95.01 71.03 94.89 65.47 94.62 60.87 C 94.50 57.53 93.12 53.62 89.67 52.47 C 86.06 51.35 82.66 53.58 80.23 56.04 Z" />
<path fill="#1c2776" opacity="1.00" d=" M 145.16 53.13 C 148.25 46.82 154.84 42.22 161.94 42.06 C 167.41 41.76 173.18 44.00 176.41 48.55 C 180.41 54.00 180.88 61.21 179.98 67.70 C 171.50 67.82 163.01 67.69 154.52 67.78 C 155.42 70.67 156.64 73.91 159.63 75.22 C 164.46 77.76 170.19 76.46 174.71 73.88 C 176.13 76.38 177.50 78.93 178.84 81.49 C 172.72 85.17 165.25 87.36 158.18 85.45 C 151.46 84.04 145.85 78.76 143.83 72.23 C 142.01 65.99 142.22 58.99 145.16 53.13 M 156.99 53.99 C 155.54 55.48 155.10 57.59 154.41 59.48 C 159.58 59.58 164.75 59.56 169.92 59.48 C 169.45 56.92 169.08 53.86 166.66 52.35 C 163.52 50.96 159.36 51.32 156.99 53.99 Z" />
<path fill="#1c2776" opacity="1.00" d=" M 234.06 47.56 C 239.83 44.24 246.32 41.61 253.11 42.09 C 257.70 42.20 262.45 44.03 265.25 47.81 C 268.04 51.58 268.57 56.44 268.67 61.00 C 268.70 69.02 268.67 77.03 268.67 85.05 C 265.26 85.06 261.86 85.06 258.45 85.05 C 258.19 83.56 257.93 82.07 257.68 80.57 C 254.92 82.53 252.26 84.90 248.87 85.66 C 243.87 87.05 237.73 85.52 234.83 80.99 C 231.31 75.89 231.84 67.92 236.91 63.99 C 242.41 59.70 249.66 58.92 256.35 58.01 C 255.84 55.81 255.09 53.20 252.67 52.45 C 247.73 50.91 242.75 53.38 238.52 55.73 C 236.97 53.04 235.48 50.32 234.06 47.56 M 244.62 73.91 C 247.08 78.48 253.53 76.25 256.22 72.95 C 256.17 70.46 256.17 67.98 256.16 65.49 C 251.56 66.26 243.58 67.50 244.62 73.91 Z" />
</g>
<g id="#ed5561ff">
<path fill="#ed5561" opacity="1.00" d=" M 318.59 50.78 C 321.61 44.41 328.99 40.20 335.94 42.78 C 335.20 46.34 334.50 49.90 333.89 53.49 C 328.32 51.76 321.90 54.43 320.28 60.25 C 319.84 68.50 320.25 76.79 320.10 85.06 C 315.92 85.08 311.73 85.08 307.55 85.05 C 307.55 71.08 307.53 57.10 307.56 43.13 C 310.96 43.12 314.36 43.12 317.77 43.13 C 318.05 45.68 318.32 48.23 318.59 50.78 Z" />
<path fill="#ed5561" opacity="1.00" d=" M 340.91 43.13 C 345.06 43.12 349.20 43.12 353.35 43.13 C 353.38 51.46 353.32 59.78 353.36 68.11 C 353.48 70.34 353.37 73.17 355.43 74.61 C 359.87 77.36 366.76 73.26 366.15 68.00 C 366.12 59.71 366.12 51.42 366.12 43.13 C 370.25 43.12 374.38 43.12 378.51 43.13 C 378.49 57.10 378.51 71.07 378.50 85.04 C 375.13 85.07 371.75 85.08 368.38 85.08 C 368.04 83.11 367.72 81.15 367.41 79.18 C 365.16 81.35 362.93 83.71 360.00 84.94 C 355.39 86.92 349.60 86.56 345.59 83.43 C 341.85 80.10 341.07 74.76 340.93 70.02 C 340.84 61.06 340.90 52.09 340.91 43.13 Z" />
<path fill="#ed5561" opacity="1.00" d=" M 285.45 71.54 C 290.16 68.40 297.05 72.33 296.88 77.93 C 297.48 83.04 291.99 87.67 287.08 85.82 C 280.87 84.25 279.93 74.54 285.45 71.54 Z" />
</g>
</svg>
