<?xml version="1.0" encoding="UTF-8" ?>
<!DOCTYPE svg PUBLIC "-//W3C//DTD SVG 1.1//EN" "http://www.w3.org/Graphics/SVG/1.1/DTD/svg11.dtd">
<svg width="1920pt" height="580pt" viewBox="0 0 1920 580" version="1.1" xmlns="http://www.w3.org/2000/svg">
<g id="#221f1fff">
<path fill="#221f1f" opacity="1.00" d=" M 115.18 2.69 C 145.41 -1.30 177.05 0.68 205.40 12.57 C 223.75 20.26 240.35 33.60 249.20 51.70 C 257.86 69.09 259.19 88.94 259.36 108.05 C 259.38 147.05 259.32 186.04 259.36 225.04 C 259.35 234.93 260.88 244.93 264.88 254.03 C 268.89 263.41 275.39 271.38 281.30 279.59 C 283.63 282.82 285.50 286.81 284.66 290.88 C 283.99 294.30 280.97 296.43 278.53 298.59 C 264.62 310.30 250.98 322.32 237.29 334.28 C 233.17 338.11 226.47 339.67 221.61 336.32 C 216.45 332.23 211.64 327.69 207.09 322.94 C 199.62 315.13 193.94 305.89 187.81 297.05 C 174.46 310.57 159.89 323.53 142.28 331.18 C 125.26 338.69 106.37 340.38 87.97 340.20 C 69.27 339.94 50.21 335.00 34.96 323.87 C 21.68 314.36 11.98 300.32 6.85 284.88 C 0.89 266.94 -0.11 247.54 2.57 228.90 C 5.99 205.49 17.89 183.34 36.07 168.11 C 54.20 152.51 77.38 144.31 100.55 139.73 C 125.44 134.63 150.83 132.80 176.04 129.96 C 175.83 117.84 176.85 105.59 174.57 93.60 C 173.00 85.28 168.92 77.16 162.05 72.00 C 153.26 65.38 141.81 63.17 131.01 63.96 C 119.37 64.74 107.64 69.02 99.33 77.41 C 93.70 83.01 89.91 90.33 88.17 98.06 C 87.26 102.41 85.37 107.03 81.25 109.23 C 78.72 110.74 75.70 110.11 72.95 109.86 C 55.56 107.86 38.13 106.16 20.73 104.19 C 14.86 103.66 9.68 98.01 11.11 91.96 C 13.86 76.57 19.74 61.63 28.88 48.90 C 37.32 37.07 48.53 27.32 61.13 20.15 C 77.69 10.66 96.35 5.29 115.18 2.69 M 123.89 184.95 C 111.23 189.53 99.44 198.08 93.49 210.44 C 87.35 223.20 86.49 238.14 89.43 251.87 C 91.64 261.57 97.19 270.92 106.02 275.93 C 116.96 282.10 130.91 281.65 142.02 276.11 C 155.70 269.38 164.95 256.10 170.21 242.14 C 177.93 221.52 175.58 199.13 176.04 177.59 C 158.46 177.63 140.56 178.99 123.89 184.95 Z" />
<path fill="#221f1f" opacity="1.00" d=" M 907.78 1.28 C 929.52 -0.25 951.62 1.84 972.43 8.45 C 987.42 13.27 1001.83 20.78 1013.02 32.02 C 1022.80 41.53 1029.57 53.89 1033.04 67.05 C 1037.64 84.28 1037.47 102.27 1037.48 119.97 C 1037.39 154.65 1037.46 189.33 1037.44 224.00 C 1037.36 233.73 1038.65 243.60 1042.39 252.64 C 1046.17 262.13 1052.54 270.23 1058.53 278.39 C 1061.19 281.92 1063.67 286.22 1062.76 290.81 C 1062.10 294.30 1059.02 296.47 1056.53 298.67 C 1042.62 310.36 1029.00 322.38 1015.31 334.32 C 1011.04 338.32 1003.90 339.74 999.10 335.88 C 990.92 329.10 983.20 321.64 976.92 313.02 C 973.11 307.79 969.56 302.38 965.90 297.05 C 953.37 309.71 939.84 321.88 923.65 329.67 C 907.06 337.81 888.33 340.13 870.04 340.22 C 852.15 340.51 833.83 336.81 818.42 327.44 C 805.72 319.83 795.45 308.36 789.07 295.02 C 780.85 277.98 778.47 258.66 779.48 239.92 C 780.58 219.96 787.05 200.10 799.16 184.07 C 810.98 168.12 827.83 156.38 846.18 149.09 C 865.92 141.25 887.02 137.68 908.00 135.04 C 923.34 133.05 938.74 131.64 954.12 129.98 C 953.80 116.01 955.44 101.61 951.20 88.05 C 948.65 79.88 942.89 72.73 935.21 68.87 C 922.56 62.37 907.25 62.48 893.99 67.06 C 882.24 71.10 872.27 80.33 868.03 92.09 C 865.94 97.25 865.96 103.58 861.60 107.58 C 859.37 109.90 856.01 110.63 852.92 110.05 C 834.88 108.01 816.81 106.21 798.77 104.18 C 792.94 103.63 787.77 98.03 789.18 92.00 C 792.25 74.77 799.27 58.08 810.36 44.45 C 820.77 31.51 834.60 21.56 849.70 14.79 C 867.96 6.59 887.86 2.49 907.78 1.28 M 898.35 186.41 C 885.15 191.86 873.65 202.38 869.17 216.19 C 865.12 228.53 864.77 242.17 868.27 254.69 C 870.96 264.05 877.12 272.75 886.08 276.97 C 897.65 282.45 911.80 281.15 922.72 274.71 C 935.96 267.04 944.59 253.36 949.35 239.14 C 955.79 219.28 953.69 198.12 954.12 177.59 C 935.28 177.68 915.93 179.11 898.35 186.41 Z" />
<path fill="#221f1f" opacity="1.00" d=" M 442.36 14.38 C 459.32 4.34 479.91 2.14 499.17 4.73 C 514.03 6.75 528.25 13.54 538.80 24.27 C 548.99 34.40 556.10 47.14 561.87 60.18 C 568.21 43.16 579.43 27.73 594.77 17.78 C 623.77 -1.13 664.01 -0.97 692.86 18.17 C 707.02 27.52 718.08 41.74 722.75 58.14 C 729.37 80.76 727.57 104.62 727.54 127.88 C 727.36 193.57 727.52 259.27 727.36 324.96 C 727.55 331.04 721.95 336.19 715.98 336.02 C 696.64 336.13 677.30 336.05 657.95 336.05 C 651.86 336.41 645.91 331.29 646.06 325.05 C 645.95 272.37 646.05 219.70 646.01 167.02 C 645.96 149.71 646.80 132.37 645.52 115.09 C 644.84 105.58 642.39 95.46 635.39 88.54 C 629.01 82.20 619.67 80.22 610.96 80.08 C 598.98 79.63 587.26 85.63 579.87 94.93 C 573.14 103.11 570.89 113.83 569.76 124.10 C 568.10 138.67 568.52 153.37 568.47 168.01 C 568.43 220.35 568.53 272.68 568.42 325.02 C 568.57 331.07 563.00 336.19 557.05 336.02 C 537.69 336.13 518.32 336.05 498.95 336.05 C 494.83 336.17 490.65 334.08 488.58 330.46 C 486.66 327.32 487.12 323.51 487.05 320.00 C 487.08 267.33 486.98 214.66 487.01 161.98 C 487.01 146.64 487.94 131.19 485.81 115.93 C 484.47 106.53 481.90 96.81 475.55 89.49 C 470.64 83.75 463.33 80.49 455.91 79.73 C 446.28 78.68 435.87 80.11 427.94 86.04 C 420.38 91.66 416.00 100.52 413.61 109.44 C 409.31 125.59 409.47 142.45 409.44 159.03 C 409.45 212.35 409.42 265.67 409.46 318.99 C 409.37 323.13 410.04 327.82 407.36 331.35 C 405.04 334.62 400.97 336.21 397.04 336.06 C 378.03 336.07 359.01 336.08 340.00 336.06 C 333.87 336.46 327.81 331.32 328.07 325.01 C 328.04 223.97 328.06 122.92 328.06 21.88 C 327.59 15.77 332.88 10.20 338.97 10.21 C 357.34 10.05 375.71 10.16 394.07 10.15 C 399.79 9.93 405.32 14.56 405.54 20.39 C 405.86 33.88 405.22 47.40 405.85 60.88 C 408.28 57.35 409.36 53.15 411.36 49.40 C 418.24 35.22 428.62 22.39 442.36 14.38 Z" />
<path fill="#221f1f" opacity="1.00" d=" M 1477.62 4.78 C 1498.99 2.28 1521.08 4.17 1541.31 11.75 C 1558.78 18.27 1574.53 29.16 1587.08 42.94 C 1610.58 68.77 1622.98 102.89 1627.96 137.04 C 1633.63 177.28 1630.97 219.49 1615.19 257.28 C 1603.88 284.51 1585.11 309.26 1559.69 324.67 C 1541.80 335.69 1520.95 341.60 1499.99 342.28 C 1477.67 343.14 1454.92 338.62 1435.27 327.80 C 1408.12 313.11 1388.46 287.25 1377.07 258.96 C 1361.99 221.44 1358.76 179.93 1363.37 140.01 C 1367.76 104.41 1380.18 68.56 1404.85 41.84 C 1423.61 21.22 1449.97 7.99 1477.62 4.78 M 1490.23 66.28 C 1477.05 67.44 1466.08 76.99 1460.57 88.64 C 1451.79 106.68 1450.08 127.14 1449.23 146.90 C 1448.82 173.23 1448.40 199.77 1452.68 225.85 C 1455.50 241.51 1459.71 258.08 1471.11 269.84 C 1484.59 283.82 1509.41 282.29 1522.40 268.40 C 1532.02 258.26 1536.44 244.43 1539.10 230.99 C 1543.60 207.61 1543.26 183.66 1542.93 159.96 C 1542.31 138.89 1540.79 117.59 1534.84 97.26 C 1532.17 88.10 1527.71 78.96 1519.92 73.11 C 1511.53 66.76 1500.45 65.23 1490.23 66.28 Z" />
<path fill="#221f1f" opacity="1.00" d=" M 1796.34 11.48 C 1812.64 3.65 1831.44 2.45 1849.15 4.82 C 1868.25 7.47 1886.47 17.24 1898.32 32.60 C 1907.51 43.79 1912.32 57.83 1914.91 71.90 C 1919.20 95.00 1918.78 118.60 1918.86 142.00 C 1918.87 201.01 1918.85 260.02 1918.87 319.04 C 1918.80 323.48 1919.64 328.66 1916.19 332.15 C 1913.21 335.72 1908.31 336.32 1903.96 336.09 C 1885.65 336.02 1867.34 336.11 1849.03 336.05 C 1843.04 336.34 1837.08 331.29 1837.40 325.09 C 1837.39 269.72 1837.38 214.35 1837.40 158.97 C 1837.38 144.60 1837.94 130.12 1835.83 115.85 C 1834.45 106.68 1831.97 97.28 1826.10 89.89 C 1818.02 79.54 1803.17 76.71 1790.97 80.09 C 1779.95 83.33 1771.10 92.04 1766.32 102.33 C 1758.21 119.66 1756.52 139.12 1756.52 158.02 C 1756.50 212.00 1756.48 265.98 1756.52 319.97 C 1756.67 324.46 1756.69 329.72 1752.93 332.90 C 1749.79 336.04 1745.12 336.21 1740.97 336.09 C 1722.63 335.98 1704.27 336.18 1685.93 336.00 C 1679.77 335.90 1674.60 330.15 1675.11 324.02 C 1675.08 225.05 1675.08 126.07 1675.02 27.10 C 1675.13 23.04 1674.32 18.47 1676.94 14.97 C 1679.34 11.41 1683.78 9.90 1687.94 10.13 C 1705.64 10.17 1723.34 10.08 1741.05 10.17 C 1746.37 10.10 1751.91 14.32 1752.05 19.88 C 1752.25 35.22 1751.79 50.58 1752.27 65.91 C 1755.60 61.03 1757.09 55.19 1760.05 50.09 C 1768.13 34.17 1779.94 19.32 1796.34 11.48 Z" />
<path fill="#221f1f" opacity="1.00" d=" M 1109.70 20.03 C 1109.53 14.04 1115.04 8.96 1120.96 9.34 C 1185.66 9.32 1250.36 9.34 1315.06 9.33 C 1318.87 9.19 1322.88 10.72 1325.06 13.98 C 1326.98 16.57 1327.01 19.93 1327.04 23.01 C 1326.99 34.02 1327.03 45.02 1327.02 56.03 C 1327.19 63.47 1322.66 69.79 1318.83 75.78 C 1282.99 127.04 1247.09 178.27 1211.25 229.54 C 1243.06 228.80 1275.48 232.64 1305.04 244.92 C 1311.66 247.79 1318.28 250.78 1324.38 254.66 C 1330.11 258.36 1332.91 265.29 1332.86 271.94 C 1332.86 286.65 1332.86 301.37 1332.86 316.08 C 1333.11 321.97 1328.19 328.24 1321.99 327.89 C 1318.20 327.29 1315.03 324.92 1311.58 323.42 C 1250.94 294.55 1177.00 294.67 1116.90 324.92 C 1113.77 326.37 1110.59 328.84 1106.96 327.98 C 1101.76 326.68 1098.25 321.20 1098.53 315.96 C 1098.57 300.65 1098.48 285.33 1098.59 270.02 C 1098.60 260.31 1100.64 250.31 1106.27 242.23 C 1145.10 186.43 1184.00 130.67 1222.84 74.87 C 1188.86 74.84 1154.88 74.91 1120.91 74.84 C 1114.95 75.13 1109.39 70.01 1109.69 63.94 C 1109.62 49.31 1109.59 34.66 1109.70 20.03 Z" />
</g>
<g id="#ff9900ff">
<path fill="#ff9900" opacity="1.00" d=" M 1193.57 350.86 C 1217.22 348.80 1241.33 349.34 1264.53 354.73 C 1271.31 356.55 1278.52 358.33 1283.98 362.99 C 1288.07 367.58 1288.12 374.22 1288.57 380.03 C 1288.99 399.66 1285.01 419.12 1279.62 437.91 C 1271.24 465.98 1258.48 493.12 1239.67 515.74 C 1234.07 522.44 1227.92 528.70 1221.17 534.25 C 1218.07 536.67 1213.80 538.83 1209.87 537.22 C 1206.27 535.55 1206.42 530.86 1207.73 527.72 C 1217.94 501.79 1228.24 475.80 1235.44 448.83 C 1238.32 437.43 1241.00 425.80 1240.91 413.97 C 1240.79 407.81 1239.52 400.67 1233.94 397.07 C 1225.94 392.00 1216.24 391.03 1207.05 390.07 C 1173.25 387.68 1139.48 392.17 1105.94 395.78 C 1102.67 396.14 1098.36 394.75 1097.93 391.01 C 1097.58 386.51 1101.15 382.98 1104.54 380.59 C 1130.64 362.44 1162.24 353.88 1193.57 350.86 Z" />
<path fill="#ff9900" opacity="1.00" d=" M 277.19 370.14 C 281.90 368.89 286.30 371.56 290.19 373.85 C 364.12 416.45 443.88 448.69 526.26 470.76 C 626.37 497.42 730.54 509.34 834.07 504.58 C 942.64 499.31 1050.34 476.21 1151.53 436.51 C 1160.18 433.24 1168.58 429.33 1177.27 426.17 C 1185.22 423.36 1195.67 426.91 1198.41 435.35 C 1200.65 441.92 1196.74 448.73 1191.52 452.59 C 1161.16 475.08 1128.18 493.89 1093.97 509.86 C 1051.94 529.34 1007.94 544.49 963.02 555.77 C 898.37 571.86 831.66 580.32 764.99 579.03 C 678.21 577.54 591.61 561.36 510.43 530.55 C 423.94 497.92 343.79 448.75 275.27 386.72 C 272.86 384.46 270.91 381.38 270.98 377.96 C 270.92 374.32 273.67 370.96 277.19 370.14 Z" />
</g>
</svg>
