<?xml version="1.0" encoding="UTF-8" ?>
<!DOCTYPE svg PUBLIC "-//W3C//DTD SVG 1.1//EN" "http://www.w3.org/Graphics/SVG/1.1/DTD/svg11.dtd">
<svg width="1414pt" height="406pt" viewBox="0 0 1414 406" version="1.1" xmlns="http://www.w3.org/2000/svg">
<g id="#ec208bff">
<path fill="#ec208b" opacity="1.00" d=" M 117.54 0.00 L 126.21 0.00 C 139.86 1.28 153.02 7.64 162.13 17.96 C 171.16 27.99 176.21 41.50 175.89 55.00 C 175.76 68.20 170.52 81.23 161.52 90.88 C 150.79 102.51 134.84 109.08 119.01 108.14 C 100.09 107.45 82.23 95.80 73.62 78.99 C 64.53 61.85 65.80 39.81 76.79 23.81 C 85.82 10.20 101.29 1.32 117.54 0.00 Z" />
<path fill="#ec208b" opacity="1.00" d=" M 1354.69 0.00 L 1363.96 0.00 C 1380.54 1.54 1396.22 10.88 1405.07 25.04 C 1410.46 33.18 1412.74 42.85 1414.00 52.41 L 1414.00 55.64 C 1412.76 65.94 1410.04 76.33 1403.92 84.87 C 1393.09 100.89 1373.19 110.12 1353.97 107.99 C 1335.50 106.37 1318.45 94.40 1310.51 77.66 C 1302.34 61.04 1303.60 40.24 1313.76 24.75 C 1322.63 10.73 1338.22 1.54 1354.69 0.00 Z" />
<path fill="#ec208b" opacity="1.00" d=" M 1131.51 36.56 C 1135.56 26.95 1145.55 20.20 1156.01 20.23 C 1165.98 19.91 1175.72 25.73 1180.38 34.53 C 1183.10 39.87 1184.29 46.06 1183.14 51.99 C 1181.58 61.90 1173.95 70.45 1164.38 73.32 C 1157.09 75.41 1148.91 74.60 1142.42 70.58 C 1136.52 67.20 1132.36 61.35 1130.33 54.93 C 1128.74 48.90 1128.98 42.30 1131.51 36.56 Z" />
<path fill="#ec208b" opacity="1.00" d=" M 254.21 39.09 C 280.00 30.45 309.15 32.32 333.55 44.39 C 358.05 56.27 377.44 78.11 386.42 103.81 C 393.01 122.62 394.07 143.29 389.54 162.70 C 385.13 181.53 375.36 199.06 361.67 212.72 C 359.20 215.30 356.54 217.72 353.51 219.62 C 353.50 197.76 353.48 175.90 353.51 154.04 C 344.46 153.97 335.42 153.99 326.37 154.02 C 326.39 201.64 326.37 249.25 326.37 296.86 C 350.12 296.90 373.87 296.86 397.61 296.88 C 393.15 315.91 377.57 331.81 358.56 336.46 C 347.06 339.36 334.63 338.51 323.69 333.88 C 308.04 327.50 296.18 313.21 292.12 296.88 C 292.87 296.88 294.37 296.87 295.12 296.86 C 295.16 285.33 295.08 273.79 295.15 262.25 C 298.70 253.88 304.68 246.87 311.49 240.96 C 306.06 241.88 300.64 242.88 295.14 243.32 C 295.10 213.55 295.15 183.78 295.12 154.01 C 286.49 154.00 277.87 153.99 269.25 154.02 C 269.25 183.34 269.26 212.66 269.24 241.99 C 256.00 239.77 243.36 234.72 231.89 227.80 C 238.44 203.20 245.05 178.61 251.60 154.01 C 243.99 154.00 236.38 153.99 228.78 154.01 C 223.63 173.65 218.56 193.33 213.39 212.97 C 187.23 187.51 176.55 147.72 185.81 112.47 C 194.23 78.51 220.95 49.91 254.21 39.09 Z" />
<path fill="#ec208b" opacity="1.00" d=" M 942.99 81.96 C 960.65 54.10 992.10 35.58 1025.08 33.92 C 1058.14 31.67 1091.63 46.42 1112.48 72.13 C 1090.44 98.65 1082.86 136.51 1093.45 169.38 C 1093.56 187.23 1093.47 205.08 1093.50 222.94 C 1092.05 224.09 1090.63 225.26 1089.14 226.34 C 1075.98 234.57 1061.27 240.46 1045.84 242.49 C 1044.68 239.60 1043.53 236.71 1042.41 233.81 C 1052.36 229.77 1061.52 222.45 1065.27 212.09 C 1070.89 196.44 1068.30 176.90 1055.63 165.33 C 1045.28 155.86 1030.47 153.88 1016.98 153.99 C 996.61 154.02 976.25 153.98 955.88 154.01 C 955.86 200.76 955.89 247.50 955.87 294.25 C 947.79 288.52 941.25 280.52 937.54 271.32 C 931.41 257.22 931.85 240.48 938.57 226.67 C 941.90 219.57 946.99 213.45 952.86 208.30 C 942.76 196.73 935.00 183.08 930.71 168.32 C 924.91 148.73 925.08 127.49 930.96 107.94 C 931.46 106.22 932.01 104.51 932.63 102.82 C 935.35 95.53 938.77 88.50 942.99 81.96 Z" />
<path fill="#ec208b" opacity="1.00" d=" M 620.64 75.68 C 634.32 67.05 651.95 65.19 667.17 70.58 C 680.23 75.10 691.35 84.87 697.56 97.21 C 704.41 110.57 705.29 126.84 699.90 140.86 C 696.43 150.42 689.97 158.61 682.09 164.94 C 689.73 170.14 696.60 176.31 703.36 182.57 C 703.40 220.67 703.37 258.76 703.37 296.86 C 709.28 296.90 715.19 296.86 721.11 296.88 C 711.97 317.13 696.17 334.25 676.80 345.12 C 644.01 363.80 601.11 362.69 569.40 342.19 C 551.14 330.58 536.69 313.26 528.38 293.30 C 516.78 297.14 504.03 299.10 492.02 296.19 C 499.47 294.90 506.94 293.17 513.75 289.76 C 531.12 281.41 543.10 264.10 547.41 245.59 C 550.83 230.32 550.38 214.08 545.68 199.13 C 539.39 179.49 524.16 162.05 503.92 156.32 C 505.19 155.70 506.52 155.45 507.93 155.58 C 525.21 156.52 542.01 164.06 554.16 176.39 C 560.36 171.53 566.37 166.35 573.37 162.62 C 573.38 207.37 573.38 252.11 573.37 296.86 C 590.90 296.90 608.44 296.87 625.97 296.88 C 638.34 296.96 651.61 297.30 662.63 290.74 C 681.00 279.79 685.72 252.09 672.63 235.37 C 667.24 228.21 658.65 224.37 650.06 222.68 C 657.95 221.05 665.39 216.64 669.84 209.81 C 679.35 195.82 676.38 175.26 664.07 163.88 C 659.76 159.59 654.10 156.89 648.17 155.74 C 637.94 153.44 627.41 154.09 617.01 154.00 C 609.15 153.98 601.29 154.06 593.43 153.94 C 596.69 152.69 600.05 151.77 603.45 150.96 C 596.32 139.20 593.34 124.93 596.04 111.37 C 598.79 96.73 607.96 83.47 620.64 75.68 Z" />
<path fill="#ec208b" opacity="1.00" d=" M 1297.29 122.22 C 1318.34 119.97 1340.07 124.14 1358.65 134.33 C 1375.67 143.55 1390.01 157.59 1399.63 174.38 C 1408.75 189.83 1412.78 207.67 1414.00 225.43 L 1414.00 227.58 C 1412.79 245.35 1408.75 263.22 1399.60 278.68 C 1390.35 294.84 1376.71 308.43 1360.54 317.65 C 1330.64 334.98 1292.05 335.96 1261.31 320.17 C 1249.85 314.32 1239.43 306.43 1230.80 296.88 C 1235.03 296.87 1239.25 296.87 1243.49 296.88 C 1243.51 289.42 1243.50 281.97 1243.49 274.51 C 1234.05 274.49 1224.61 274.50 1215.18 274.50 C 1210.29 264.51 1206.69 253.88 1204.94 242.87 C 1226.97 240.73 1247.79 230.84 1264.36 216.32 C 1267.54 221.45 1272.19 225.63 1277.70 228.12 C 1288.27 233.10 1299.89 235.04 1311.06 238.21 C 1318.45 240.40 1326.60 241.26 1332.89 246.08 C 1339.16 251.67 1340.60 262.37 1335.13 269.00 C 1330.33 275.02 1322.46 277.46 1315.05 277.98 C 1305.06 278.52 1294.28 277.92 1285.67 272.29 C 1280.33 268.85 1277.02 263.06 1275.63 256.97 C 1267.25 258.70 1258.90 260.53 1250.54 262.29 C 1253.41 273.21 1260.19 283.24 1269.98 289.08 C 1286.07 298.79 1305.83 300.68 1324.12 297.79 C 1338.65 295.37 1353.35 287.94 1360.87 274.78 C 1368.96 259.88 1367.51 239.79 1356.09 226.97 C 1349.03 219.68 1339.10 216.19 1329.51 213.63 C 1320.70 211.39 1311.86 209.26 1303.06 206.99 C 1297.38 205.40 1291.44 203.17 1287.57 198.50 C 1282.99 192.95 1284.23 184.16 1289.24 179.30 C 1293.99 174.19 1301.32 172.78 1308.01 172.61 C 1315.63 172.40 1323.95 173.84 1329.65 179.32 C 1332.50 181.86 1334.21 185.34 1335.70 188.80 C 1343.89 186.79 1352.08 184.76 1360.27 182.71 C 1358.02 174.18 1352.50 166.68 1345.12 161.87 C 1331.30 152.76 1313.94 150.26 1297.75 152.52 C 1298.73 142.45 1298.87 132.24 1297.29 122.22 Z" />
<path fill="#ec208b" opacity="1.00" d=" M 459.09 174.32 C 467.74 174.47 476.40 174.29 485.06 174.41 C 493.49 174.63 501.72 178.36 507.46 184.53 C 517.37 195.03 521.68 209.80 521.52 224.02 C 521.58 236.50 519.52 249.72 511.85 259.94 C 505.05 268.91 494.41 275.09 483.06 275.57 C 475.05 275.71 467.05 275.55 459.04 275.65 C 459.00 241.87 458.91 208.09 459.09 174.32 Z" />
<path fill="#ec208b" opacity="1.00" d=" M 597.76 174.51 C 608.16 174.48 618.56 174.51 628.96 174.49 C 636.00 174.53 643.67 177.37 647.52 183.57 C 652.18 192.35 650.00 204.78 641.51 210.46 C 637.87 212.93 633.40 213.88 629.05 213.87 C 618.62 213.88 608.19 213.88 597.76 213.87 C 597.74 200.75 597.74 187.63 597.76 174.51 Z" />
<path fill="#ec208b" opacity="1.00" d=" M 981.76 174.63 C 993.51 174.61 1005.26 174.62 1017.01 174.62 C 1023.22 174.69 1029.72 176.25 1034.50 180.42 C 1044.34 188.65 1043.15 206.51 1032.14 213.20 C 1027.02 216.36 1020.88 217.29 1014.97 217.38 C 1003.90 217.37 992.83 217.39 981.76 217.37 C 981.74 203.12 981.74 188.88 981.76 174.63 Z" />
<path fill="#ec208b" opacity="1.00" d=" M 353.52 273.37 C 353.47 259.07 353.51 244.78 353.50 230.48 C 375.45 233.66 393.90 251.67 398.13 273.36 C 383.26 273.39 368.39 273.37 353.52 273.37 Z" />
<path fill="#ec208b" opacity="1.00" d=" M 597.70 234.49 C 608.79 234.22 619.90 234.45 630.99 234.38 C 637.73 234.27 644.81 236.58 649.21 241.89 C 653.87 247.29 654.78 255.17 652.70 261.84 C 649.75 271.75 638.57 276.09 629.00 275.26 C 618.59 275.23 608.17 275.27 597.76 275.24 C 597.70 261.66 597.82 248.07 597.70 234.49 Z" />
<path fill="#ec208b" opacity="1.00" d=" M 981.76 238.13 C 993.78 238.13 1005.80 238.11 1017.82 238.14 C 1023.00 251.86 1028.19 265.57 1033.37 279.30 C 1029.60 284.17 1025.81 289.13 1020.81 292.82 C 1014.37 298.06 1006.56 301.16 998.66 303.43 C 987.70 297.95 974.93 296.08 962.91 298.62 C 962.14 298.04 961.38 297.46 960.63 296.88 C 967.67 296.86 974.71 296.89 981.75 296.86 C 981.75 277.28 981.73 257.71 981.76 238.13 Z" />
<path fill="#ec208b" opacity="1.00" d=" M 927.43 290.94 C 936.44 290.73 945.00 296.01 949.67 303.60 C 956.26 313.85 954.52 328.37 945.89 336.93 C 939.33 343.60 929.19 346.58 920.10 344.20 C 916.73 343.32 913.53 341.85 910.66 339.90 C 902.61 334.12 898.14 323.91 899.66 314.08 C 900.20 307.39 904.28 301.86 908.43 296.89 C 915.49 296.90 922.56 296.78 929.63 296.97 C 928.97 294.93 928.25 292.91 927.43 290.94 Z" />
<path fill="#ec208b" opacity="1.00" d=" M 451.37 349.37 C 460.41 343.02 473.33 343.36 482.26 349.74 C 487.38 353.29 491.04 358.69 492.80 364.64 C 496.06 375.93 491.04 388.93 480.93 394.96 C 472.75 400.11 461.78 400.35 453.38 395.57 C 446.73 391.92 441.93 385.34 440.14 378.01 C 437.51 367.32 442.19 355.41 451.37 349.37 Z" />
</g>
<g id="#832677ff">
<path fill="#832677" opacity="1.00" d=" M 576.44 20.70 C 583.97 19.26 592.08 21.08 598.13 25.83 C 606.18 31.85 610.22 42.60 608.24 52.44 C 606.07 65.09 593.90 74.99 581.06 74.42 C 567.36 74.53 555.06 62.68 554.54 49.01 C 553.41 35.82 563.41 22.94 576.44 20.70 Z" />
<path fill="#832677" opacity="1.00" d=" M 11.79 130.70 C 24.46 106.16 47.25 87.16 73.62 78.99 C 82.23 95.80 100.09 107.45 119.01 108.14 C 134.84 109.08 150.79 102.51 161.52 90.88 C 170.64 96.81 178.83 104.13 185.81 112.47 C 176.55 147.72 187.23 187.51 213.39 212.97 C 209.49 227.84 205.69 242.73 201.74 257.58 C 192.34 223.08 182.75 188.63 173.48 154.10 C 164.73 153.89 155.97 154.04 147.22 154.01 C 138.70 188.54 130.11 223.06 121.60 257.59 C 112.23 223.11 103.23 188.53 93.99 154.01 C 84.86 154.00 75.73 153.99 66.60 154.01 C 79.57 201.62 92.61 249.21 105.54 296.83 C 114.42 296.94 123.29 296.85 132.17 296.88 C 140.82 262.18 149.14 227.39 157.86 192.71 C 159.26 196.02 159.92 199.57 160.92 203.01 C 169.33 234.31 177.86 265.57 186.31 296.86 C 195.36 296.90 204.40 296.90 213.45 296.86 C 219.57 273.83 225.77 250.83 231.89 227.80 C 243.36 234.72 256.00 239.77 269.24 241.99 C 269.24 260.28 269.24 278.58 269.24 296.87 C 276.86 296.89 284.49 296.88 292.12 296.88 C 296.18 313.21 308.04 327.50 323.69 333.88 C 313.75 358.23 294.35 378.52 270.42 389.45 C 245.79 400.88 216.66 402.11 191.12 392.89 C 166.82 384.28 146.14 366.29 133.95 343.60 C 121.84 346.25 108.82 344.92 97.71 339.32 C 83.66 332.49 72.93 319.23 69.19 304.05 C 67.02 295.49 67.11 286.43 69.04 277.84 C 42.61 268.28 20.42 247.70 9.03 221.99 C 3.80 210.50 1.01 198.02 0.00 185.46 L 0.00 174.29 C 0.80 159.14 4.71 144.13 11.79 130.70 Z" />
<path fill="#832677" opacity="1.00" d=" M 869.42 87.62 C 874.28 88.10 879.19 88.12 884.03 88.91 C 898.76 90.95 912.92 96.37 925.50 104.25 C 927.36 105.42 929.16 106.67 930.96 107.94 C 925.08 127.49 924.91 148.73 930.71 168.32 C 935.00 183.08 942.76 196.73 952.86 208.30 C 946.99 213.45 941.90 219.57 938.57 226.67 C 931.85 240.48 931.41 257.22 937.54 271.32 C 934.23 276.21 928.59 278.77 923.95 282.21 C 917.54 266.09 911.16 249.95 904.76 233.82 C 912.51 230.53 919.88 225.65 924.45 218.43 C 930.23 209.49 931.26 198.32 929.85 187.99 C 928.16 176.20 920.77 165.18 910.04 159.81 C 901.40 155.45 891.56 154.14 881.99 154.00 C 860.78 154.01 839.58 153.97 818.38 154.02 C 818.39 197.51 818.39 241.00 818.37 284.49 C 798.12 273.76 781.96 255.71 772.81 234.75 C 776.01 234.77 779.22 234.78 782.43 234.64 C 782.28 227.73 782.41 220.82 782.35 213.91 C 776.93 213.87 771.52 213.91 766.11 213.88 C 763.56 201.20 763.45 188.16 765.29 175.38 C 775.31 175.34 785.33 175.39 795.35 175.35 C 795.37 168.24 795.36 161.12 795.36 154.01 C 787.41 153.99 779.46 154.00 771.51 154.00 C 780.48 130.64 798.44 111.00 820.63 99.54 C 835.61 91.62 852.53 87.86 869.42 87.62 Z" />
<path fill="#832677" opacity="1.00" d=" M 533.07 102.92 C 554.27 99.19 576.56 102.20 596.04 111.37 C 593.34 124.93 596.32 139.20 603.45 150.96 C 600.05 151.77 596.69 152.69 593.43 153.94 C 586.75 154.09 580.06 153.94 573.38 154.03 C 573.38 156.89 573.38 159.76 573.37 162.62 C 566.37 166.35 560.36 171.53 554.16 176.39 C 542.01 164.06 525.21 156.52 507.93 155.58 C 506.52 155.45 505.19 155.70 503.92 156.32 C 489.56 152.57 474.62 154.45 459.97 154.00 C 465.52 144.80 472.12 136.18 480.14 129.00 C 494.84 115.52 513.39 106.26 533.07 102.92 Z" />
<path fill="#832677" opacity="1.00" d=" M 844.11 174.63 C 855.74 174.59 867.38 174.63 879.02 174.61 C 885.72 174.62 892.83 176.36 897.74 181.17 C 907.14 190.13 904.97 208.34 893.03 214.08 C 886.28 217.57 878.47 217.49 871.07 217.38 C 862.08 217.38 853.10 217.40 844.11 217.37 C 844.10 203.12 844.11 188.88 844.11 174.63 Z" />
<path fill="#832677" opacity="1.00" d=" M 399.73 273.38 C 395.28 240.56 407.71 205.80 432.37 183.61 C 432.39 221.37 432.40 259.12 432.36 296.87 C 452.24 296.61 472.16 297.53 492.02 296.19 C 504.03 299.10 516.78 297.14 528.38 293.30 C 536.69 313.26 551.14 330.58 569.40 342.19 C 548.15 359.41 519.98 367.54 492.80 364.64 C 491.04 358.69 487.38 353.29 482.26 349.74 C 473.33 343.36 460.41 343.02 451.37 349.37 C 442.19 355.41 437.51 367.32 440.14 378.01 C 429.64 384.15 417.08 386.71 405.03 384.97 C 390.90 383.11 377.68 375.29 369.18 363.85 C 363.18 355.94 359.52 346.33 358.56 336.46 C 377.57 331.81 393.15 315.91 397.61 296.88 C 403.17 296.88 408.72 296.89 414.27 296.88 C 414.32 289.09 414.23 281.30 414.30 273.51 C 409.44 273.24 404.59 273.45 399.73 273.38 Z" />
<path fill="#832677" opacity="1.00" d=" M 1119.37 212.79 C 1128.57 221.53 1138.98 229.09 1150.62 234.22 C 1150.66 255.11 1150.61 275.99 1150.65 296.87 C 1177.37 296.88 1204.09 296.87 1230.80 296.88 C 1239.43 306.43 1249.85 314.32 1261.31 320.17 C 1234.74 343.00 1196.43 350.76 1163.01 340.39 C 1163.82 346.86 1162.74 353.67 1159.17 359.21 C 1153.99 367.72 1143.85 372.81 1133.93 371.89 C 1123.77 371.20 1114.51 364.23 1110.83 354.78 C 1107.66 345.65 1109.04 334.89 1115.42 327.46 C 1117.98 324.08 1121.92 322.29 1125.08 319.60 C 1117.63 312.91 1110.65 305.52 1105.50 296.88 C 1110.11 296.87 1114.73 296.88 1119.35 296.87 C 1119.38 268.84 1119.34 240.82 1119.37 212.79 Z" />
<path fill="#832677" opacity="1.00" d=" M 1089.14 226.34 C 1090.63 225.26 1092.05 224.09 1093.50 222.94 C 1093.50 239.05 1093.55 255.16 1093.48 271.27 C 1088.49 256.86 1088.17 241.41 1089.14 226.34 Z" />
<path fill="#832677" opacity="1.00" d=" M 844.12 238.12 C 856.10 238.04 868.08 238.21 880.07 238.03 C 887.17 256.08 893.81 274.32 900.76 292.44 C 882.73 299.04 862.74 298.75 844.12 294.85 C 844.10 275.94 844.10 257.03 844.12 238.12 Z" />
<path fill="#832677" opacity="1.00" d=" M 295.14 243.32 C 300.64 242.88 306.06 241.88 311.49 240.96 C 304.68 246.87 298.70 253.88 295.15 262.25 C 295.16 255.94 295.17 249.63 295.14 243.32 Z" />
<path fill="#832677" opacity="1.00" d=" M 1176.49 242.15 C 1185.91 243.45 1195.46 243.77 1204.94 242.87 C 1206.69 253.88 1210.29 264.51 1215.18 274.50 C 1202.28 274.52 1189.39 274.52 1176.50 274.50 C 1176.47 263.72 1176.49 252.93 1176.49 242.15 Z" />
<path fill="#832677" opacity="1.00" d=" M 962.91 298.62 C 974.93 296.08 987.70 297.95 998.66 303.43 C 1007.35 308.26 1014.98 315.18 1020.14 323.72 C 1026.52 333.99 1028.70 346.37 1027.58 358.31 C 1025.96 372.61 1018.14 386.02 1006.70 394.70 C 998.89 400.96 989.19 403.95 979.55 406.00 L 968.27 406.00 C 959.79 404.15 951.22 401.86 943.99 396.85 C 926.77 385.79 917.18 364.44 920.10 344.20 C 929.19 346.58 939.33 343.60 945.89 336.93 C 954.52 328.37 956.26 313.85 949.67 303.60 C 953.65 300.96 958.32 299.72 962.91 298.62 Z" />
</g>
<g id="#bb3c95ff">
<path fill="#bb3c95" opacity="1.00" d=" M 1180.38 34.53 C 1201.72 31.90 1223.86 35.77 1242.84 45.95 C 1271.59 61.00 1292.42 90.11 1297.29 122.22 C 1298.87 132.24 1298.73 142.45 1297.75 152.52 C 1282.28 154.68 1266.64 163.76 1260.79 178.84 C 1256.20 190.99 1257.48 205.27 1264.36 216.32 C 1247.79 230.84 1226.97 240.73 1204.94 242.87 C 1195.46 243.77 1185.91 243.45 1176.49 242.15 C 1176.47 239.68 1176.49 237.21 1176.56 234.74 C 1194.25 234.76 1211.93 234.77 1229.62 234.74 C 1229.64 227.81 1229.60 220.88 1229.64 213.96 C 1211.93 213.76 1194.22 213.93 1176.51 213.87 C 1176.47 201.05 1176.52 188.23 1176.49 175.41 C 1198.52 175.34 1220.55 175.39 1242.58 175.39 C 1242.68 168.27 1242.59 161.14 1242.63 154.02 C 1211.96 153.98 1181.30 154.00 1150.63 154.01 C 1150.61 180.75 1150.62 207.48 1150.62 234.22 C 1138.98 229.09 1128.57 221.53 1119.37 212.79 C 1119.38 193.20 1119.39 173.60 1119.37 154.01 C 1110.75 153.99 1102.13 154.00 1093.52 154.00 C 1093.48 159.13 1093.52 164.25 1093.45 169.38 C 1082.86 136.51 1090.44 98.65 1112.48 72.13 C 1117.74 65.73 1123.77 59.98 1130.33 54.93 C 1132.36 61.35 1136.52 67.20 1142.42 70.58 C 1148.91 74.60 1157.09 75.41 1164.38 73.32 C 1173.95 70.45 1181.58 61.90 1183.14 51.99 C 1184.29 46.06 1183.10 39.87 1180.38 34.53 Z" />
<path fill="#bb3c95" opacity="1.00" d=" M 750.11 72.79 C 789.82 62.37 833.53 67.55 869.42 87.62 C 852.53 87.86 835.61 91.62 820.63 99.54 C 798.44 111.00 780.48 130.64 771.51 154.00 C 748.79 154.02 726.08 153.96 703.37 154.03 C 703.38 163.54 703.38 173.06 703.36 182.57 C 696.60 176.31 689.73 170.14 682.09 164.94 C 689.97 158.61 696.43 150.42 699.90 140.86 C 705.29 126.84 704.41 110.57 697.56 97.21 C 713.44 86.03 731.30 77.66 750.11 72.79 Z" />
<path fill="#bb3c95" opacity="1.00" d=" M 386.42 103.81 C 419.31 96.33 455.47 105.96 480.14 129.00 C 472.12 136.18 465.52 144.80 459.97 154.00 C 450.77 154.02 441.57 153.97 432.37 154.02 C 432.38 163.89 432.37 173.75 432.37 183.61 C 407.71 205.80 395.28 240.56 399.73 273.38 C 399.33 273.38 398.53 273.37 398.13 273.36 C 393.90 251.67 375.45 233.66 353.50 230.48 C 353.49 226.86 353.49 223.24 353.51 219.62 C 356.54 217.72 359.20 215.30 361.67 212.72 C 375.36 199.06 385.13 181.53 389.54 162.70 C 394.07 143.29 393.01 122.62 386.42 103.81 Z" />
<path fill="#bb3c95" opacity="1.00" d=" M 925.50 104.25 C 927.86 103.71 930.23 103.24 932.63 102.82 C 932.01 104.51 931.46 106.22 930.96 107.94 C 929.16 106.67 927.36 105.42 925.50 104.25 Z" />
<path fill="#bb3c95" opacity="1.00" d=" M 729.26 175.38 C 741.27 175.38 753.28 175.38 765.29 175.38 C 763.45 188.16 763.56 201.20 766.11 213.88 C 753.82 213.85 741.54 213.89 729.25 213.86 C 729.26 201.03 729.24 188.21 729.26 175.38 Z" />
<path fill="#bb3c95" opacity="1.00" d=" M 1045.84 242.49 C 1061.27 240.46 1075.98 234.57 1089.14 226.34 C 1088.17 241.41 1088.49 256.86 1093.48 271.27 C 1093.55 279.81 1093.46 288.34 1093.52 296.88 C 1097.50 296.88 1101.50 296.88 1105.50 296.88 C 1110.65 305.52 1117.63 312.91 1125.08 319.60 C 1121.92 322.29 1117.98 324.08 1115.42 327.46 C 1109.04 334.89 1107.66 345.65 1110.83 354.78 C 1085.11 367.29 1054.26 368.57 1027.58 358.31 C 1028.70 346.37 1026.52 333.99 1020.14 323.72 C 1014.98 315.18 1007.35 308.26 998.66 303.43 C 1006.56 301.16 1014.37 298.06 1020.81 292.82 C 1025.81 289.13 1029.60 284.17 1033.37 279.30 C 1035.61 285.15 1037.78 291.02 1040.03 296.87 C 1049.13 296.88 1058.24 296.89 1067.34 296.86 C 1060.20 278.73 1053.00 260.62 1045.84 242.49 Z" />
<path fill="#bb3c95" opacity="1.00" d=" M 729.25 234.78 C 743.77 234.72 758.29 234.77 772.81 234.75 C 781.96 255.71 798.12 273.76 818.37 284.49 C 818.37 288.61 818.37 292.73 818.37 296.85 C 826.95 296.90 835.53 296.88 844.11 296.87 C 844.11 296.36 844.12 295.36 844.12 294.85 C 862.74 298.75 882.73 299.04 900.76 292.44 C 901.29 293.89 901.81 295.36 902.35 296.83 C 904.37 296.86 906.39 296.88 908.43 296.89 C 904.28 301.86 900.20 307.39 899.66 314.08 C 898.14 323.91 902.61 334.12 910.66 339.90 C 898.89 352.63 885.14 363.52 869.97 371.92 C 836.60 390.59 796.52 396.66 759.08 389.06 C 728.11 382.94 699.16 367.37 676.80 345.12 C 696.17 334.25 711.97 317.13 721.11 296.88 C 746.15 296.87 771.19 296.89 796.24 296.87 C 796.27 289.43 796.23 281.99 796.26 274.56 C 773.92 274.39 751.57 274.62 729.23 274.44 C 729.23 261.22 729.15 248.00 729.25 234.78 Z" />
<path fill="#bb3c95" opacity="1.00" d=" M 937.54 271.32 C 941.25 280.52 947.79 288.52 955.87 294.25 C 955.88 294.90 955.89 296.21 955.89 296.87 C 957.46 296.87 959.04 296.88 960.63 296.88 C 961.38 297.46 962.14 298.04 962.91 298.62 C 958.32 299.72 953.65 300.96 949.67 303.60 C 945.00 296.01 936.44 290.73 927.43 290.94 C 926.22 288.04 925.11 285.12 923.95 282.21 C 928.59 278.77 934.23 276.21 937.54 271.32 Z" />
</g>
<g id="#ffffffff">
<path fill="#ffffff" opacity="1.00" d=" M 1260.79 178.84 C 1266.64 163.76 1282.28 154.68 1297.75 152.52 C 1313.94 150.26 1331.30 152.76 1345.12 161.87 C 1352.50 166.68 1358.02 174.18 1360.27 182.71 C 1352.08 184.76 1343.89 186.79 1335.70 188.80 C 1334.21 185.34 1332.50 181.86 1329.65 179.32 C 1323.95 173.84 1315.63 172.40 1308.01 172.61 C 1301.32 172.78 1293.99 174.19 1289.24 179.30 C 1284.23 184.16 1282.99 192.95 1287.57 198.50 C 1291.44 203.17 1297.38 205.40 1303.06 206.99 C 1311.86 209.26 1320.70 211.39 1329.51 213.63 C 1339.10 216.19 1349.03 219.68 1356.09 226.97 C 1367.51 239.79 1368.96 259.88 1360.87 274.78 C 1353.35 287.94 1338.65 295.37 1324.12 297.79 C 1305.83 300.68 1286.07 298.79 1269.98 289.08 C 1260.19 283.24 1253.41 273.21 1250.54 262.29 C 1258.90 260.53 1267.25 258.70 1275.63 256.97 C 1277.02 263.06 1280.33 268.85 1285.67 272.29 C 1294.28 277.92 1305.06 278.52 1315.05 277.98 C 1322.46 277.46 1330.33 275.02 1335.13 269.00 C 1340.60 262.37 1339.16 251.67 1332.89 246.08 C 1326.60 241.26 1318.45 240.40 1311.06 238.21 C 1299.89 235.04 1288.27 233.10 1277.70 228.12 C 1272.19 225.63 1267.54 221.45 1264.36 216.32 C 1257.48 205.27 1256.20 190.99 1260.79 178.84 Z" />
<path fill="#ffffff" opacity="1.00" d=" M 66.60 154.01 C 75.73 153.99 84.86 154.00 93.99 154.01 C 103.23 188.53 112.23 223.11 121.60 257.59 C 130.11 223.06 138.70 188.54 147.22 154.01 C 155.97 154.04 164.73 153.89 173.48 154.10 C 182.75 188.63 192.34 223.08 201.74 257.58 C 205.69 242.73 209.49 227.84 213.39 212.97 C 218.56 193.33 223.63 173.65 228.78 154.01 C 236.38 153.99 243.99 154.00 251.60 154.01 C 245.05 178.61 238.44 203.20 231.89 227.80 C 225.77 250.83 219.57 273.83 213.45 296.86 C 204.40 296.90 195.36 296.90 186.31 296.86 C 177.86 265.57 169.33 234.31 160.92 203.01 C 159.92 199.57 159.26 196.02 157.86 192.71 C 149.14 227.39 140.82 262.18 132.17 296.88 C 123.29 296.85 114.42 296.94 105.54 296.83 C 92.61 249.21 79.57 201.62 66.60 154.01 Z" />
<path fill="#ffffff" opacity="1.00" d=" M 269.25 154.02 C 277.87 153.99 286.49 154.00 295.12 154.01 C 295.15 183.78 295.10 213.55 295.14 243.32 C 295.17 249.63 295.16 255.94 295.15 262.25 C 295.08 273.79 295.16 285.33 295.12 296.86 C 294.37 296.87 292.87 296.88 292.12 296.88 C 284.49 296.88 276.86 296.89 269.24 296.87 C 269.24 278.58 269.24 260.28 269.24 241.99 C 269.26 212.66 269.25 183.34 269.25 154.02 Z" />
<path fill="#ffffff" opacity="1.00" d=" M 326.37 154.02 C 335.42 153.99 344.46 153.97 353.51 154.04 C 353.48 175.90 353.50 197.76 353.51 219.62 C 353.49 223.24 353.49 226.86 353.50 230.48 C 353.51 244.78 353.47 259.07 353.52 273.37 C 368.39 273.37 383.26 273.39 398.13 273.36 C 398.53 273.37 399.33 273.38 399.73 273.38 C 404.59 273.45 409.44 273.24 414.30 273.51 C 414.23 281.30 414.32 289.09 414.27 296.88 C 408.72 296.89 403.17 296.88 397.61 296.88 C 373.87 296.86 350.12 296.90 326.37 296.86 C 326.37 249.25 326.39 201.64 326.37 154.02 Z" />
<path fill="#ffffff" opacity="1.00" d=" M 432.37 154.02 C 441.57 153.97 450.77 154.02 459.97 154.00 C 474.62 154.45 489.56 152.57 503.92 156.32 C 524.16 162.05 539.39 179.49 545.68 199.13 C 550.38 214.08 550.83 230.32 547.41 245.59 C 543.10 264.10 531.12 281.41 513.75 289.76 C 506.94 293.17 499.47 294.90 492.02 296.19 C 472.16 297.53 452.24 296.61 432.36 296.87 C 432.40 259.12 432.39 221.37 432.37 183.61 C 432.37 173.75 432.38 163.89 432.37 154.02 M 459.09 174.32 C 458.91 208.09 459.00 241.87 459.04 275.65 C 467.05 275.55 475.05 275.71 483.06 275.57 C 494.41 275.09 505.05 268.91 511.85 259.94 C 519.52 249.72 521.58 236.50 521.52 224.02 C 521.68 209.80 517.37 195.03 507.46 184.53 C 501.72 178.36 493.49 174.63 485.06 174.41 C 476.40 174.29 467.74 174.47 459.09 174.32 Z" />
<path fill="#ffffff" opacity="1.00" d=" M 573.38 154.03 C 580.06 153.94 586.75 154.09 593.43 153.94 C 601.29 154.06 609.15 153.98 617.01 154.00 C 627.41 154.09 637.94 153.44 648.17 155.74 C 654.10 156.89 659.76 159.59 664.07 163.88 C 676.38 175.26 679.35 195.82 669.84 209.81 C 665.39 216.64 657.95 221.05 650.06 222.68 C 658.65 224.37 667.24 228.21 672.63 235.37 C 685.72 252.09 681.00 279.79 662.63 290.74 C 651.61 297.30 638.34 296.96 625.97 296.88 C 608.44 296.87 590.90 296.90 573.37 296.86 C 573.38 252.11 573.38 207.37 573.37 162.62 C 573.38 159.76 573.38 156.89 573.38 154.03 M 597.76 174.51 C 597.74 187.63 597.74 200.75 597.76 213.87 C 608.19 213.88 618.62 213.88 629.05 213.87 C 633.40 213.88 637.87 212.93 641.51 210.46 C 650.00 204.78 652.18 192.35 647.52 183.57 C 643.67 177.37 636.00 174.53 628.96 174.49 C 618.56 174.51 608.16 174.48 597.76 174.51 M 597.70 234.49 C 597.82 248.07 597.70 261.66 597.76 275.24 C 608.17 275.27 618.59 275.23 629.00 275.26 C 638.57 276.09 649.75 271.75 652.70 261.84 C 654.78 255.17 653.87 247.29 649.21 241.89 C 644.81 236.58 637.73 234.27 630.99 234.38 C 619.90 234.45 608.79 234.22 597.70 234.49 Z" />
<path fill="#ffffff" opacity="1.00" d=" M 703.37 154.03 C 726.08 153.96 748.79 154.02 771.51 154.00 C 779.46 154.00 787.41 153.99 795.36 154.01 C 795.36 161.12 795.37 168.24 795.35 175.35 C 785.33 175.39 775.31 175.34 765.29 175.38 C 753.28 175.38 741.27 175.38 729.26 175.38 C 729.24 188.21 729.26 201.03 729.25 213.86 C 741.54 213.89 753.82 213.85 766.11 213.88 C 771.52 213.91 776.93 213.87 782.35 213.91 C 782.41 220.82 782.28 227.73 782.43 234.64 C 779.22 234.78 776.01 234.77 772.81 234.75 C 758.29 234.77 743.77 234.72 729.25 234.78 C 729.15 248.00 729.23 261.22 729.23 274.44 C 751.57 274.62 773.92 274.39 796.26 274.56 C 796.23 281.99 796.27 289.43 796.24 296.87 C 771.19 296.89 746.15 296.87 721.11 296.88 C 715.19 296.86 709.28 296.90 703.37 296.86 C 703.37 258.76 703.40 220.67 703.36 182.57 C 703.38 173.06 703.38 163.54 703.37 154.03 Z" />
<path fill="#ffffff" opacity="1.00" d=" M 818.38 154.02 C 839.58 153.97 860.78 154.01 881.99 154.00 C 891.56 154.14 901.40 155.45 910.04 159.81 C 920.77 165.18 928.16 176.20 929.85 187.99 C 931.26 198.32 930.23 209.49 924.45 218.43 C 919.88 225.65 912.51 230.53 904.76 233.82 C 911.16 249.95 917.54 266.09 923.95 282.21 C 925.11 285.12 926.22 288.04 927.43 290.94 C 928.25 292.91 928.97 294.93 929.63 296.97 C 922.56 296.78 915.49 296.90 908.43 296.89 C 906.39 296.88 904.37 296.86 902.35 296.83 C 901.81 295.36 901.29 293.89 900.76 292.44 C 893.81 274.32 887.17 256.08 880.07 238.03 C 868.08 238.21 856.10 238.04 844.12 238.12 C 844.10 257.03 844.10 275.94 844.12 294.85 C 844.12 295.36 844.11 296.36 844.11 296.87 C 835.53 296.88 826.95 296.90 818.37 296.85 C 818.37 292.73 818.37 288.61 818.37 284.49 C 818.39 241.00 818.39 197.51 818.38 154.02 M 844.11 174.63 C 844.11 188.88 844.10 203.12 844.11 217.37 C 853.10 217.40 862.08 217.38 871.07 217.38 C 878.47 217.49 886.28 217.57 893.03 214.08 C 904.97 208.34 907.14 190.13 897.74 181.17 C 892.83 176.36 885.72 174.62 879.02 174.61 C 867.38 174.63 855.74 174.59 844.11 174.63 Z" />
<path fill="#ffffff" opacity="1.00" d=" M 955.88 154.01 C 976.25 153.98 996.61 154.02 1016.98 153.99 C 1030.47 153.88 1045.28 155.86 1055.63 165.33 C 1068.30 176.90 1070.89 196.44 1065.27 212.09 C 1061.52 222.45 1052.36 229.77 1042.41 233.81 C 1043.53 236.71 1044.68 239.60 1045.84 242.49 C 1053.00 260.62 1060.20 278.73 1067.34 296.86 C 1058.24 296.89 1049.13 296.88 1040.03 296.87 C 1037.78 291.02 1035.61 285.15 1033.37 279.30 C 1028.19 265.57 1023.00 251.86 1017.82 238.14 C 1005.80 238.11 993.78 238.13 981.76 238.13 C 981.73 257.71 981.75 277.28 981.75 296.86 C 974.71 296.89 967.67 296.86 960.63 296.88 C 959.04 296.88 957.46 296.87 955.89 296.87 C 955.89 296.21 955.88 294.90 955.87 294.25 C 955.89 247.50 955.86 200.76 955.88 154.01 M 981.76 174.63 C 981.74 188.88 981.74 203.12 981.76 217.37 C 992.83 217.39 1003.90 217.37 1014.97 217.38 C 1020.88 217.29 1027.02 216.36 1032.14 213.20 C 1043.15 206.51 1044.34 188.65 1034.50 180.42 C 1029.72 176.25 1023.22 174.69 1017.01 174.62 C 1005.26 174.62 993.51 174.61 981.76 174.63 Z" />
<path fill="#ffffff" opacity="1.00" d=" M 1093.52 154.00 C 1102.13 154.00 1110.75 153.99 1119.37 154.01 C 1119.39 173.60 1119.38 193.20 1119.37 212.79 C 1119.34 240.82 1119.38 268.84 1119.35 296.87 C 1114.73 296.88 1110.11 296.87 1105.50 296.88 C 1101.50 296.88 1097.50 296.88 1093.52 296.88 C 1093.46 288.34 1093.55 279.81 1093.48 271.27 C 1093.55 255.16 1093.50 239.05 1093.50 222.94 C 1093.47 205.08 1093.56 187.23 1093.45 169.38 C 1093.52 164.25 1093.48 159.13 1093.52 154.00 Z" />
<path fill="#ffffff" opacity="1.00" d=" M 1150.63 154.01 C 1181.30 154.00 1211.96 153.98 1242.63 154.02 C 1242.59 161.14 1242.68 168.27 1242.58 175.39 C 1220.55 175.39 1198.52 175.34 1176.49 175.41 C 1176.52 188.23 1176.47 201.05 1176.51 213.87 C 1194.22 213.93 1211.93 213.76 1229.64 213.96 C 1229.60 220.88 1229.64 227.81 1229.62 234.74 C 1211.93 234.77 1194.25 234.76 1176.56 234.74 C 1176.49 237.21 1176.47 239.68 1176.49 242.15 C 1176.49 252.93 1176.47 263.72 1176.50 274.50 C 1189.39 274.52 1202.28 274.52 1215.18 274.50 C 1224.61 274.50 1234.05 274.49 1243.49 274.51 C 1243.50 281.97 1243.51 289.42 1243.49 296.88 C 1239.25 296.87 1235.03 296.87 1230.80 296.88 C 1204.09 296.87 1177.37 296.88 1150.65 296.87 C 1150.61 275.99 1150.66 255.11 1150.62 234.22 C 1150.62 207.48 1150.61 180.75 1150.63 154.01 Z" />
</g>
</svg>
