<?xml version="1.0" encoding="UTF-8" ?>
<!DOCTYPE svg PUBLIC "-//W3C//DTD SVG 1.1//EN" "http://www.w3.org/Graphics/SVG/1.1/DTD/svg11.dtd">
<svg width="528pt" height="196pt" viewBox="0 0 528 196" version="1.1" xmlns="http://www.w3.org/2000/svg">
<g id="#4eb252ff">
<path fill="#4eb252" opacity="1.00" d=" M 84.31 45.86 C 94.11 44.30 104.26 46.54 112.97 51.14 C 126.80 58.90 136.58 73.39 138.58 89.12 C 140.68 102.70 137.17 117.03 129.18 128.19 C 122.61 137.03 113.28 144.06 102.49 146.74 C 87.29 151.18 69.97 146.28 58.84 135.14 C 51.26 128.21 46.11 118.81 43.96 108.79 C 39.81 91.55 45.08 72.27 57.56 59.65 C 64.72 52.33 74.21 47.49 84.31 45.86 M 55.89 65.24 C 58.42 72.40 63.21 78.37 66.84 84.96 C 61.80 96.50 60.45 109.12 57.41 121.23 C 64.19 112.50 69.89 102.71 78.72 95.77 C 88.45 86.57 100.85 81.12 113.21 76.45 C 118.38 74.59 123.64 72.80 128.25 69.75 C 113.17 69.47 98.07 69.76 82.98 69.63 C 73.78 69.62 64.81 67.21 55.89 65.24 M 79.37 97.37 C 76.47 99.67 75.42 103.35 74.49 106.76 C 72.43 114.78 70.82 122.92 69.36 131.07 C 73.07 128.12 74.95 123.57 78.03 120.03 C 83.85 112.25 91.30 105.82 99.30 100.37 C 108.35 94.78 118.41 91.13 128.32 87.42 C 130.52 86.56 132.78 85.59 134.24 83.63 C 127.17 83.26 120.08 83.61 113.01 83.48 C 109.71 83.55 106.36 83.17 103.12 83.89 C 94.37 86.67 86.43 91.57 79.37 97.37 Z" />
</g>
<g id="#ffffffff">
<path fill="#ffffff" opacity="1.00" d=" M 497.47 12.92 C 502.78 12.25 508.15 12.40 513.50 12.38 C 513.65 22.59 513.30 32.84 514.33 43.01 C 515.01 53.32 514.19 63.69 515.21 73.99 C 515.68 80.02 515.43 86.07 514.79 92.07 C 514.73 103.24 512.14 114.18 509.23 124.90 C 506.42 133.10 503.33 141.35 498.38 148.53 C 492.93 157.10 485.46 164.34 477.08 170.02 C 470.47 173.60 463.73 177.11 456.62 179.57 C 447.83 181.13 438.99 183.08 430.01 182.61 C 337.01 182.61 244.00 182.66 151.00 182.72 C 130.36 183.95 109.66 183.04 89.00 183.49 C 79.97 183.90 71.46 180.44 63.05 177.66 C 58.36 175.95 53.44 174.56 49.36 171.58 C 36.29 161.69 24.64 149.13 18.57 133.68 C 13.70 121.01 10.40 107.30 12.11 93.66 C 12.17 85.63 13.59 77.66 16.31 70.10 C 20.12 57.75 26.98 46.26 36.59 37.55 C 41.49 33.30 46.20 28.68 52.04 25.72 C 58.42 22.44 64.76 18.80 71.84 17.23 C 78.40 15.45 85.24 15.21 92.00 15.27 C 153.34 15.53 214.68 15.66 276.02 15.70 C 281.69 15.57 287.32 16.44 292.99 16.27 C 345.66 16.26 398.33 16.48 451.00 16.36 C 461.11 15.36 471.30 15.61 481.38 14.24 C 486.71 13.36 492.15 13.88 497.47 12.92 M 84.31 45.86 C 74.21 47.49 64.72 52.33 57.56 59.65 C 45.08 72.27 39.81 91.55 43.96 108.79 C 46.11 118.81 51.26 128.21 58.84 135.14 C 69.97 146.28 87.29 151.18 102.49 146.74 C 113.28 144.06 122.61 137.03 129.18 128.19 C 137.17 117.03 140.68 102.70 138.58 89.12 C 136.58 73.39 126.80 58.90 112.97 51.14 C 104.26 46.54 94.11 44.30 84.31 45.86 M 231.31 106.30 C 230.16 109.27 228.25 112.05 228.20 115.33 C 233.80 115.40 239.41 116.01 245.01 115.62 C 250.53 115.29 254.97 111.07 257.23 106.27 C 262.84 94.35 267.78 82.12 273.10 70.07 C 277.58 70.15 282.44 70.91 285.80 74.15 C 288.50 77.01 288.69 81.21 288.15 84.90 C 286.55 94.85 282.10 104.18 276.26 112.33 C 272.78 116.73 268.89 121.47 263.19 122.91 C 257.92 124.26 252.46 125.40 247.00 125.27 C 241.34 124.43 235.61 124.55 229.91 124.61 C 225.93 124.61 222.70 127.62 221.01 131.00 C 218.62 135.74 216.60 140.66 214.76 145.64 C 222.17 146.04 229.58 146.42 236.99 146.80 C 242.33 147.98 247.65 146.39 253.00 146.38 C 267.14 144.83 281.83 140.46 292.05 130.05 C 304.83 117.86 310.79 100.47 314.26 83.57 C 315.04 76.55 315.45 68.81 311.51 62.58 C 307.90 57.17 301.63 54.35 295.52 52.79 C 282.31 49.04 268.45 50.51 254.90 50.16 C 247.13 68.91 239.10 87.56 231.31 106.30 M 402.14 64.96 C 390.75 91.86 379.52 118.81 368.07 145.68 C 376.96 145.74 385.86 145.63 394.76 145.60 C 399.08 135.92 402.89 126.00 407.04 116.24 C 408.63 112.59 409.74 108.70 412.04 105.39 C 415.47 106.22 419.42 107.32 421.02 110.85 C 425.09 119.08 425.17 128.47 426.88 137.32 C 427.61 140.33 428.86 143.71 431.86 145.11 C 435.57 147.14 439.97 146.53 444.03 146.58 C 447.25 146.30 450.70 146.98 453.70 145.46 C 450.38 131.78 450.40 117.22 444.68 104.15 C 443.27 100.55 439.90 98.47 437.13 96.02 C 440.89 93.40 445.18 91.64 448.83 88.84 C 459.94 80.62 468.25 69.42 476.94 58.84 C 479.18 55.99 481.67 53.33 483.69 50.31 C 476.80 50.07 469.91 50.06 463.02 50.17 C 456.58 50.08 450.12 53.01 446.04 58.02 C 438.61 66.94 432.69 77.16 424.26 85.23 C 423.01 86.65 421.11 86.93 419.37 87.33 C 423.77 74.59 429.85 62.48 434.15 49.71 C 425.69 49.62 417.23 49.53 408.77 49.54 C 406.06 54.46 404.37 59.83 402.14 64.96 M 187.95 57.95 C 179.73 61.44 173.16 67.88 167.91 74.96 C 162.76 81.79 159.67 89.86 156.93 97.89 C 154.33 106.37 151.72 115.08 152.26 124.06 C 151.99 130.96 154.73 138.53 160.93 142.15 C 167.23 145.87 174.79 146.55 181.96 146.49 C 187.26 146.42 192.92 147.23 197.83 144.71 C 204.06 141.76 207.80 135.22 209.09 128.66 C 203.34 128.44 197.65 127.53 191.94 126.98 C 187.74 126.23 182.53 125.95 180.04 121.90 C 177.96 119.03 178.27 115.25 178.99 111.97 C 181.15 102.02 185.32 92.51 191.19 84.20 C 194.29 80.25 197.66 75.87 202.71 74.42 C 206.78 73.24 210.97 72.48 215.13 71.68 C 220.40 71.13 225.80 71.36 230.94 69.89 C 233.58 69.13 235.59 66.96 236.66 64.49 C 238.71 59.95 240.11 55.15 241.83 50.47 C 223.64 49.41 204.80 50.39 187.95 57.95 M 335.63 56.51 C 333.00 61.68 331.53 67.35 329.24 72.68 C 344.84 72.73 360.44 72.73 376.04 72.68 C 380.57 72.86 385.52 70.90 387.74 66.75 C 390.58 61.57 392.03 55.78 394.09 50.27 C 378.38 50.19 362.68 50.16 346.98 50.24 C 342.43 50.04 337.65 52.29 335.63 56.51 M 320.34 94.36 C 317.78 99.54 316.15 105.10 314.11 110.49 C 329.43 110.59 344.76 110.51 360.09 110.54 C 365.09 110.75 370.64 108.72 372.99 104.02 C 375.50 99.04 377.00 93.63 379.06 88.46 C 368.35 88.72 357.71 87.40 347.00 87.77 C 341.65 87.80 336.31 87.50 330.97 87.75 C 326.65 88.07 322.24 90.33 320.34 94.36 M 308.69 125.68 C 306.05 127.61 304.75 130.76 303.61 133.71 C 302.15 137.73 300.56 141.70 299.29 145.78 C 314.83 145.80 330.37 145.78 345.91 145.78 C 350.53 145.82 355.53 144.08 357.81 139.78 C 360.49 134.66 362.22 129.11 363.98 123.63 C 349.65 123.05 335.26 124.16 320.98 122.67 C 316.80 123.07 312.28 123.25 308.69 125.68 Z" />
<path fill="#ffffff" opacity="1.00" d=" M 55.89 65.24 C 64.81 67.21 73.78 69.62 82.98 69.63 C 98.07 69.76 113.17 69.47 128.25 69.75 C 123.64 72.80 118.38 74.59 113.21 76.45 C 100.85 81.12 88.45 86.57 78.72 95.77 C 69.89 102.71 64.19 112.50 57.41 121.23 C 60.45 109.12 61.80 96.50 66.84 84.96 C 63.21 78.37 58.42 72.40 55.89 65.24 Z" />
<path fill="#ffffff" opacity="1.00" d=" M 79.37 97.37 C 86.43 91.57 94.37 86.67 103.12 83.89 C 106.36 83.17 109.71 83.55 113.01 83.48 C 120.08 83.61 127.17 83.26 134.24 83.63 C 132.78 85.59 130.52 86.56 128.32 87.42 C 118.41 91.13 108.35 94.78 99.30 100.37 C 91.30 105.82 83.85 112.25 78.03 120.03 C 74.95 123.57 73.07 128.12 69.36 131.07 C 70.82 122.92 72.43 114.78 74.49 106.76 C 75.42 103.35 76.47 99.67 79.37 97.37 Z" />
</g>
<g id="#2a2a28ff">
<path fill="#2a2a28" opacity="1.00" d=" M 231.31 106.30 C 239.10 87.56 247.13 68.91 254.90 50.16 C 268.45 50.51 282.31 49.04 295.52 52.79 C 301.63 54.35 307.90 57.17 311.51 62.58 C 315.45 68.81 315.04 76.55 314.26 83.57 C 310.79 100.47 304.83 117.86 292.05 130.05 C 281.83 140.46 267.14 144.83 253.00 146.38 C 247.65 146.39 242.33 147.98 236.99 146.80 C 229.58 146.42 222.17 146.04 214.76 145.64 C 216.60 140.66 218.62 135.74 221.01 131.00 C 222.70 127.62 225.93 124.61 229.91 124.61 C 235.61 124.55 241.34 124.43 247.00 125.27 C 252.46 125.40 257.92 124.26 263.19 122.91 C 268.89 121.47 272.78 116.73 276.26 112.33 C 282.10 104.18 286.55 94.85 288.15 84.90 C 288.69 81.21 288.50 77.01 285.80 74.15 C 282.44 70.91 277.58 70.15 273.10 70.07 C 267.78 82.12 262.84 94.35 257.23 106.27 C 254.97 111.07 250.53 115.29 245.01 115.62 C 239.41 116.01 233.80 115.40 228.20 115.33 C 228.25 112.05 230.16 109.27 231.31 106.30 Z" />
<path fill="#2a2a28" opacity="1.00" d=" M 402.14 64.96 C 404.37 59.83 406.06 54.46 408.77 49.54 C 417.23 49.53 425.69 49.62 434.15 49.71 C 429.85 62.48 423.77 74.59 419.37 87.33 C 421.11 86.93 423.01 86.65 424.26 85.23 C 432.69 77.16 438.61 66.94 446.04 58.02 C 450.12 53.01 456.58 50.08 463.02 50.17 C 469.91 50.06 476.80 50.07 483.69 50.31 C 481.67 53.33 479.18 55.99 476.94 58.84 C 468.25 69.42 459.94 80.62 448.83 88.84 C 445.18 91.64 440.89 93.40 437.13 96.02 C 439.90 98.47 443.27 100.55 444.68 104.15 C 450.40 117.22 450.38 131.78 453.70 145.46 C 450.70 146.98 447.25 146.30 444.03 146.58 C 439.97 146.53 435.57 147.14 431.86 145.11 C 428.86 143.71 427.61 140.33 426.88 137.32 C 425.17 128.47 425.09 119.08 421.02 110.85 C 419.42 107.32 415.47 106.22 412.04 105.39 C 409.74 108.70 408.63 112.59 407.04 116.24 C 402.89 126.00 399.08 135.92 394.76 145.60 C 385.86 145.63 376.96 145.74 368.07 145.68 C 379.52 118.81 390.75 91.86 402.14 64.96 Z" />
<path fill="#2a2a28" opacity="1.00" d=" M 187.95 57.95 C 204.80 50.39 223.64 49.41 241.83 50.47 C 240.11 55.15 238.71 59.95 236.66 64.49 C 235.59 66.96 233.58 69.13 230.94 69.89 C 225.80 71.36 220.40 71.13 215.13 71.68 C 210.97 72.48 206.78 73.24 202.71 74.42 C 197.66 75.87 194.29 80.25 191.19 84.20 C 185.32 92.51 181.15 102.02 178.99 111.97 C 178.27 115.25 177.96 119.03 180.04 121.90 C 182.53 125.95 187.74 126.23 191.94 126.98 C 197.65 127.53 203.34 128.44 209.09 128.66 C 207.80 135.22 204.06 141.76 197.83 144.71 C 192.92 147.23 187.26 146.42 181.96 146.49 C 174.79 146.55 167.23 145.87 160.93 142.15 C 154.73 138.53 151.99 130.96 152.26 124.06 C 151.72 115.08 154.33 106.37 156.93 97.89 C 159.67 89.86 162.76 81.79 167.91 74.96 C 173.16 67.88 179.73 61.44 187.95 57.95 Z" />
<path fill="#2a2a28" opacity="1.00" d=" M 335.63 56.51 C 337.65 52.29 342.43 50.04 346.98 50.24 C 362.68 50.16 378.38 50.19 394.09 50.27 C 392.03 55.78 390.58 61.57 387.74 66.75 C 385.52 70.90 380.57 72.86 376.04 72.68 C 360.44 72.73 344.84 72.73 329.24 72.68 C 331.53 67.35 333.00 61.68 335.63 56.51 Z" />
<path fill="#2a2a28" opacity="1.00" d=" M 320.34 94.36 C 322.24 90.33 326.65 88.07 330.97 87.75 C 336.31 87.50 341.65 87.80 347.00 87.77 C 357.71 87.40 368.35 88.72 379.06 88.46 C 377.00 93.63 375.50 99.04 372.99 104.02 C 370.64 108.72 365.09 110.75 360.09 110.54 C 344.76 110.51 329.43 110.59 314.11 110.49 C 316.15 105.10 317.78 99.54 320.34 94.36 Z" />
<path fill="#2a2a28" opacity="1.00" d=" M 308.69 125.68 C 312.28 123.25 316.80 123.07 320.98 122.67 C 335.26 124.16 349.65 123.05 363.98 123.63 C 362.22 129.11 360.49 134.66 357.81 139.78 C 355.53 144.08 350.53 145.82 345.91 145.78 C 330.37 145.78 314.83 145.80 299.29 145.78 C 300.56 141.70 302.15 137.73 303.61 133.71 C 304.75 130.76 306.05 127.61 308.69 125.68 Z" />
</g>
</svg>
