<?xml version="1.0" encoding="UTF-8" ?>
<!DOCTYPE svg PUBLIC "-//W3C//DTD SVG 1.1//EN" "http://www.w3.org/Graphics/SVG/1.1/DTD/svg11.dtd">
<svg width="4450pt" height="1450pt" viewBox="0 0 4450 1450" version="1.1" xmlns="http://www.w3.org/2000/svg">
<g id="#090909ff">
<path fill="#090909" opacity="1.00" d=" M 1906.22 20.82 C 1922.29 20.64 1938.37 20.82 1954.44 20.73 C 1954.52 71.58 1954.58 122.44 1954.41 173.29 C 1938.35 173.19 1922.30 173.30 1906.25 173.23 C 1906.20 155.55 1906.38 137.88 1906.16 120.21 C 1880.09 120.72 1853.70 118.67 1828.00 124.02 C 1794.48 130.72 1762.78 146.55 1737.53 169.62 C 1709.04 195.24 1688.80 229.76 1680.06 267.04 C 1670.30 307.29 1674.86 350.60 1691.68 388.34 C 1704.18 416.69 1724.13 441.55 1748.46 460.64 C 1780.17 485.31 1819.83 499.72 1860.05 500.55 C 1875.44 501.31 1890.85 500.08 1906.23 500.80 C 1906.27 482.54 1906.25 464.27 1906.25 446.01 C 1922.33 445.99 1938.41 446.01 1954.50 446.01 C 1954.50 496.83 1954.51 547.66 1954.49 598.49 C 1938.40 598.46 1922.30 598.59 1906.21 598.43 C 1906.30 580.29 1906.23 562.15 1906.25 544.00 C 1882.22 543.78 1858.07 544.87 1834.17 541.86 C 1797.41 536.84 1761.95 522.83 1731.73 501.32 C 1699.55 478.57 1673.05 447.66 1656.22 411.98 C 1637.22 372.48 1629.86 327.56 1635.01 284.06 C 1638.97 249.51 1651.01 215.98 1669.61 186.62 C 1688.91 156.05 1715.51 130.14 1746.58 111.65 C 1773.87 95.40 1804.47 84.68 1835.98 80.62 C 1842.64 79.60 1849.44 79.70 1856.02 78.06 C 1872.70 76.40 1889.51 77.20 1906.25 77.00 C 1906.24 58.27 1906.29 39.55 1906.22 20.82 Z" />
<path fill="#090909" opacity="1.00" d=" M 1967.56 173.27 C 1967.46 122.42 1967.46 71.58 1967.56 20.73 C 1984.12 20.78 2000.68 20.73 2017.24 20.76 C 2017.26 71.59 2017.25 122.41 2017.24 173.24 C 2000.68 173.27 1984.12 173.22 1967.56 173.27 Z" />
<path fill="#090909" opacity="1.00" d=" M 716.26 96.33 C 854.95 93.03 994.77 133.81 1108.69 213.28 C 1126.43 225.64 1143.52 238.96 1159.84 253.15 C 1171.32 262.95 1182.00 273.62 1193.14 283.79 C 1249.97 336.86 1296.09 401.08 1329.78 471.08 C 1367.53 549.51 1389.91 635.31 1395.22 722.19 C 1403.42 859.65 1368.87 999.82 1295.62 1116.62 C 1277.06 1145.53 1257.24 1173.72 1234.82 1199.78 C 1128.73 1323.66 975.14 1405.91 813.08 1424.86 C 787.20 1427.88 761.14 1429.22 735.09 1429.00 C 724.11 1428.51 713.12 1428.99 702.15 1428.40 C 574.24 1423.30 448.30 1378.74 345.39 1302.67 C 313.96 1279.51 285.00 1253.11 257.80 1225.15 C 200.60 1165.52 154.63 1095.17 122.92 1018.87 C 92.00 944.60 74.69 864.48 73.87 783.96 C 73.74 766.32 73.16 748.67 73.92 731.03 C 76.98 642.87 99.09 555.61 137.02 476.03 C 160.31 427.05 189.76 381.03 224.22 339.16 C 298.93 245.00 401.83 174.60 514.84 134.56 C 579.50 111.74 647.64 98.09 716.26 96.33 M 487.24 186.15 C 385.35 230.95 295.11 302.28 228.78 391.74 C 217.03 408.04 206.81 425.40 196.75 442.79 C 164.74 499.14 139.75 559.73 125.19 622.97 C 114.71 667.82 110.12 713.96 111.26 759.99 C 108.61 837.95 122.93 916.18 151.08 988.83 C 183.14 1071.69 232.62 1147.76 295.19 1210.82 C 364.83 1278.72 449.82 1330.25 541.16 1363.29 C 544.79 1324.95 553.29 1287.03 567.20 1251.09 C 592.73 1184.49 636.55 1124.44 694.30 1082.27 C 704.58 1077.62 715.69 1074.95 726.72 1072.69 C 751.50 1067.99 776.92 1068.29 801.94 1070.55 C 836.45 1073.66 870.54 1080.35 905.09 1083.16 C 923.43 1084.47 941.42 1076.92 955.31 1065.29 C 969.68 1053.33 980.87 1037.82 989.09 1021.11 C 995.83 1001.87 996.38 980.82 992.42 960.92 C 988.21 939.05 979.29 918.45 969.44 898.60 C 961.49 883.03 953.06 867.72 944.66 852.40 C 905.73 788.96 866.62 725.49 833.01 659.02 C 806.52 606.96 783.53 552.97 766.80 496.94 C 758.91 472.34 752.55 447.25 747.72 421.87 C 729.50 326.67 732.30 228.51 747.08 133.05 C 741.39 132.77 735.70 132.58 730.03 132.91 C 646.58 133.77 563.55 152.53 487.24 186.15 M 761.93 133.66 C 766.52 180.75 772.20 227.74 779.79 274.45 C 792.62 353.15 810.96 431.23 839.19 505.92 C 859.10 558.70 884.05 609.68 914.80 657.01 C 946.80 706.23 982.85 752.82 1012.21 803.75 C 1031.24 836.66 1047.40 871.58 1056.54 908.60 C 1061.58 928.64 1064.28 949.24 1064.89 969.89 C 1067.41 1002.61 1060.62 1036.08 1045.06 1065.02 C 1030.24 1092.77 1006.50 1116.28 977.13 1128.20 C 969.09 1131.14 961.36 1135.00 952.98 1136.95 C 932.47 1142.08 911.02 1140.11 890.39 1136.79 C 864.85 1132.78 839.20 1126.53 813.17 1128.80 C 804.29 1129.46 795.69 1131.86 786.99 1133.59 C 750.72 1141.50 716.93 1158.96 688.11 1182.18 C 660.06 1204.78 636.29 1232.33 616.11 1262.08 C 593.47 1295.40 575.13 1331.48 559.72 1368.65 C 698.25 1408.41 850.11 1397.24 982.29 1340.36 C 1052.89 1310.10 1117.88 1266.52 1171.84 1211.78 C 1200.05 1184.39 1225.52 1154.18 1247.72 1121.72 C 1346.44 977.73 1382.49 792.04 1343.23 621.78 C 1327.05 547.26 1295.24 476.51 1252.39 413.56 C 1211.42 353.22 1160.83 299.62 1104.08 253.91 C 1071.13 231.05 1036.13 211.14 999.79 194.19 C 925.19 159.51 844.18 138.03 761.93 133.66 Z" />
<path fill="#090909" opacity="1.00" d=" M 3747.58 187.81 C 3787.00 183.55 3828.25 190.90 3862.32 211.68 C 3891.22 228.96 3914.20 255.73 3927.30 286.72 C 3943.42 324.86 3945.58 368.53 3934.19 408.27 C 3925.13 440.01 3906.35 469.01 3880.61 489.75 C 3854.72 510.88 3822.25 523.23 3789.11 526.53 C 3748.61 530.78 3706.36 522.15 3671.98 499.95 C 3644.33 482.02 3622.30 455.50 3610.11 424.85 C 3594.53 386.47 3593.18 342.76 3605.19 303.21 C 3614.81 271.74 3634.01 243.24 3659.95 222.93 C 3684.98 203.09 3715.97 191.44 3747.58 187.81 M 3748.57 220.78 C 3712.85 225.28 3678.99 244.43 3657.76 273.66 C 3634.00 305.72 3626.29 348.15 3634.16 386.97 C 3640.32 418.29 3657.82 447.41 3683.37 466.71 C 3715.38 491.64 3758.57 499.64 3798.02 492.14 C 3829.57 486.30 3859.06 469.06 3878.70 443.55 C 3903.11 412.48 3911.78 370.68 3905.18 332.06 C 3900.02 299.47 3882.60 268.80 3856.54 248.42 C 3826.46 224.66 3786.26 215.51 3748.57 220.78 Z" />
<path fill="#090909" opacity="1.00" d=" M 4059.09 216.10 C 4087.62 196.37 4122.49 186.63 4157.04 186.74 C 4194.73 186.01 4233.00 197.84 4262.46 221.66 C 4287.01 241.47 4304.68 269.27 4313.43 299.49 C 4302.03 299.48 4290.64 299.56 4279.25 299.45 C 4268.57 271.05 4247.43 246.34 4219.97 233.07 C 4201.74 223.95 4181.34 219.66 4161.04 219.25 C 4138.25 219.00 4115.19 223.42 4094.77 233.74 C 4068.61 246.66 4047.42 269.06 4035.72 295.75 C 4025.77 318.00 4021.99 342.72 4023.48 366.97 C 4025.22 400.16 4038.22 433.31 4062.13 456.78 C 4073.74 468.54 4087.90 477.66 4103.15 483.96 C 4122.30 491.98 4143.28 495.07 4163.97 494.45 C 4185.89 493.62 4207.88 488.07 4226.87 476.89 C 4252.64 462.05 4271.60 436.96 4281.26 409.05 C 4292.61 408.96 4303.97 409.01 4315.34 409.01 C 4306.27 442.10 4287.35 472.93 4260.00 493.98 C 4233.07 515.03 4199.03 526.08 4165.01 527.04 C 4127.87 528.47 4089.85 519.08 4059.07 497.86 C 4032.26 479.47 4011.57 452.46 4000.46 421.94 C 3986.42 383.69 3985.70 340.94 3997.12 301.93 C 4007.45 267.48 4029.32 236.44 4059.09 216.10 Z" />
<path fill="#090909" opacity="1.00" d=" M 2080.29 191.31 C 2093.04 191.20 2105.79 191.24 2118.55 191.29 C 2154.22 257.87 2189.50 324.67 2225.09 391.30 C 2237.73 364.01 2249.79 336.46 2262.18 309.06 C 2279.83 269.79 2297.42 230.49 2315.10 191.24 C 2327.04 191.28 2338.98 191.22 2350.92 191.27 C 2321.36 256.90 2291.68 322.46 2262.07 388.06 C 2249.12 416.17 2237.46 445.01 2221.43 471.57 C 2213.32 484.91 2203.51 497.49 2191.01 507.00 C 2181.59 514.39 2170.34 519.20 2158.61 521.45 C 2143.54 524.66 2128.06 523.94 2112.75 523.99 C 2112.74 513.58 2112.74 503.17 2112.76 492.76 C 2126.31 492.54 2140.07 493.65 2153.40 490.56 C 2162.17 488.59 2170.48 484.29 2176.80 477.84 C 2190.88 464.63 2198.95 446.75 2207.78 429.94 C 2165.32 350.38 2122.79 270.85 2080.29 191.31 Z" />
<path fill="#090909" opacity="1.00" d=" M 2401.26 191.25 C 2480.00 191.26 2558.76 191.24 2637.51 191.26 C 2637.49 301.68 2637.51 412.09 2637.50 522.50 C 2626.34 522.52 2615.19 522.46 2604.05 522.53 C 2603.94 422.60 2604.04 322.68 2604.00 222.75 C 2569.64 222.74 2535.29 222.75 2500.93 222.75 C 2478.85 222.99 2456.79 222.27 2434.72 222.58 C 2434.82 322.52 2434.66 422.46 2434.80 522.41 C 2423.64 522.64 2412.48 522.39 2401.33 522.54 C 2400.97 506.00 2401.66 489.47 2401.50 472.93 C 2401.39 379.04 2401.75 285.14 2401.26 191.25 Z" />
<path fill="#090909" opacity="1.00" d=" M 2730.50 191.26 C 2791.91 191.25 2853.33 191.26 2914.75 191.26 C 2914.75 201.83 2914.73 212.41 2914.76 222.98 C 2864.42 223.02 2814.09 222.98 2763.75 223.00 C 2763.74 260.67 2763.74 298.33 2763.75 336.00 C 2809.98 335.99 2856.20 336.05 2902.43 335.96 C 2902.60 346.29 2902.41 356.62 2902.53 366.95 C 2856.27 367.07 2810.01 366.95 2763.75 367.00 C 2763.74 408.17 2763.74 449.33 2763.75 490.49 C 2815.82 490.49 2867.88 490.53 2919.95 490.47 C 2920.01 501.16 2920.03 511.85 2919.94 522.54 C 2856.79 522.45 2793.65 522.53 2730.50 522.50 C 2730.49 412.08 2730.51 301.67 2730.50 191.26 Z" />
<path fill="#090909" opacity="1.00" d=" M 2990.26 191.26 C 3030.16 191.30 3070.07 191.15 3109.97 191.33 C 3131.61 192.02 3153.29 198.40 3171.09 210.88 C 3183.61 219.59 3194.12 231.20 3201.45 244.58 C 3220.97 279.78 3217.87 326.45 3193.21 358.39 C 3175.80 381.25 3148.22 395.30 3119.86 398.28 C 3108.93 399.27 3097.96 398.94 3087.01 399.00 C 3065.86 398.97 3044.71 399.04 3023.57 398.96 C 3023.40 440.14 3023.55 481.32 3023.49 522.49 C 3012.39 522.47 3001.30 522.58 2990.21 522.44 C 2990.31 412.04 2990.22 301.65 2990.26 191.26 M 3023.50 223.51 C 3023.52 271.26 3023.46 319.02 3023.53 366.77 C 3047.36 366.70 3071.19 366.81 3095.02 366.72 C 3103.69 366.21 3112.47 367.11 3121.02 365.18 C 3139.01 361.69 3156.11 351.96 3166.95 337.00 C 3178.21 321.32 3182.54 300.95 3179.03 282.00 C 3176.51 267.91 3169.74 254.50 3159.39 244.56 C 3146.16 231.94 3128.17 224.74 3110.00 223.76 C 3081.18 223.38 3052.34 223.52 3023.50 223.51 Z" />
<path fill="#090909" opacity="1.00" d=" M 3276.26 191.25 C 3287.33 191.26 3298.42 191.24 3309.50 191.26 C 3309.50 239.26 3309.49 287.25 3309.51 335.25 C 3370.75 335.26 3432.00 335.26 3493.25 335.25 C 3493.26 287.25 3493.25 239.25 3493.25 191.26 C 3504.35 191.31 3515.45 191.12 3526.56 191.36 C 3526.41 301.73 3526.55 412.11 3526.49 522.49 C 3515.40 522.49 3504.32 522.53 3493.24 522.47 C 3493.26 470.73 3493.26 418.99 3493.24 367.25 C 3432.02 367.22 3370.80 367.31 3309.59 367.20 C 3309.38 418.96 3309.56 470.73 3309.50 522.50 C 3298.41 522.51 3287.33 522.49 3276.26 522.51 C 3276.24 412.09 3276.26 301.67 3276.26 191.25 Z" />
<path fill="#090909" opacity="1.00" d=" M 1967.51 446.00 C 1984.08 446.01 2000.66 446.00 2017.25 446.01 C 2017.25 496.83 2017.25 547.66 2017.25 598.49 C 2000.66 598.51 1984.08 598.50 1967.51 598.49 C 1967.49 547.66 1967.49 496.83 1967.51 446.00 Z" />
<path fill="#090909" opacity="1.00" d=" M 3510.51 713.70 C 3514.65 712.81 3518.88 714.14 3523.10 713.88 C 3526.56 713.64 3529.62 717.79 3527.78 720.93 C 3526.50 723.27 3523.68 723.84 3521.39 724.61 C 3501.91 730.41 3484.21 741.60 3470.05 756.11 C 3448.69 778.37 3435.94 807.83 3430.94 838.04 C 3424.45 877.30 3429.29 919.15 3448.41 954.40 C 3462.99 981.49 3486.58 1004.20 3515.49 1015.34 C 3529.04 1020.47 3543.48 1023.70 3558.03 1023.47 C 3576.09 1022.67 3593.92 1017.46 3609.74 1008.74 C 3636.22 994.30 3656.51 969.95 3668.42 942.45 C 3677.55 921.55 3682.11 898.81 3682.73 876.05 C 3683.00 857.11 3681.76 838.04 3677.61 819.52 C 3673.18 799.78 3665.02 780.57 3651.97 764.96 C 3636.23 746.03 3613.83 731.62 3589.02 728.96 C 3571.88 728.31 3554.87 734.96 3541.36 745.26 C 3531.48 752.89 3523.44 763.34 3520.30 775.56 C 3518.88 779.98 3513.38 778.35 3509.95 778.50 C 3506.88 778.02 3503.10 779.84 3500.67 777.35 C 3498.45 775.51 3499.23 772.37 3499.95 770.01 C 3504.33 755.79 3514.38 743.88 3526.35 735.32 C 3536.55 728.01 3548.34 722.99 3560.62 720.45 C 3570.58 718.38 3580.81 718.20 3590.95 718.21 C 3611.54 718.35 3632.03 723.87 3649.94 734.02 C 3676.63 748.93 3697.66 773.12 3709.98 800.99 C 3718.75 820.81 3723.32 842.37 3724.06 864.00 C 3725.67 900.97 3715.98 938.96 3693.98 969.02 C 3676.13 993.75 3650.59 1012.64 3622.00 1023.10 C 3600.66 1031.05 3577.74 1034.07 3555.05 1033.93 C 3531.55 1033.78 3507.78 1031.30 3485.53 1023.38 C 3455.30 1013.13 3428.32 992.80 3411.45 965.57 C 3390.45 932.32 3384.39 891.55 3387.55 852.88 C 3389.46 831.98 3394.83 811.23 3404.69 792.63 C 3418.63 765.77 3441.80 744.45 3468.40 730.40 C 3481.75 723.29 3495.98 717.86 3510.51 713.70 Z" />
<path fill="#090909" opacity="1.00" d=" M 2145.59 714.80 C 2163.79 713.41 2182.60 712.99 2200.16 718.75 C 2215.43 723.63 2229.61 732.78 2239.13 745.83 C 2249.51 759.73 2253.58 778.12 2250.15 795.11 C 2247.32 808.91 2237.57 820.97 2224.76 826.76 C 2212.58 832.66 2198.66 831.96 2185.53 831.20 C 2170.13 829.35 2154.09 821.42 2146.93 807.06 C 2140.72 794.26 2146.97 778.87 2157.45 770.42 C 2162.43 767.28 2168.63 768.48 2173.91 770.14 C 2177.19 771.16 2177.71 775.94 2175.22 778.07 C 2171.02 782.47 2166.99 787.62 2166.36 793.89 C 2165.48 800.04 2168.92 805.81 2173.13 810.00 C 2179.54 816.19 2188.15 820.01 2196.97 821.00 C 2211.72 819.77 2224.79 808.24 2228.30 793.90 C 2232.47 777.35 2226.62 759.22 2215.08 746.95 C 2202.96 734.00 2185.70 725.89 2168.02 724.83 C 2150.85 725.23 2134.05 732.90 2121.85 744.90 C 2108.43 757.99 2101.36 776.55 2099.96 795.04 C 2099.52 803.36 2099.18 812.00 2102.25 819.92 C 2107.95 835.98 2121.21 847.73 2134.81 857.24 C 2158.63 873.76 2185.32 885.57 2209.43 901.64 C 2222.28 910.39 2234.80 920.41 2243.27 933.66 C 2249.33 942.91 2252.68 953.86 2252.73 964.93 C 2253.05 981.93 2247.86 999.50 2236.16 1012.15 C 2221.30 1028.77 2198.82 1036.76 2176.97 1037.98 C 2164.81 1037.76 2152.49 1038.91 2140.51 1036.28 C 2130.40 1034.18 2120.11 1030.63 2112.40 1023.52 C 2109.59 1021.07 2111.34 1015.59 2115.12 1015.43 C 2118.05 1015.06 2121.05 1014.33 2124.03 1014.96 C 2126.48 1015.50 2129.42 1014.81 2131.41 1016.77 C 2139.25 1023.16 2149.07 1026.77 2159.05 1028.01 C 2167.35 1028.99 2175.57 1026.40 2183.04 1022.98 C 2196.84 1016.58 2207.93 1004.43 2212.57 989.89 C 2216.33 977.48 2216.68 963.34 2210.35 951.68 C 2203.68 938.81 2191.91 929.63 2180.03 921.81 C 2155.54 906.00 2128.43 894.51 2105.01 877.01 C 2093.38 868.44 2082.85 858.09 2075.43 845.61 C 2065.93 829.95 2062.66 810.87 2065.32 792.84 C 2070.53 760.98 2092.63 731.72 2123.15 720.25 C 2130.35 717.49 2137.92 715.70 2145.59 714.80 Z" />
<path fill="#090909" opacity="1.00" d=" M 3827.49 714.75 C 3846.74 713.31 3866.74 713.06 3885.08 719.96 C 3903.67 726.68 3920.31 740.36 3927.95 758.90 C 3934.27 774.59 3935.04 793.46 3926.40 808.45 C 3920.36 818.86 3909.98 826.52 3898.40 829.64 C 3889.18 832.23 3879.53 831.70 3870.09 831.42 C 3858.44 830.87 3846.95 826.57 3837.96 819.13 C 3831.51 813.90 3826.60 806.35 3825.89 797.95 C 3825.22 789.34 3828.99 780.89 3834.64 774.55 C 3836.68 772.30 3838.77 769.79 3841.85 768.95 C 3844.53 767.82 3847.11 769.87 3849.87 769.77 C 3851.98 770.03 3854.45 769.24 3856.32 770.72 C 3858.38 772.19 3858.92 775.42 3857.20 777.37 C 3854.82 780.29 3851.95 782.86 3850.26 786.28 C 3847.15 791.61 3846.61 798.63 3849.94 804.00 C 3855.67 813.88 3866.90 819.41 3877.90 820.98 C 3889.96 820.29 3901.19 812.36 3906.69 801.69 C 3913.89 787.66 3911.60 770.36 3903.94 757.01 C 3894.97 741.59 3878.97 731.18 3861.92 726.76 C 3855.53 725.01 3848.80 724.26 3842.25 725.32 C 3825.52 728.09 3809.54 736.55 3798.76 749.77 C 3785.16 766.12 3779.87 788.18 3781.26 809.11 C 3782.84 826.47 3794.79 840.67 3807.95 851.11 C 3833.63 871.21 3864.18 883.64 3891.09 901.88 C 3904.25 910.70 3916.92 921.03 3925.32 934.68 C 3931.12 943.99 3934.34 954.96 3934.03 965.97 C 3934.40 983.25 3928.48 1000.94 3916.36 1013.49 C 3900.88 1029.79 3878.06 1037.37 3855.99 1038.05 C 3844.67 1037.95 3833.22 1038.73 3822.09 1036.33 C 3812.09 1034.19 3801.92 1030.79 3794.17 1023.89 C 3791.02 1021.62 3792.45 1016.22 3796.08 1015.36 C 3798.91 1014.14 3801.99 1014.72 3804.96 1015.15 C 3807.66 1015.59 3810.88 1014.70 3813.07 1016.92 C 3820.43 1023.05 3829.75 1026.35 3839.12 1027.86 C 3847.45 1029.17 3855.83 1026.83 3863.41 1023.47 C 3877.88 1016.97 3889.77 1004.33 3894.20 988.97 C 3897.74 976.93 3897.94 963.29 3891.90 952.00 C 3885.19 938.95 3873.29 929.59 3861.24 921.73 C 3832.27 902.91 3799.12 890.20 3773.62 866.33 C 3759.41 853.14 3748.94 835.46 3746.55 816.04 C 3743.77 797.30 3748.56 778.09 3757.66 761.70 C 3765.06 748.35 3775.63 736.71 3788.46 728.40 C 3800.16 720.88 3813.65 716.21 3827.49 714.75 Z" />
<path fill="#090909" opacity="1.00" d=" M 2447.59 720.16 C 2447.72 717.82 2449.52 715.46 2451.99 715.33 C 2456.29 715.22 2460.60 715.30 2464.93 715.38 C 2467.76 715.39 2469.60 718.36 2469.26 721.00 C 2469.23 786.34 2469.26 851.68 2469.25 917.01 C 2469.16 929.27 2469.67 941.57 2468.24 953.78 C 2466.14 973.39 2460.85 993.21 2449.46 1009.57 C 2442.34 1019.74 2432.51 1028.22 2420.87 1032.75 C 2411.12 1036.68 2400.46 1037.68 2390.05 1037.13 C 2376.13 1037.70 2361.94 1035.09 2349.61 1028.47 C 2336.00 1021.33 2324.96 1009.67 2318.00 996.02 C 2310.93 982.46 2307.57 967.21 2306.76 952.01 C 2306.23 941.35 2306.61 930.68 2306.50 920.03 C 2306.52 853.64 2306.45 787.25 2306.54 720.86 C 2306.26 717.86 2309.81 717.40 2311.99 716.84 C 2318.24 715.84 2324.62 716.18 2330.94 716.08 C 2335.65 716.21 2340.70 716.33 2344.77 719.07 C 2344.72 786.70 2344.76 854.32 2344.75 921.95 C 2344.57 928.63 2345.10 935.30 2345.00 941.99 C 2344.64 958.92 2346.86 976.12 2353.15 991.93 C 2357.52 1003.10 2364.56 1013.55 2374.64 1020.30 C 2381.79 1024.95 2390.76 1027.98 2399.23 1025.35 C 2414.74 1021.96 2427.33 1010.42 2434.55 996.61 C 2445.29 976.24 2447.70 952.66 2447.50 929.96 C 2447.50 863.98 2447.50 798.01 2447.50 732.03 C 2447.55 728.07 2447.31 724.11 2447.59 720.16 Z" />
<path fill="#090909" opacity="1.00" d=" M 2935.25 718.00 C 2939.90 715.99 2945.09 716.98 2950.02 716.64 C 2969.79 715.80 2989.66 721.18 3006.56 731.40 C 3037.55 749.83 3058.96 783.25 3063.05 819.04 C 3065.37 840.63 3062.56 863.18 3052.57 882.66 C 3045.31 897.47 3034.10 910.13 3021.04 920.11 C 3008.90 929.53 2994.98 936.29 2980.72 941.83 C 2989.77 943.33 2998.98 944.09 3007.91 946.38 C 3029.35 951.41 3049.48 960.76 3068.70 971.32 C 3085.69 980.78 3102.33 990.86 3118.62 1001.49 C 3135.66 1012.46 3153.20 1023.44 3173.00 1028.64 C 3173.00 926.74 3173.02 824.84 3172.99 722.94 C 3172.26 719.01 3177.39 719.20 3179.97 718.79 C 3186.94 719.00 3194.00 718.05 3200.93 719.36 C 3202.32 719.72 3204.66 720.14 3204.45 722.10 C 3204.93 739.35 3214.82 754.53 3226.22 766.79 C 3251.43 793.76 3283.86 812.76 3308.97 839.84 C 3309.03 801.22 3309.02 762.60 3308.97 723.98 C 3308.91 721.62 3308.96 718.72 3311.33 717.41 C 3314.26 716.01 3317.75 716.83 3320.95 716.72 C 3323.46 716.96 3326.20 716.35 3328.63 717.31 C 3331.54 719.23 3330.61 723.05 3330.77 726.00 C 3330.73 826.35 3330.73 926.70 3330.77 1027.05 C 3330.59 1029.96 3331.51 1033.80 3328.62 1035.70 C 3325.65 1037.18 3322.16 1035.69 3319.10 1036.86 C 3315.04 1038.60 3308.89 1035.89 3309.03 1031.07 C 3308.97 1001.37 3309.02 971.66 3309.00 941.97 C 3308.68 931.32 3309.96 920.52 3307.59 910.03 C 3304.22 891.78 3296.57 874.34 3285.31 859.57 C 3264.43 831.81 3234.13 813.66 3209.50 789.68 C 3209.51 867.83 3209.49 945.99 3209.51 1024.14 C 3214.01 1021.89 3218.39 1019.37 3222.48 1016.42 C 3225.31 1014.34 3228.59 1012.79 3232.09 1012.22 C 3235.41 1012.55 3238.67 1013.40 3241.96 1014.14 C 3245.64 1014.96 3246.69 1020.43 3243.72 1022.71 C 3227.63 1035.43 3207.57 1043.14 3187.03 1043.88 C 3174.34 1044.15 3161.51 1044.05 3149.07 1041.27 C 3128.89 1036.83 3109.98 1028.01 3091.94 1018.14 C 3074.22 1008.34 3056.96 997.77 3039.60 987.37 C 3018.07 974.67 2995.89 962.25 2971.49 956.03 C 2971.46 982.11 2971.58 1008.19 2971.43 1034.28 C 2964.90 1036.80 2957.82 1035.81 2951.01 1036.00 C 2945.90 1035.90 2940.46 1036.57 2935.73 1034.27 C 2934.48 1032.08 2935.12 1029.41 2934.98 1027.03 C 2935.02 1003.18 2935.00 979.32 2934.99 955.47 C 2925.13 957.89 2915.69 961.83 2906.88 966.85 C 2903.36 969.47 2898.68 968.06 2894.64 968.25 C 2891.11 966.25 2888.60 960.97 2891.26 957.38 C 2892.88 955.42 2895.40 954.58 2897.64 953.49 C 2909.45 948.03 2922.08 944.35 2934.98 942.60 C 2935.04 884.73 2934.98 826.86 2935.00 768.99 C 2935.12 751.99 2934.74 734.99 2935.25 718.00 M 2971.51 732.84 C 2971.48 798.25 2971.53 863.66 2971.48 929.07 C 2990.74 919.67 3007.50 904.63 3017.74 885.69 C 3028.45 866.06 3031.98 843.03 3029.91 820.92 C 3028.04 799.91 3020.48 779.31 3007.66 762.51 C 2998.04 750.10 2985.85 739.40 2971.51 732.84 Z" />
<path fill="#090909" opacity="1.00" d=" M 2554.04 719.13 C 2561.51 717.07 2569.36 717.82 2577.03 717.53 C 2597.36 716.98 2617.13 724.94 2633.38 736.79 C 2661.35 757.44 2680.05 789.74 2685.24 824.02 C 2688.25 844.46 2686.98 865.70 2680.52 885.38 C 2675.51 900.80 2666.88 914.97 2655.75 926.74 C 2638.11 945.46 2614.68 957.64 2590.45 965.55 C 2590.55 988.21 2590.48 1010.88 2590.49 1033.55 C 2583.39 1036.57 2575.50 1035.66 2568.00 1035.63 C 2563.28 1035.25 2558.02 1036.07 2553.95 1033.15 C 2554.06 1013.34 2553.98 993.54 2553.99 973.73 C 2538.71 975.25 2523.25 975.26 2507.98 973.69 C 2503.43 972.89 2503.77 965.75 2507.99 964.66 C 2514.98 964.84 2521.97 964.34 2528.96 964.99 C 2537.37 964.72 2545.75 963.58 2554.00 961.94 C 2554.02 881.00 2553.96 800.06 2554.04 719.13 M 2590.50 733.55 C 2590.51 805.42 2590.49 877.29 2590.51 949.16 C 2614.01 937.13 2633.75 917.11 2643.42 892.34 C 2653.37 867.69 2654.72 840.04 2649.51 814.12 C 2642.81 780.51 2621.77 748.79 2590.50 733.55 Z" />
<path fill="#090909" opacity="1.00" d=" M 2741.40 722.28 C 2742.05 719.94 2744.89 719.56 2746.98 719.52 C 2780.95 718.49 2814.96 719.25 2848.95 719.03 C 2853.91 719.37 2859.20 718.29 2863.96 720.09 C 2868.18 722.04 2866.58 728.93 2862.05 729.11 C 2852.04 729.77 2842.00 729.52 2831.99 729.58 C 2813.91 729.58 2795.83 729.57 2777.75 729.59 C 2777.69 779.55 2777.84 829.52 2777.68 879.49 C 2788.50 882.81 2799.48 885.82 2810.72 887.36 C 2819.99 889.01 2830.19 885.50 2836.26 878.21 C 2839.33 874.60 2844.63 875.38 2848.86 875.67 C 2851.11 875.94 2853.51 875.54 2855.73 876.33 C 2857.93 877.35 2858.85 880.50 2857.23 882.42 C 2850.05 892.76 2837.33 898.08 2824.99 898.32 C 2814.00 898.51 2802.90 898.71 2792.07 896.57 C 2787.24 895.70 2782.48 894.53 2777.74 893.39 C 2777.76 936.39 2777.73 979.40 2777.75 1022.41 C 2801.80 1022.47 2825.84 1022.34 2849.89 1022.48 C 2854.48 1022.75 2859.21 1022.14 2863.71 1023.27 C 2868.70 1025.37 2866.31 1033.65 2861.00 1032.97 C 2823.29 1033.01 2785.57 1033.02 2747.86 1032.97 C 2744.58 1033.11 2741.21 1030.49 2741.29 1027.07 C 2741.20 979.93 2741.29 932.78 2741.24 885.63 C 2733.98 886.02 2727.16 888.65 2720.69 891.73 C 2717.45 892.32 2714.10 892.22 2710.97 893.37 C 2707.53 892.92 2702.75 892.40 2701.55 888.53 C 2700.60 886.35 2701.91 883.92 2704.00 883.01 C 2715.35 876.85 2728.47 874.98 2741.25 875.03 C 2741.26 827.04 2741.25 779.05 2741.25 731.05 C 2741.27 728.13 2741.04 725.19 2741.40 722.28 Z" />
<path fill="#090909" opacity="1.00" d=" M 3997.76 723.95 C 3997.11 720.88 4000.41 719.61 4002.89 719.48 C 4012.88 718.79 4022.91 719.09 4032.93 719.02 C 4058.94 719.04 4084.95 718.98 4110.96 719.05 C 4114.53 719.39 4119.03 718.29 4121.83 721.19 C 4124.93 724.56 4121.21 730.04 4116.94 729.27 C 4089.37 729.96 4061.79 729.34 4034.22 729.64 C 4034.29 779.63 4034.23 829.63 4034.25 879.62 C 4045.08 882.70 4055.95 885.89 4067.16 887.33 C 4076.87 889.15 4087.36 885.14 4093.52 877.42 C 4098.24 873.87 4104.59 876.06 4110.05 875.94 C 4113.11 875.62 4115.78 879.10 4114.07 881.89 C 4108.08 890.93 4097.67 896.43 4087.07 897.83 C 4078.73 898.86 4070.31 898.35 4061.95 898.20 C 4052.58 897.72 4043.37 895.70 4034.33 893.35 C 4034.13 936.36 4034.32 979.38 4034.24 1022.39 C 4061.14 1022.56 4088.04 1022.18 4114.95 1022.62 C 4117.57 1022.71 4121.16 1022.56 4122.48 1025.44 C 4124.17 1028.61 4121.66 1032.98 4118.05 1032.95 C 4080.37 1033.06 4042.68 1032.95 4005.00 1033.01 C 4001.57 1033.31 3997.55 1030.75 3997.78 1027.01 C 3997.62 979.87 3997.93 932.71 3997.63 885.56 C 3991.07 886.11 3984.75 888.14 3978.87 890.99 C 3976.23 892.44 3973.09 892.04 3970.37 893.10 C 3967.01 894.39 3963.49 892.97 3960.46 891.55 C 3957.39 890.04 3956.63 884.90 3960.02 883.30 C 3971.45 876.86 3984.80 875.02 3997.76 875.01 C 3997.74 824.66 3997.74 774.30 3997.76 723.95 Z" />
<path fill="#090909" opacity="1.00" d=" M 571.51 853.47 C 607.01 807.41 674.33 789.86 727.97 812.08 C 736.77 815.49 744.62 820.78 752.93 825.17 C 770.67 835.44 783.18 852.44 793.08 869.99 C 801.48 884.46 808.14 899.88 816.88 914.15 C 833.41 918.55 850.05 922.55 866.40 927.59 C 863.92 929.46 860.76 929.87 857.89 930.84 C 850.29 933.30 842.58 935.41 834.88 937.57 C 811.37 945.48 787.44 952.12 763.88 959.88 C 761.32 960.72 758.74 961.62 756.04 961.77 C 768.39 948.14 780.80 934.55 793.43 921.18 C 790.83 913.46 786.49 906.52 782.68 899.37 C 771.95 880.28 759.44 861.64 742.28 847.71 C 731.19 838.70 718.01 832.28 703.98 829.46 C 676.72 821.36 646.69 827.00 622.58 841.46 C 605.77 851.43 591.30 865.38 580.92 881.96 C 575.97 889.67 572.21 898.14 570.06 907.06 C 564.94 927.27 566.13 948.31 566.81 968.95 C 567.17 974.31 566.49 979.81 568.12 985.03 C 586.10 990.29 604.43 994.34 622.29 1000.01 C 612.94 1003.04 603.27 1004.97 593.84 1007.77 C 570.07 1014.35 546.15 1020.41 522.47 1027.30 C 518.56 1028.35 514.70 1029.63 510.68 1030.18 C 521.21 1016.66 533.97 1005.08 544.95 991.95 C 545.29 980.34 544.13 968.66 544.01 957.02 C 543.37 934.93 543.94 912.32 550.81 891.11 C 555.11 877.32 563.01 865.02 571.51 853.47 Z" />
<path fill="#090909" opacity="1.00" d=" M 854.14 940.05 C 856.56 939.28 859.01 938.64 861.51 938.14 C 864.93 949.86 868.03 961.67 871.66 973.33 C 868.81 975.23 865.25 975.21 862.08 976.23 C 849.87 979.71 837.59 982.94 825.49 986.77 C 809.82 990.92 794.17 995.20 778.58 999.68 C 775.46 988.32 773.08 976.77 769.55 965.53 C 777.73 963.08 786.14 961.28 794.13 958.13 C 814.10 951.98 834.17 946.18 854.14 940.05 Z" />
<path fill="#090909" opacity="1.00" d=" M 586.08 1017.48 C 595.06 1015.59 603.83 1012.93 612.51 1010.01 C 615.89 1021.34 619.88 1032.48 623.34 1043.80 C 613.20 1046.73 603.14 1049.93 592.99 1052.86 C 573.16 1059.63 552.61 1064.15 532.91 1071.28 C 532.36 1071.33 531.26 1071.42 530.71 1071.46 C 527.54 1059.57 523.56 1047.91 520.42 1036.01 C 542.27 1029.70 564.19 1023.66 586.08 1017.48 Z" />
<path fill="#090909" opacity="1.00" d=" M 1828.02 1168.24 C 1833.84 1168.26 1839.67 1168.24 1845.50 1168.26 C 1845.49 1175.24 1845.49 1182.22 1845.50 1189.20 C 1861.27 1190.06 1877.10 1193.91 1890.64 1202.25 C 1905.08 1210.89 1916.67 1224.05 1923.74 1239.29 C 1936.23 1266.28 1935.42 1299.11 1921.35 1325.35 C 1913.40 1340.06 1901.10 1352.46 1886.23 1360.16 C 1873.74 1366.86 1859.62 1370.04 1845.54 1370.72 C 1845.40 1379.74 1845.61 1388.77 1845.42 1397.79 C 1839.61 1397.70 1833.81 1397.75 1828.01 1397.75 C 1827.99 1388.75 1828.01 1379.75 1828.00 1370.76 C 1814.04 1370.05 1800.10 1366.80 1787.71 1360.23 C 1770.29 1351.39 1756.45 1336.10 1748.70 1318.23 C 1734.74 1286.26 1739.66 1246.28 1762.64 1219.68 C 1775.24 1205.04 1792.90 1194.85 1811.88 1191.24 C 1817.19 1190.14 1822.59 1189.59 1828.00 1189.19 C 1828.01 1182.20 1827.98 1175.22 1828.02 1168.24 M 1773.34 1235.45 C 1759.99 1253.60 1755.98 1277.88 1761.56 1299.58 C 1765.43 1315.00 1774.43 1329.21 1787.12 1338.85 C 1798.81 1347.81 1813.33 1352.74 1827.99 1353.58 C 1828.02 1304.61 1828.01 1255.63 1827.99 1206.66 C 1806.73 1207.52 1785.81 1218.06 1773.34 1235.45 M 1845.50 1206.62 C 1845.51 1255.61 1845.47 1304.60 1845.52 1353.59 C 1866.89 1352.57 1887.99 1342.15 1900.39 1324.47 C 1920.55 1296.70 1918.76 1254.89 1895.36 1229.54 C 1882.79 1215.50 1864.21 1207.44 1845.50 1206.62 Z" />
<path fill="#090909" opacity="1.00" d=" M 3895.61 1190.76 C 3916.52 1187.40 3938.61 1190.68 3957.35 1200.68 C 3971.66 1208.31 3983.67 1220.17 3991.53 1234.36 C 4009.83 1267.36 4006.40 1311.81 3981.35 1340.46 C 3970.43 1353.04 3955.68 1362.11 3939.74 1366.79 C 3917.90 1372.99 3893.90 1371.99 3872.97 1363.01 C 3856.99 1356.30 3843.21 1344.58 3833.96 1329.94 C 3814.38 1298.79 3815.44 1255.88 3836.92 1225.94 C 3850.63 1206.86 3872.40 1194.07 3895.61 1190.76 M 3899.56 1207.79 C 3884.58 1209.97 3870.28 1216.83 3859.46 1227.44 C 3834.25 1251.99 3831.17 1294.98 3851.51 1323.43 C 3859.52 1334.93 3871.24 1343.68 3884.37 1348.53 C 3904.75 1356.01 3928.31 1354.78 3947.56 1344.59 C 3961.22 1337.47 3972.35 1325.57 3978.45 1311.41 C 3985.89 1294.73 3986.91 1275.42 3981.83 1257.93 C 3977.00 1241.41 3966.00 1226.66 3951.25 1217.72 C 3935.95 1208.29 3917.23 1205.25 3899.56 1207.79 Z" />
<path fill="#090909" opacity="1.00" d=" M 4099.22 1191.32 C 4121.21 1187.10 4145.04 1190.03 4164.44 1201.60 C 4182.33 1211.96 4195.23 1229.76 4200.99 1249.49 C 4194.91 1249.51 4188.85 1249.50 4182.80 1249.50 C 4177.61 1236.16 4168.37 1224.23 4156.02 1216.84 C 4139.42 1206.78 4118.78 1204.67 4100.06 1208.99 C 4083.30 1212.84 4068.02 1223.19 4058.65 1237.67 C 4047.88 1254.08 4044.53 1274.72 4047.73 1293.93 C 4050.38 1311.51 4059.73 1328.22 4074.05 1338.92 C 4085.76 1347.84 4100.41 1352.49 4115.06 1353.06 C 4132.11 1353.86 4149.74 1349.07 4163.02 1338.09 C 4172.76 1330.28 4179.53 1319.35 4183.88 1307.75 C 4189.89 1307.74 4195.92 1307.75 4201.97 1307.74 C 4197.20 1324.73 4187.75 1340.72 4173.87 1351.81 C 4159.88 1363.26 4141.98 1369.45 4124.01 1370.35 C 4103.02 1371.51 4081.26 1366.33 4064.14 1353.84 C 4049.80 1343.68 4039.18 1328.68 4033.57 1312.09 C 4028.02 1295.18 4027.01 1276.80 4030.55 1259.36 C 4034.31 1240.70 4043.95 1223.05 4058.54 1210.68 C 4070.00 1200.66 4084.29 1194.14 4099.22 1191.32 Z" />
<path fill="#090909" opacity="1.00" d=" M 1969.43 1192.11 C 1975.45 1191.89 1981.47 1192.04 1987.50 1192.00 C 1987.55 1238.78 1987.41 1285.55 1987.57 1332.33 C 2005.17 1309.29 2022.15 1285.77 2039.53 1262.55 C 2056.98 1239.05 2074.37 1215.50 2091.82 1192.00 C 2096.12 1192.00 2100.43 1191.99 2104.75 1192.01 C 2104.74 1250.67 2104.74 1309.33 2104.76 1367.98 C 2098.83 1368.00 2092.91 1367.99 2087.00 1368.00 C 2086.99 1320.82 2087.03 1273.64 2086.99 1226.46 C 2051.91 1273.58 2017.03 1320.84 1982.01 1368.00 C 1977.81 1368.00 1973.63 1368.02 1969.46 1367.94 C 1969.50 1309.33 1969.56 1250.72 1969.43 1192.11 Z" />
<path fill="#090909" opacity="1.00" d=" M 2182.14 1192.03 C 2217.61 1192.03 2253.08 1191.90 2288.56 1192.09 C 2288.43 1250.64 2288.53 1309.19 2288.50 1367.74 C 2282.60 1367.76 2276.71 1367.71 2270.83 1367.78 C 2270.65 1314.78 2270.79 1261.78 2270.76 1208.78 C 2246.72 1208.70 2222.68 1208.78 2198.65 1208.74 C 2196.05 1240.48 2193.60 1272.23 2191.04 1303.98 C 2190.02 1318.88 2188.83 1334.58 2180.73 1347.59 C 2175.75 1356.01 2167.56 1362.31 2158.28 1365.30 C 2150.24 1368.00 2141.64 1368.16 2133.25 1367.98 C 2133.25 1362.15 2133.24 1356.33 2133.26 1350.52 C 2142.21 1350.57 2152.11 1350.24 2159.38 1344.29 C 2167.87 1337.55 2170.91 1326.37 2171.89 1316.02 C 2175.35 1274.69 2178.78 1233.36 2182.14 1192.03 Z" />
<path fill="#090909" opacity="1.00" d=" M 2338.00 1192.00 C 2343.99 1192.00 2349.99 1192.00 2356.00 1192.00 C 2356.00 1213.67 2355.99 1235.33 2356.00 1257.00 C 2371.66 1257.01 2387.33 1256.99 2403.00 1257.00 C 2419.50 1257.30 2436.37 1264.05 2446.96 1277.01 C 2462.46 1295.70 2463.44 1324.78 2449.49 1344.60 C 2439.73 1358.67 2422.98 1366.84 2406.10 1367.86 C 2383.40 1368.19 2360.70 1367.90 2338.00 1368.00 C 2338.00 1309.33 2338.00 1250.67 2338.00 1192.00 M 2356.00 1273.51 C 2355.90 1284.34 2356.21 1295.18 2355.76 1306.02 C 2355.53 1321.10 2356.13 1336.17 2356.00 1351.25 C 2371.01 1351.25 2386.02 1351.27 2401.03 1351.25 C 2412.03 1351.12 2423.16 1346.88 2430.81 1338.84 C 2444.11 1325.14 2444.52 1301.30 2431.85 1287.06 C 2424.38 1278.69 2413.19 1273.88 2402.03 1273.73 C 2386.69 1273.26 2371.34 1273.60 2356.00 1273.51 Z" />
<path fill="#090909" opacity="1.00" d=" M 2454.75 1192.01 C 2497.17 1192.00 2539.58 1192.01 2582.00 1192.00 C 2581.98 1197.58 2582.01 1203.17 2581.98 1208.76 C 2563.73 1208.74 2545.49 1208.73 2527.24 1208.77 C 2527.25 1261.84 2527.25 1314.92 2527.25 1367.99 C 2521.31 1367.98 2515.39 1368.04 2509.47 1367.95 C 2509.53 1314.88 2509.49 1261.82 2509.49 1208.75 C 2491.25 1208.74 2473.00 1208.74 2454.76 1208.75 C 2454.73 1203.16 2454.74 1197.58 2454.75 1192.01 Z" />
<path fill="#090909" opacity="1.00" d=" M 2612.46 1192.07 C 2628.96 1191.91 2645.46 1192.05 2661.97 1192.00 C 2671.05 1192.15 2680.30 1191.28 2689.19 1193.66 C 2703.77 1197.07 2717.09 1206.32 2724.51 1219.46 C 2735.13 1238.07 2733.92 1262.89 2721.09 1280.14 C 2710.73 1294.21 2693.32 1302.08 2676.06 1302.47 C 2660.81 1302.51 2645.57 1302.54 2630.34 1302.44 C 2630.13 1324.29 2630.31 1346.14 2630.25 1367.99 C 2624.30 1367.96 2618.37 1368.08 2612.44 1367.91 C 2612.55 1309.30 2612.52 1250.68 2612.46 1192.07 M 2630.25 1209.25 C 2630.23 1234.48 2630.27 1259.71 2630.23 1284.94 C 2638.12 1285.28 2646.03 1285.39 2653.94 1285.14 C 2664.63 1284.48 2675.61 1286.46 2686.06 1283.35 C 2696.94 1280.33 2706.47 1272.30 2710.66 1261.74 C 2716.39 1248.00 2713.33 1230.91 2702.57 1220.48 C 2695.02 1213.16 2684.48 1209.31 2674.05 1209.25 C 2659.44 1209.25 2644.85 1209.25 2630.25 1209.25 Z" />
<path fill="#090909" opacity="1.00" d=" M 2764.46 1192.06 C 2770.49 1191.99 2776.53 1191.89 2782.57 1192.12 C 2782.40 1213.75 2782.54 1235.37 2782.50 1257.00 C 2798.33 1257.04 2814.16 1256.93 2830.00 1257.05 C 2846.50 1257.34 2863.22 1264.29 2873.72 1277.27 C 2885.52 1291.58 2888.61 1311.94 2883.36 1329.51 C 2879.26 1343.53 2868.87 1355.46 2855.75 1361.78 C 2846.88 1366.21 2836.87 1368.11 2827.00 1368.01 C 2806.16 1367.94 2785.31 1368.07 2764.47 1367.95 C 2764.51 1309.32 2764.53 1250.69 2764.46 1192.06 M 2782.50 1273.50 C 2782.50 1299.42 2782.49 1325.33 2782.51 1351.25 C 2797.33 1351.25 2812.16 1351.25 2826.99 1351.26 C 2839.22 1351.27 2851.70 1346.18 2859.41 1336.49 C 2870.82 1322.46 2870.33 1300.28 2858.20 1286.85 C 2850.36 1278.09 2838.51 1273.62 2826.90 1273.54 C 2812.10 1273.44 2797.30 1273.52 2782.50 1273.50 Z" />
<path fill="#090909" opacity="1.00" d=" M 2914.00 1192.00 C 2919.99 1192.00 2925.99 1192.00 2932.00 1192.00 C 2931.99 1250.67 2931.99 1309.33 2932.00 1368.00 C 2925.99 1367.99 2919.99 1367.99 2914.00 1368.00 C 2914.00 1309.33 2914.00 1250.67 2914.00 1192.00 Z" />
<path fill="#090909" opacity="1.00" d=" M 3074.92 1192.01 C 3110.86 1192.00 3146.81 1192.00 3182.75 1192.01 C 3182.74 1245.09 3182.74 1298.17 3182.75 1351.25 C 3188.98 1351.25 3195.22 1351.26 3201.47 1351.24 C 3201.53 1368.99 3201.49 1386.74 3201.49 1404.49 C 3195.98 1404.50 3190.49 1404.50 3185.01 1404.50 C 3184.99 1392.33 3185.01 1380.16 3185.00 1368.00 C 3138.41 1368.00 3091.83 1367.98 3045.24 1368.01 C 3045.12 1380.17 3045.55 1392.35 3044.94 1404.50 C 3039.45 1404.49 3033.97 1404.50 3028.51 1404.49 C 3028.50 1386.74 3028.47 1368.99 3028.52 1351.24 C 3032.98 1351.14 3037.47 1351.49 3041.94 1351.11 C 3050.50 1346.90 3054.86 1337.59 3057.55 1328.91 C 3062.69 1311.35 3064.67 1293.08 3066.93 1274.99 C 3070.03 1247.37 3072.54 1219.69 3074.92 1192.01 M 3085.61 1270.90 C 3083.40 1289.80 3081.45 1308.87 3076.22 1327.23 C 3073.74 1336.10 3069.71 1344.82 3062.97 1351.26 C 3096.98 1351.24 3130.99 1351.26 3165.00 1351.25 C 3165.01 1303.75 3165.01 1256.25 3165.00 1208.75 C 3140.48 1208.69 3115.96 1208.86 3091.44 1208.66 C 3089.30 1229.38 3087.96 1250.19 3085.61 1270.90 Z" />
<path fill="#090909" opacity="1.00" d=" M 3254.67 1315.13 C 3258.05 1274.09 3261.53 1233.05 3264.81 1192.00 C 3300.20 1192.00 3335.60 1192.01 3371.00 1192.00 C 3370.99 1250.59 3371.01 1309.17 3370.98 1367.76 C 3365.06 1367.73 3359.15 1367.75 3353.25 1367.74 C 3353.25 1314.75 3353.26 1261.75 3353.25 1208.75 C 3329.23 1208.75 3305.22 1208.71 3281.21 1208.77 C 3278.41 1243.87 3275.62 1278.97 3272.82 1314.07 C 3271.77 1326.33 3269.21 1338.95 3262.21 1349.31 C 3257.45 1356.53 3250.19 1361.96 3242.07 1364.85 C 3233.74 1367.85 3224.75 1368.15 3216.00 1367.99 C 3216.03 1362.14 3215.90 1356.29 3216.10 1350.45 C 3225.30 1350.77 3235.50 1350.09 3242.79 1343.76 C 3251.02 1336.71 3253.75 1325.49 3254.67 1315.13 Z" />
<path fill="#090909" opacity="1.00" d=" M 3421.87 1210.95 C 3432.69 1198.24 3449.60 1191.89 3466.07 1191.99 C 3488.19 1192.00 3510.32 1192.03 3532.45 1191.98 C 3532.59 1250.63 3532.42 1309.29 3532.53 1367.95 C 3526.59 1368.04 3520.67 1367.98 3514.75 1367.99 C 3514.75 1344.43 3514.73 1320.87 3514.77 1297.30 C 3500.46 1296.63 3486.13 1297.17 3471.82 1296.99 C 3457.37 1320.60 3443.23 1344.39 3428.75 1367.98 C 3421.76 1368.01 3414.79 1367.98 3407.83 1368.00 C 3422.63 1343.73 3437.48 1319.49 3452.28 1295.21 C 3437.56 1292.03 3423.52 1283.40 3416.16 1269.96 C 3405.81 1251.62 3407.99 1226.90 3421.87 1210.95 M 3436.27 1221.45 C 3427.54 1231.35 3425.37 1246.30 3430.51 1258.40 C 3433.81 1266.49 3440.52 1272.97 3448.43 1276.58 C 3454.56 1279.39 3461.33 1280.39 3468.04 1280.49 C 3483.58 1280.55 3499.12 1280.42 3514.66 1280.55 C 3514.86 1256.62 3514.69 1232.69 3514.75 1208.76 C 3498.85 1208.81 3482.94 1208.55 3467.05 1208.99 C 3455.67 1208.56 3443.93 1212.90 3436.27 1221.45 Z" />
<path fill="#090909" opacity="1.00" d=" M 3649.43 1192.12 C 3655.27 1191.88 3661.13 1192.04 3667.00 1192.00 C 3667.00 1217.50 3666.99 1243.00 3667.00 1268.49 C 3699.54 1268.55 3732.09 1268.41 3764.64 1268.57 C 3764.90 1243.05 3764.67 1217.53 3764.75 1192.01 C 3770.63 1191.98 3776.52 1192.03 3782.43 1191.96 C 3782.57 1250.64 3782.50 1309.33 3782.47 1368.01 C 3776.55 1367.98 3770.64 1368.00 3764.75 1367.99 C 3764.78 1340.52 3764.68 1313.06 3764.80 1285.59 C 3732.29 1285.41 3699.77 1285.49 3667.26 1285.55 C 3666.55 1313.03 3667.31 1340.51 3667.25 1367.99 C 3661.31 1367.97 3655.38 1368.05 3649.46 1367.94 C 3649.50 1309.33 3649.57 1250.72 3649.43 1192.12 Z" />
<path fill="#090909" opacity="1.00" d=" M 4284.23 1192.01 C 4289.72 1191.99 4295.23 1192.00 4300.75 1192.01 C 4325.54 1250.71 4350.60 1309.29 4375.42 1367.97 C 4368.99 1368.02 4362.57 1367.98 4356.17 1368.00 C 4349.98 1353.08 4343.44 1338.31 4337.50 1323.29 C 4308.00 1323.20 4278.50 1323.27 4249.01 1323.25 C 4242.94 1338.14 4236.52 1352.89 4230.66 1367.86 C 4224.26 1368.15 4217.86 1367.93 4211.49 1368.00 C 4235.75 1309.34 4260.04 1250.70 4284.23 1192.01 M 4292.61 1216.93 C 4280.46 1246.92 4268.00 1276.78 4255.84 1306.77 C 4280.71 1306.72 4305.59 1306.76 4330.46 1306.75 C 4317.75 1276.85 4305.60 1246.70 4292.61 1216.93 Z" />
</g>
</svg>
